  0
SECTION
  2
HEADER
  9
$ACADVER
  1
AC1014
  9
$HANDSEED
  5
FFFF
  9
$MEASUREMENT
 70
     1
  0
ENDSEC
  0
SECTION
  2
TABLES
  0
TABLE
  2
VPORT
  5
8
330
0
100
AcDbSymbolTable
 70
     4
  0
VPORT
  5
2E
330
8
100
AcDbSymbolTableRecord
100
AcDbViewportTableRecord
  2
*ACTIVE
 70
     0
 10
0.0
 20
0.0
 11
1.0
 21
1.0
 12
210.0
 22
148.5
 13
0.0
 23
0.0
 14
10.0
 24
10.0
 15
10.0
 25
10.0
 16
0.0
 26
0.0
 36
1.0
 17
0.0
 27
0.0
 37
0.0
 40
341.0
 41
1.24
 42
50.0
 43
0.0
 44
0.0
 50
0.0
 51
0.0
 71
     0
 72
   100
 73
     1
 74
     3
 75
     0
 76
     0
 77
     0
 78
     0
  0
ENDTAB
  0
TABLE
  2
LTYPE
  5
5
330
0
100
AcDbSymbolTable
 70
     1
  0
LTYPE
  5
14
330
5
100
AcDbSymbolTableRecord
100
AcDbLinetypeTableRecord
  2
BYBLOCK
 70
     0
  3

 72
    65
 73
     0
 40
0.0
  0
LTYPE
  5
15
330
5
100
AcDbSymbolTableRecord
100
AcDbLinetypeTableRecord
  2
BYLAYER
 70
     0
  3

 72
    65
 73
     0
 40
0.0
  0
LTYPE
  5
16
330
5
100
AcDbSymbolTableRecord
100
AcDbLinetypeTableRecord
  2
CONTINUOUS
 70
     0
  3
Solid line
 72
    65
 73
     0
 40
0.0
  0
ENDTAB
  0
TABLE
  2
LAYER
  5
2
100
AcDbSymbolTable
 70
2
  0
LAYER
  5
50
100
AcDbSymbolTableRecord
100
AcDbLayerTableRecord
  2
0
 70
0
  6
CONTINUOUS
  0
LAYER
  5
51
100
AcDbSymbolTableRecord
100
AcDbLayerTableRecord
  2
Camada_1
 70
0
  6
CONTINUOUS
  0
ENDTAB
  0
TABLE
  2
STYLE
  5
3
330
0
100
AcDbSymbolTable
 70
     1
  0
STYLE
  5
11
330
3
100
AcDbSymbolTableRecord
100
AcDbTextStyleTableRecord
  2
STANDARD
 70
     0
 40
0.0
 41
1.0
 50
0.0
 71
     0
 42
2.5
  3
txt
  4

  0
ENDTAB
  0
TABLE
  2
VIEW
  5
6
330
0
100
AcDbSymbolTable
 70
     0
  0
ENDTAB
  0
TABLE
  2
UCS
  5
7
330
0
100
AcDbSymbolTable
 70
     0
  0
ENDTAB
  0
TABLE
  2
APPID
  5
9
330
0
100
AcDbSymbolTable
 70
     2
  0
APPID
  5
12
330
9
100
AcDbSymbolTableRecord
100
AcDbRegAppTableRecord
  2
ACAD
 70
     0
  0
ENDTAB
  0
TABLE
  2
DIMSTYLE
  5
A
330
0
100
AcDbSymbolTable
 70
     1
  0
DIMSTYLE
105
27
330
A
100
AcDbSymbolTableRecord
100
AcDbDimStyleTableRecord
  2
ISO-25
 70
     0
  3

  4

  5

  6

  7

 40
1.0
 41
2.5
 42
0.625
 43
3.75
 44
1.25
 45
0.0
 46
0.0
 47
0.0
 48
0.0
140
2.5
141
2.5
142
0.0
143
0.03937007874016
144
1.0
145
0.0
146
1.0
147
0.625
 71
     0
 72
     0
 73
     0
 74
     0
 75
     0
 76
     0
 77
     1
 78
     8
170
     0
171
     3
172
     1
173
     0
174
     0
175
     0
176
     0
177
     0
178
     0
270
     2
271
     2
272
     2
273
     2
274
     3
340
11
275
     0
280
     0
281
     0
282
     0
283
     0
284
     8
285
     0
286
     0
287
     3
288
     0
  0
ENDTAB
  0
TABLE
  2
BLOCK_RECORD
  5
1
330
0
100
AcDbSymbolTable
 70
     1
  0
BLOCK_RECORD
  5
1F
330
1
100
AcDbSymbolTableRecord
100
AcDbBlockTableRecord
  2
*MODEL_SPACE
  0
BLOCK_RECORD
  5
1B
330
1
100
AcDbSymbolTableRecord
100
AcDbBlockTableRecord
  2
*PAPER_SPACE
  0
ENDTAB
  0
ENDSEC
  0
SECTION
  2
BLOCKS
  0
BLOCK
  5
20
330
1F
100
AcDbEntity
  8
0
100
AcDbBlockBegin
  2
*MODEL_SPACE
 70
     0
 10
0.0
 20
0.0
 30
0.0
  3
*MODEL_SPACE
  1

  0
ENDBLK
  5
21
330
1F
100
AcDbEntity
  8
0
100
AcDbBlockEnd
  0
BLOCK
  5
1C
330
1B
100
AcDbEntity
 67
     1
  8
0
100
AcDbBlockBegin
  2
*PAPER_SPACE
  1

  0
ENDBLK
  5
1D
330
1B
100
AcDbEntity
 67
     1
  8
0
100
AcDbBlockEnd
  0
ENDSEC
  0
SECTION
  2
ENTITIES
  0
LWPOLYLINE
  5
100
100
AcDbEntity
  8
Camada_1
 62
7
100
AcDbPolyline
 90
2
 70
0
 10
71.695107
 20
132.304540
 30
0.0
 10
69.795108
 20
132.304540
 30
0.0
  0
LWPOLYLINE
  5
101
100
AcDbEntity
  8
Camada_1
 62
7
100
AcDbPolyline
 90
3
 70
0
 10
66.795104
 20
101.804540
 30
0.0
 10
69.795108
 20
101.804540
 30
0.0
 10
69.795108
 20
132.304540
 30
0.0
  0
LWPOLYLINE
  5
102
100
AcDbEntity
  8
Camada_1
 62
7
100
AcDbPolyline
 90
4
 70
0
 10
71.695107
 20
132.304540
 30
0.0
 10
90.621547
 20
80.304540
 30
0.0
 10
66.795104
 20
80.304540
 30
0.0
 10
47.220620
 20
87.155240
 30
0.0
  0
SPLINE
  5
103
100
AcDbEntity
  8
Camada_1
 62
7
100
AcDbSpline
 70
8
 71
3
 72
8
 73
4
 74
0
 40
0
 40
0
 40
0
 40
0
 40
1
 40
1
 40
1
 40
1
 10
45.919426
 20
110.650040
 30
0.0
 10
41.273833
 20
108.421360
 30
0.0
 10
38.429658
 20
103.612233
 30
0.0
 10
38.714580
 20
98.467588
 30
0.0
  0
SPLINE
  5
104
100
AcDbEntity
  8
Camada_1
 62
7
100
AcDbSpline
 70
8
 71
3
 72
8
 73
4
 74
0
 40
0
 40
0
 40
0
 40
0
 40
1
 40
1
 40
1
 40
1
 10
38.714580
 20
98.467588
 30
0.0
 10
38.999502
 20
93.322943
 30
0.0
 10
42.357334
 20
88.857297
 30
0.0
 10
47.220620
 20
87.155240
 30
0.0
  0
SPLINE
  5
105
100
AcDbEntity
  8
Camada_1
 62
7
100
AcDbSpline
 70
8
 71
3
 72
8
 73
4
 74
0
 40
0
 40
0
 40
0
 40
0
 40
1
 40
1
 40
1
 40
1
 10
45.919426
 20
110.650040
 30
0.0
 10
52.572980
 20
116.011000
 30
0.0
 10
56.811754
 20
123.805754
 30
0.0
 10
57.695104
 20
132.304540
 30
0.0
  0
SPLINE
  5
106
100
AcDbEntity
  8
Camada_1
 62
7
100
AcDbSpline
 70
8
 71
3
 72
8
 73
4
 74
0
 40
0
 40
0
 40
0
 40
0
 40
1
 40
1
 40
1
 40
1
 10
256.908470
 20
128.471110
 30
0.0
 10
256.908470
 20
128.471110
 30
0.0
 10
256.908470
 20
114.510020
 30
0.0
 10
256.908470
 20
114.510020
 30
0.0
  0
SPLINE
  5
107
100
AcDbEntity
  8
Camada_1
 62
7
100
AcDbSpline
 70
8
 71
3
 72
8
 73
4
 74
0
 40
0
 40
0
 40
0
 40
0
 40
1
 40
1
 40
1
 40
1
 10
256.908470
 20
114.510020
 30
0.0
 10
257.405110
 20
102.103950
 30
0.0
 10
248.721658
 20
91.213241
 30
0.0
 10
236.516530
 20
88.934630
 30
0.0
  0
SPLINE
  5
108
100
AcDbEntity
  8
Camada_1
 62
7
100
AcDbSpline
 70
8
 71
3
 72
8
 73
4
 74
0
 40
0
 40
0
 40
0
 40
0
 40
1
 40
1
 40
1
 40
1
 10
236.516530
 20
88.934630
 30
0.0
 10
230.310398
 20
87.775988
 30
0.0
 10
223.900396
 20
88.473087
 30
0.0
 10
218.088410
 20
90.938720
 30
0.0
  0
SPLINE
  5
109
100
AcDbEntity
  8
Camada_1
 62
7
100
AcDbSpline
 70
8
 71
3
 72
8
 73
4
 74
0
 40
0
 40
0
 40
0
 40
0
 40
1
 40
1
 40
1
 40
1
 10
218.088410
 20
90.938720
 30
0.0
 10
198.503213
 20
99.247414
 30
0.0
 10
175.805149
 20
94.252903
 30
0.0
 10
161.516570
 20
78.490580
 30
0.0
  0
SPLINE
  5
10a
100
AcDbEntity
  8
Camada_1
 62
7
100
AcDbSpline
 70
8
 71
3
 72
8
 73
4
 74
0
 40
0
 40
0
 40
0
 40
0
 40
1
 40
1
 40
1
 40
1
 10
161.516570
 20
78.490580
 30
0.0
 10
148.523774
 20
64.157658
 30
0.0
 10
126.622815
 20
62.405568
 30
0.0
 10
111.516570
 20
74.490550
 30
0.0
  0
LWPOLYLINE
  5
10b
100
AcDbEntity
  8
Camada_1
 62
7
100
AcDbPolyline
 90
3
 70
0
 10
57.695104
 20
132.304540
 30
0.0
 10
66.795104
 20
132.304540
 30
0.0
 10
66.795104
 20
101.804540
 30
0.0
  0
SPLINE
  5
10c
100
AcDbEntity
  8
Camada_1
 62
7
100
AcDbSpline
 70
8
 71
3
 72
8
 73
4
 74
0
 40
0
 40
0
 40
0
 40
0
 40
1
 40
1
 40
1
 40
1
 10
91.687827
 20
153.490560
 30
0.0
 10
91.687827
 20
153.490560
 30
0.0
 10
111.516570
 20
168.490550
 30
0.0
 10
111.516570
 20
168.490550
 30
0.0
  0
SPLINE
  5
10d
100
AcDbEntity
  8
Camada_1
 62
7
100
AcDbSpline
 70
8
 71
3
 72
8
 73
4
 74
0
 40
0
 40
0
 40
0
 40
0
 40
1
 40
1
 40
1
 40
1
 10
111.516570
 20
168.490550
 30
0.0
 10
126.622804
 20
180.575542
 30
0.0
 10
148.523762
 20
178.823470
 30
0.0
 10
161.516570
 20
164.490560
 30
0.0
  0
SPLINE
  5
10e
100
AcDbEntity
  8
Camada_1
 62
7
100
AcDbSpline
 70
8
 71
3
 72
8
 73
4
 74
0
 40
0
 40
0
 40
0
 40
0
 40
1
 40
1
 40
1
 40
1
 10
161.516570
 20
164.490560
 30
0.0
 10
175.805142
 20
148.728226
 30
0.0
 10
198.503207
 20
143.733703
 30
0.0
 10
218.088410
 20
152.042390
 30
0.0
  0
SPLINE
  5
10f
100
AcDbEntity
  8
Camada_1
 62
7
100
AcDbSpline
 70
8
 71
3
 72
8
 73
4
 74
0
 40
0
 40
0
 40
0
 40
0
 40
1
 40
1
 40
1
 40
1
 10
218.088410
 20
152.042390
 30
0.0
 10
223.900394
 20
154.508030
 30
0.0
 10
230.310396
 20
155.205136
 30
0.0
 10
236.516530
 20
154.046500
 30
0.0
  0
SPLINE
  5
110
100
AcDbEntity
  8
Camada_1
 62
7
100
AcDbSpline
 70
8
 71
3
 72
8
 73
4
 74
0
 40
0
 40
0
 40
0
 40
0
 40
1
 40
1
 40
1
 40
1
 10
236.516530
 20
154.046500
 30
0.0
 10
248.721658
 20
151.767889
 30
0.0
 10
257.405110
 20
140.877180
 30
0.0
 10
256.908470
 20
128.471110
 30
0.0
  0
LWPOLYLINE
  5
111
100
AcDbEntity
  8
Camada_1
 62
7
100
AcDbPolyline
 90
11
 70
0
 10
111.516570
 20
74.490550
 30
0.0
 10
91.687827
 20
89.490580
 30
0.0
 10
91.687827
 20
109.490560
 30
0.0
 10
178.443020
 20
109.490560
 30
0.0
 10
178.443020
 20
112.490570
 30
0.0
 10
109.687820
 20
112.490570
 30
0.0
 10
109.687820
 20
130.490570
 30
0.0
 10
178.443020
 20
130.490570
 30
0.0
 10
178.443020
 20
133.490570
 30
0.0
 10
91.687827
 20
133.490570
 30
0.0
 10
91.687827
 20
153.490560
 30
0.0
  0
SPLINE
  5
112
100
AcDbEntity
  8
Camada_1
 62
7
100
AcDbSpline
 70
8
 71
3
 72
8
 73
4
 74
0
 40
0
 40
0
 40
0
 40
0
 40
1
 40
1
 40
1
 40
1
 10
54.655462
 20
225.391849
 30
0.0
 10
54.655185
 20
226.463830
 30
0.0
 10
55.226922
 20
227.454501
 30
0.0
 10
56.155239
 20
227.990571
 30
0.0
  0
SPLINE
  5
113
100
AcDbEntity
  8
Camada_1
 62
7
100
AcDbSpline
 70
8
 71
3
 72
8
 73
4
 74
0
 40
0
 40
0
 40
0
 40
0
 40
1
 40
1
 40
1
 40
1
 10
56.155239
 20
227.990571
 30
0.0
 10
57.083556
 20
228.526642
 30
0.0
 10
58.227369
 20
228.526642
 30
0.0
 10
59.155686
 20
227.990571
 30
0.0
  0
SPLINE
  5
114
100
AcDbEntity
  8
Camada_1
 62
7
100
AcDbSpline
 70
8
 71
3
 72
8
 73
4
 74
0
 40
0
 40
0
 40
0
 40
0
 40
1
 40
1
 40
1
 40
1
 10
59.155686
 20
227.990571
 30
0.0
 10
60.084003
 20
227.454501
 30
0.0
 10
60.655740
 20
226.463830
 30
0.0
 10
60.655463
 20
225.391849
 30
0.0
  0
SPLINE
  5
115
100
AcDbEntity
  8
Camada_1
 62
7
100
AcDbSpline
 70
8
 71
3
 72
8
 73
4
 74
0
 40
0
 40
0
 40
0
 40
0
 40
1
 40
1
 40
1
 40
1
 10
60.655463
 20
225.391849
 30
0.0
 10
60.655740
 20
224.319868
 30
0.0
 10
60.084003
 20
223.329197
 30
0.0
 10
59.155686
 20
222.793127
 30
0.0
  0
SPLINE
  5
116
100
AcDbEntity
  8
Camada_1
 62
7
100
AcDbSpline
 70
8
 71
3
 72
8
 73
4
 74
0
 40
0
 40
0
 40
0
 40
0
 40
1
 40
1
 40
1
 40
1
 10
59.155686
 20
222.793127
 30
0.0
 10
58.227369
 20
222.257056
 30
0.0
 10
57.083556
 20
222.257056
 30
0.0
 10
56.155239
 20
222.793127
 30
0.0
  0
SPLINE
  5
117
100
AcDbEntity
  8
Camada_1
 62
7
100
AcDbSpline
 70
8
 71
3
 72
8
 73
4
 74
0
 40
0
 40
0
 40
0
 40
0
 40
1
 40
1
 40
1
 40
1
 10
56.155239
 20
222.793127
 30
0.0
 10
55.226922
 20
223.329197
 30
0.0
 10
54.655185
 20
224.319868
 30
0.0
 10
54.655462
 20
225.391849
 30
0.0
  0
LWPOLYLINE
  5
118
100
AcDbEntity
  8
Camada_1
 62
7
100
AcDbPolyline
 90
1
 70
1
 10
256.908470
 20
128.471110
 30
0.0
  0
LWPOLYLINE
  5
119
100
AcDbEntity
  8
Camada_1
 62
7
100
AcDbPolyline
 90
1
 70
1
 10
54.655462
 20
225.391849
 30
0.0
  0
SPLINE
  5
11a
100
AcDbEntity
  8
Camada_1
 62
7
100
AcDbSpline
 70
8
 71
3
 72
8
 73
4
 74
0
 40
0
 40
0
 40
0
 40
0
 40
1
 40
1
 40
1
 40
1
 10
67.579342
 20
242.332432
 30
0.0
 10
67.579342
 20
242.332432
 30
0.0
 10
56.126418
 20
261.184391
 30
0.0
 10
56.126418
 20
261.184391
 30
0.0
  0
SPLINE
  5
11b
100
AcDbEntity
  8
Camada_1
 62
7
100
AcDbSpline
 70
8
 71
3
 72
8
 73
4
 74
0
 40
0
 40
0
 40
0
 40
0
 40
1
 40
1
 40
1
 40
1
 10
56.126418
 20
261.184391
 30
0.0
 10
55.581545
 20
260.167315
 30
0.0
 10
54.913137
 20
259.221430
 30
0.0
 10
54.136373
 20
258.368219
 30
0.0
  0
SPLINE
  5
11c
100
AcDbEntity
  8
Camada_1
 62
7
100
AcDbSpline
 70
8
 71
3
 72
8
 73
4
 74
0
 40
0
 40
0
 40
0
 40
0
 40
1
 40
1
 40
1
 40
1
 10
54.136373
 20
258.368219
 30
0.0
 10
43.180102
 20
251.011675
 30
0.0
 10
38.320170
 20
237.357700
 30
0.0
 10
42.164450
 20
224.733117
 30
0.0
  0
SPLINE
  5
11d
100
AcDbEntity
  8
Camada_1
 62
7
100
AcDbSpline
 70
8
 71
3
 72
8
 73
4
 74
0
 40
0
 40
0
 40
0
 40
0
 40
1
 40
1
 40
1
 40
1
 10
42.164450
 20
224.733117
 30
0.0
 10
46.008731
 20
212.108533
 30
0.0
 10
57.653722
 20
203.480432
 30
0.0
 10
70.850639
 20
203.478714
 30
0.0
  0
SPLINE
  5
11e
100
AcDbEntity
  8
Camada_1
 62
7
100
AcDbSpline
 70
8
 71
3
 72
8
 73
4
 74
0
 40
0
 40
0
 40
0
 40
0
 40
1
 40
1
 40
1
 40
1
 10
70.850639
 20
203.478714
 30
0.0
 10
76.211033
 20
203.478582
 30
0.0
 10
81.190977
 20
206.248217
 30
0.0
 10
84.018581
 20
210.802169
 30
0.0
  0
SPLINE
  5
11f
100
AcDbEntity
  8
Camada_1
 62
7
100
AcDbSpline
 70
8
 71
3
 72
8
 73
4
 74
0
 40
0
 40
0
 40
0
 40
0
 40
1
 40
1
 40
1
 40
1
 10
84.018581
 20
210.802169
 30
0.0
 10
88.102980
 20
217.380283
 30
0.0
 10
96.116479
 20
220.367335
 30
0.0
 10
103.510090
 20
218.067680
 30
0.0
  0
SPLINE
  5
120
100
AcDbEntity
  8
Camada_1
 62
7
100
AcDbSpline
 70
8
 71
3
 72
8
 73
4
 74
0
 40
0
 40
0
 40
0
 40
0
 40
1
 40
1
 40
1
 40
1
 10
103.510090
 20
218.067680
 30
0.0
 10
112.708663
 20
215.207377
 30
0.0
 10
122.731677
 20
217.276386
 30
0.0
 10
130.045740
 20
223.545322
 30
0.0
  0
SPLINE
  5
121
100
AcDbEntity
  8
Camada_1
 62
7
100
AcDbSpline
 70
8
 71
3
 72
8
 73
4
 74
0
 40
0
 40
0
 40
0
 40
0
 40
1
 40
1
 40
1
 40
1
 10
130.045740
 20
223.545322
 30
0.0
 10
149.919987
 20
240.578346
 30
0.0
 10
176.224839
 20
248.115424
 30
0.0
 10
202.103710
 20
244.191950
 30
0.0
  0
SPLINE
  5
122
100
AcDbEntity
  8
Camada_1
 62
7
100
AcDbSpline
 70
8
 71
3
 72
8
 73
4
 74
0
 40
0
 40
0
 40
0
 40
0
 40
1
 40
1
 40
1
 40
1
 10
202.103710
 20
244.191950
 30
0.0
 10
214.390182
 20
242.336341
 30
0.0
 10
226.173775
 20
249.789375
 30
0.0
 10
229.762220
 20
261.685750
 30
0.0
  0
LWPOLYLINE
  5
123
100
AcDbEntity
  8
Camada_1
 62
7
100
AcDbPolyline
 90
3
 70
0
 10
58.857707
 20
262.466562
 30
0.0
 10
70.143276
 20
243.890087
 30
0.0
 10
67.579342
 20
242.332432
 30
0.0
  0
SPLINE
  5
124
100
AcDbEntity
  8
Camada_1
 62
7
100
AcDbSpline
 70
8
 71
3
 72
8
 73
4
 74
0
 40
0
 40
0
 40
0
 40
0
 40
1
 40
1
 40
1
 40
1
 10
229.872280
 20
264.689379
 30
0.0
 10
228.812101
 20
271.862227
 30
0.0
 10
224.041797
 20
277.941502
 30
0.0
 10
217.326910
 20
280.677197
 30
0.0
  0
SPLINE
  5
125
100
AcDbEntity
  8
Camada_1
 62
7
100
AcDbSpline
 70
8
 71
3
 72
8
 73
4
 74
0
 40
0
 40
0
 40
0
 40
0
 40
1
 40
1
 40
1
 40
1
 10
217.326910
 20
280.677197
 30
0.0
 10
216.133371
 20
282.736977
 30
0.0
 10
214.354162
 20
284.395222
 30
0.0
 10
212.215580
 20
285.441020
 30
0.0
  0
LWPOLYLINE
  5
126
100
AcDbEntity
  8
Camada_1
 62
7
100
AcDbPolyline
 90
4
 70
0
 10
229.762220
 20
261.685750
 30
0.0
 10
152.442370
 20
259.785698
 30
0.0
 10
152.368670
 20
262.784803
 30
0.0
 10
229.872280
 20
264.689379
 30
0.0
  0
SPLINE
  5
127
100
AcDbEntity
  8
Camada_1
 62
7
100
AcDbSpline
 70
8
 71
3
 72
8
 73
4
 74
0
 40
0
 40
0
 40
0
 40
0
 40
1
 40
1
 40
1
 40
1
 10
207.249880
 20
272.656962
 30
0.0
 10
207.249880
 20
272.656962
 30
0.0
 10
209.329640
 20
286.421302
 30
0.0
 10
209.329640
 20
286.421302
 30
0.0
  0
SPLINE
  5
128
100
AcDbEntity
  8
Camada_1
 62
7
100
AcDbSpline
 70
8
 71
3
 72
8
 73
4
 74
0
 40
0
 40
0
 40
0
 40
0
 40
1
 40
1
 40
1
 40
1
 10
209.329640
 20
286.421302
 30
0.0
 10
204.804597
 20
287.339305
 30
0.0
 10
200.154200
 20
285.579678
 30
0.0
 10
197.370310
 20
281.896106
 30
0.0
  0
LWPOLYLINE
  5
129
100
AcDbEntity
  8
Camada_1
 62
7
100
AcDbPolyline
 90
3
 70
0
 10
212.215580
 20
285.441020
 30
0.0
 10
210.216200
 20
272.208758
 30
0.0
 10
207.249880
 20
272.656962
 30
0.0
  0
SPLINE
  5
12a
100
AcDbEntity
  8
Camada_1
 62
7
100
AcDbSpline
 70
8
 71
3
 72
8
 73
4
 74
0
 40
0
 40
0
 40
0
 40
0
 40
1
 40
1
 40
1
 40
1
 10
158.366680
 20
280.936060
 30
0.0
 10
153.767049
 20
280.822581
 30
0.0
 10
149.298550
 20
282.474620
 30
0.0
 10
145.878930
 20
285.552880
 30
0.0
  0
SPLINE
  5
12b
100
AcDbEntity
  8
Camada_1
 62
7
100
AcDbSpline
 70
8
 71
3
 72
8
 73
4
 74
0
 40
0
 40
0
 40
0
 40
0
 40
1
 40
1
 40
1
 40
1
 10
145.878930
 20
285.552880
 30
0.0
 10
143.306415
 20
287.868123
 30
0.0
 10
140.352648
 20
289.720728
 30
0.0
 10
137.148370
 20
291.028697
 30
0.0
  0
LWPOLYLINE
  5
12c
100
AcDbEntity
  8
Camada_1
 62
7
100
AcDbPolyline
 90
10
 70
0
 10
197.370310
 20
281.896106
 30
0.0
 10
187.373400
 20
281.650441
 30
0.0
 10
187.619070
 20
271.653451
 30
0.0
 10
184.619960
 20
271.579761
 30
0.0
 10
184.374300
 20
281.576725
 30
0.0
 10
169.378830
 20
281.208240
 30
0.0
 10
169.624490
 20
271.211250
 30
0.0
 10
166.625390
 20
271.137560
 30
0.0
 10
166.379770
 20
281.132989
 30
0.0
 10
158.366680
 20
280.936060
 30
0.0
  0
SPLINE
  5
12d
100
AcDbEntity
  8
Camada_1
 62
7
100
AcDbSpline
 70
8
 71
3
 72
8
 73
4
 74
0
 40
0
 40
0
 40
0
 40
0
 40
1
 40
1
 40
1
 40
1
 10
107.440950
 20
275.197485
 30
0.0
 10
107.440950
 20
275.197485
 30
0.0
 10
133.425050
 20
292.335844
 30
0.0
 10
133.425050
 20
292.335844
 30
0.0
  0
SPLINE
  5
12e
100
AcDbEntity
  8
Camada_1
 62
7
100
AcDbSpline
 70
8
 71
3
 72
8
 73
4
 74
0
 40
0
 40
0
 40
0
 40
0
 40
1
 40
1
 40
1
 40
1
 10
133.425050
 20
292.335844
 30
0.0
 10
124.356139
 20
294.699852
 30
0.0
 10
114.703529
 20
292.693864
 30
0.0
 10
107.327420
 20
286.912283
 30
0.0
  0
SPLINE
  5
12f
100
AcDbEntity
  8
Camada_1
 62
7
100
AcDbSpline
 70
8
 71
3
 72
8
 73
4
 74
0
 40
0
 40
0
 40
0
 40
0
 40
1
 40
1
 40
1
 40
1
 10
107.327420
 20
286.912283
 30
0.0
 10
105.072754
 20
285.149302
 30
0.0
 10
102.493259
 20
283.847138
 30
0.0
 10
99.735889
 20
283.079978
 30
0.0
  0
LWPOLYLINE
  5
130
100
AcDbEntity
  8
Camada_1
 62
7
100
AcDbPolyline
 90
6
 70
0
 10
137.148370
 20
291.028697
 30
0.0
 10
144.341940
 20
277.728754
 30
0.0
 10
141.703170
 20
276.301539
 30
0.0
 10
134.567040
 20
289.495304
 30
0.0
 10
109.092720
 20
272.693178
 30
0.0
 10
107.440950
 20
275.197485
 30
0.0
  0
SPLINE
  5
131
100
AcDbEntity
  8
Camada_1
 62
7
100
AcDbSpline
 70
8
 71
3
 72
8
 73
4
 74
0
 40
0
 40
0
 40
0
 40
0
 40
1
 40
1
 40
1
 40
1
 10
253.190110
 20
234.066601
 30
0.0
 10
253.190788
 20
232.994352
 30
0.0
 10
252.619140
 20
232.003263
 30
0.0
 10
251.690658
 20
231.466943
 30
0.0
  0
SPLINE
  5
132
100
AcDbEntity
  8
Camada_1
 62
7
100
AcDbSpline
 70
8
 71
3
 72
8
 73
4
 74
0
 40
0
 40
0
 40
0
 40
0
 40
1
 40
1
 40
1
 40
1
 10
251.690658
 20
231.466943
 30
0.0
 10
250.762176
 20
230.930623
 30
0.0
 10
249.618044
 20
230.930623
 30
0.0
 10
248.689562
 20
231.466943
 30
0.0
  0
SPLINE
  5
133
100
AcDbEntity
  8
Camada_1
 62
7
100
AcDbSpline
 70
8
 71
3
 72
8
 73
4
 74
0
 40
0
 40
0
 40
0
 40
0
 40
1
 40
1
 40
1
 40
1
 10
248.689562
 20
231.466943
 30
0.0
 10
247.761080
 20
232.003263
 30
0.0
 10
247.189432
 20
232.994352
 30
0.0
 10
247.190110
 20
234.066601
 30
0.0
  0
SPLINE
  5
134
100
AcDbEntity
  8
Camada_1
 62
7
100
AcDbSpline
 70
8
 71
3
 72
8
 73
4
 74
0
 40
0
 40
0
 40
0
 40
0
 40
1
 40
1
 40
1
 40
1
 10
247.190110
 20
234.066601
 30
0.0
 10
247.189432
 20
235.138850
 30
0.0
 10
247.761080
 20
236.129939
 30
0.0
 10
248.689562
 20
236.666259
 30
0.0
  0
SPLINE
  5
135
100
AcDbEntity
  8
Camada_1
 62
7
100
AcDbSpline
 70
8
 71
3
 72
8
 73
4
 74
0
 40
0
 40
0
 40
0
 40
0
 40
1
 40
1
 40
1
 40
1
 10
248.689562
 20
236.666259
 30
0.0
 10
249.618044
 20
237.202579
 30
0.0
 10
250.762176
 20
237.202579
 30
0.0
 10
251.690658
 20
236.666259
 30
0.0
  0
SPLINE
  5
136
100
AcDbEntity
  8
Camada_1
 62
7
100
AcDbSpline
 70
8
 71
3
 72
8
 73
4
 74
0
 40
0
 40
0
 40
0
 40
0
 40
1
 40
1
 40
1
 40
1
 10
251.690658
 20
236.666259
 30
0.0
 10
252.619140
 20
236.129939
 30
0.0
 10
253.190788
 20
235.138850
 30
0.0
 10
253.190110
 20
234.066601
 30
0.0
  0
LWPOLYLINE
  5
137
100
AcDbEntity
  8
Camada_1
 62
7
100
AcDbPolyline
 90
2
 70
0
 10
99.735889
 20
283.079978
 30
0.0
 10
58.857707
 20
262.466562
 30
0.0
  0
LWPOLYLINE
  5
138
100
AcDbEntity
  8
Camada_1
 62
7
100
AcDbPolyline
 90
1
 70
1
 10
253.190110
 20
234.066601
 30
0.0
  0
SPLINE
  5
139
100
AcDbEntity
  8
Camada_1
 62
7
100
AcDbSpline
 70
8
 71
3
 72
8
 73
4
 74
0
 40
0
 40
0
 40
0
 40
0
 40
1
 40
1
 40
1
 40
1
 10
240.266230
 20
217.126018
 30
0.0
 10
240.266230
 20
217.126018
 30
0.0
 10
251.719150
 20
198.274059
 30
0.0
 10
251.719150
 20
198.274059
 30
0.0
  0
SPLINE
  5
13a
100
AcDbEntity
  8
Camada_1
 62
7
100
AcDbSpline
 70
8
 71
3
 72
8
 73
4
 74
0
 40
0
 40
0
 40
0
 40
0
 40
1
 40
1
 40
1
 40
1
 10
251.719150
 20
198.274059
 30
0.0
 10
252.264025
 20
199.291136
 30
0.0
 10
252.932435
 20
200.237020
 30
0.0
 10
253.709200
 20
201.090231
 30
0.0
  0
SPLINE
  5
13b
100
AcDbEntity
  8
Camada_1
 62
7
100
AcDbSpline
 70
8
 71
3
 72
8
 73
4
 74
0
 40
0
 40
0
 40
0
 40
0
 40
1
 40
1
 40
1
 40
1
 10
253.709200
 20
201.090231
 30
0.0
 10
264.665471
 20
208.446776
 30
0.0
 10
269.525404
 20
222.100751
 30
0.0
 10
265.681122
 20
234.725335
 30
0.0
  0
SPLINE
  5
13c
100
AcDbEntity
  8
Camada_1
 62
7
100
AcDbSpline
 70
8
 71
3
 72
8
 73
4
 74
0
 40
0
 40
0
 40
0
 40
0
 40
1
 40
1
 40
1
 40
1
 10
265.681122
 20
234.725335
 30
0.0
 10
261.836840
 20
247.349920
 30
0.0
 10
250.191847
 20
255.978020
 30
0.0
 10
236.994930
 20
255.979736
 30
0.0
  0
SPLINE
  5
13d
100
AcDbEntity
  8
Camada_1
 62
7
100
AcDbSpline
 70
8
 71
3
 72
8
 73
4
 74
0
 40
0
 40
0
 40
0
 40
0
 40
1
 40
1
 40
1
 40
1
 10
236.994930
 20
255.979736
 30
0.0
 10
231.634537
 20
255.979867
 30
0.0
 10
226.654594
 20
253.210232
 30
0.0
 10
223.826990
 20
248.656281
 30
0.0
  0
SPLINE
  5
13e
100
AcDbEntity
  8
Camada_1
 62
7
100
AcDbSpline
 70
8
 71
3
 72
8
 73
4
 74
0
 40
0
 40
0
 40
0
 40
0
 40
1
 40
1
 40
1
 40
1
 10
223.826990
 20
248.656281
 30
0.0
 10
219.742591
 20
242.078167
 30
0.0
 10
211.729091
 20
239.091114
 30
0.0
 10
204.335480
 20
241.390770
 30
0.0
  0
SPLINE
  5
13f
100
AcDbEntity
  8
Camada_1
 62
7
100
AcDbSpline
 70
8
 71
3
 72
8
 73
4
 74
0
 40
0
 40
0
 40
0
 40
0
 40
1
 40
1
 40
1
 40
1
 10
204.335480
 20
241.390770
 30
0.0
 10
195.136907
 20
244.251073
 30
0.0
 10
185.113893
 20
242.182064
 30
0.0
 10
177.799830
 20
235.913128
 30
0.0
  0
SPLINE
  5
140
100
AcDbEntity
  8
Camada_1
 62
7
100
AcDbSpline
 70
8
 71
3
 72
8
 73
4
 74
0
 40
0
 40
0
 40
0
 40
0
 40
1
 40
1
 40
1
 40
1
 10
177.799830
 20
235.913128
 30
0.0
 10
157.925583
 20
218.880104
 30
0.0
 10
131.620731
 20
211.343026
 30
0.0
 10
105.741860
 20
215.266500
 30
0.0
  0
SPLINE
  5
141
100
AcDbEntity
  8
Camada_1
 62
7
100
AcDbSpline
 70
8
 71
3
 72
8
 73
4
 74
0
 40
0
 40
0
 40
0
 40
0
 40
1
 40
1
 40
1
 40
1
 10
105.741860
 20
215.266500
 30
0.0
 10
93.455389
 20
217.122108
 30
0.0
 10
81.671797
 20
209.669074
 30
0.0
 10
78.083352
 20
197.772700
 30
0.0
  0
LWPOLYLINE
  5
142
100
AcDbEntity
  8
Camada_1
 62
7
100
AcDbPolyline
 90
3
 70
0
 10
248.987860
 20
196.991890
 30
0.0
 10
237.702290
 20
215.568363
 30
0.0
 10
240.266230
 20
217.126018
 30
0.0
  0
SPLINE
  5
143
100
AcDbEntity
  8
Camada_1
 62
7
100
AcDbSpline
 70
8
 71
3
 72
8
 73
4
 74
0
 40
0
 40
0
 40
0
 40
0
 40
1
 40
1
 40
1
 40
1
 10
155.476900
 20
196.673650
 30
0.0
 10
155.476900
 20
196.673650
 30
0.0
 10
77.973295
 20
194.769070
 30
0.0
 10
77.973295
 20
194.769070
 30
0.0
  0
SPLINE
  5
144
100
AcDbEntity
  8
Camada_1
 62
7
100
AcDbSpline
 70
8
 71
3
 72
8
 73
4
 74
0
 40
0
 40
0
 40
0
 40
0
 40
1
 40
1
 40
1
 40
1
 10
77.973295
 20
194.769070
 30
0.0
 10
79.033475
 20
187.596219
 30
0.0
 10
83.803782
 20
181.516943
 30
0.0
 10
90.518672
 20
178.781250
 30
0.0
  0
SPLINE
  5
145
100
AcDbEntity
  8
Camada_1
 62
7
100
AcDbSpline
 70
8
 71
3
 72
8
 73
4
 74
0
 40
0
 40
0
 40
0
 40
0
 40
1
 40
1
 40
1
 40
1
 10
90.518672
 20
178.781250
 30
0.0
 10
91.712210
 20
176.721472
 30
0.0
 10
93.491418
 20
175.063228
 30
0.0
 10
95.629999
 20
174.017430
 30
0.0
  0
LWPOLYLINE
  5
146
100
AcDbEntity
  8
Camada_1
 62
7
100
AcDbPolyline
 90
3
 70
0
 10
78.083352
 20
197.772700
 30
0.0
 10
155.403200
 20
199.672752
 30
0.0
 10
155.476900
 20
196.673650
 30
0.0
  0
SPLINE
  5
147
100
AcDbEntity
  8
Camada_1
 62
7
100
AcDbSpline
 70
8
 71
3
 72
8
 73
4
 74
0
 40
0
 40
0
 40
0
 40
0
 40
1
 40
1
 40
1
 40
1
 10
100.595700
 20
186.801490
 30
0.0
 10
100.595700
 20
186.801490
 30
0.0
 10
98.515942
 20
173.037150
 30
0.0
 10
98.515942
 20
173.037150
 30
0.0
  0
SPLINE
  5
148
100
AcDbEntity
  8
Camada_1
 62
7
100
AcDbSpline
 70
8
 71
3
 72
8
 73
4
 74
0
 40
0
 40
0
 40
0
 40
0
 40
1
 40
1
 40
1
 40
1
 10
98.515942
 20
173.037150
 30
0.0
 10
103.040984
 20
172.119147
 30
0.0
 10
107.691379
 20
173.878771
 30
0.0
 10
110.475270
 20
177.562340
 30
0.0
  0
LWPOLYLINE
  5
149
100
AcDbEntity
  8
Camada_1
 62
7
100
AcDbPolyline
 90
3
 70
0
 10
95.629999
 20
174.017430
 30
0.0
 10
97.629376
 20
187.249690
 30
0.0
 10
100.595700
 20
186.801490
 30
0.0
  0
SPLINE
  5
14a
100
AcDbEntity
  8
Camada_1
 62
7
100
AcDbSpline
 70
8
 71
3
 72
8
 73
4
 74
0
 40
0
 40
0
 40
0
 40
0
 40
1
 40
1
 40
1
 40
1
 10
141.465810
 20
178.325480
 30
0.0
 10
141.465810
 20
178.325480
 30
0.0
 10
149.478900
 20
178.522410
 30
0.0
 10
149.478900
 20
178.522410
 30
0.0
  0
SPLINE
  5
14b
100
AcDbEntity
  8
Camada_1
 62
7
100
AcDbSpline
 70
8
 71
3
 72
8
 73
4
 74
0
 40
0
 40
0
 40
0
 40
0
 40
1
 40
1
 40
1
 40
1
 10
149.478900
 20
178.522410
 30
0.0
 10
154.078531
 20
178.635889
 30
0.0
 10
158.547030
 20
176.983850
 30
0.0
 10
161.966650
 20
173.905590
 30
0.0
  0
SPLINE
  5
14c
100
AcDbEntity
  8
Camada_1
 62
7
100
AcDbSpline
 70
8
 71
3
 72
8
 73
4
 74
0
 40
0
 40
0
 40
0
 40
0
 40
1
 40
1
 40
1
 40
1
 10
161.966650
 20
173.905590
 30
0.0
 10
164.539166
 20
171.590350
 30
0.0
 10
167.492932
 20
169.737747
 30
0.0
 10
170.697210
 20
168.429780
 30
0.0
  0
LWPOLYLINE
  5
14d
100
AcDbEntity
  8
Camada_1
 62
7
100
AcDbPolyline
 90
9
 70
0
 10
110.475270
 20
177.562340
 30
0.0
 10
120.472180
 20
177.808010
 30
0.0
 10
120.226510
 20
187.805000
 30
0.0
 10
123.225620
 20
187.878700
 30
0.0
 10
123.471280
 20
177.881730
 30
0.0
 10
138.466750
 20
178.250220
 30
0.0
 10
138.221090
 20
188.247210
 30
0.0
 10
141.220190
 20
188.320910
 30
0.0
 10
141.465810
 20
178.325480
 30
0.0
  0
SPLINE
  5
14e
100
AcDbEntity
  8
Camada_1
 62
7
100
AcDbSpline
 70
8
 71
3
 72
8
 73
4
 74
0
 40
0
 40
0
 40
0
 40
0
 40
1
 40
1
 40
1
 40
1
 10
200.404630
 20
184.260990
 30
0.0
 10
200.404630
 20
184.260990
 30
0.0
 10
174.420530
 20
167.122630
 30
0.0
 10
174.420530
 20
167.122630
 30
0.0
  0
SPLINE
  5
14f
100
AcDbEntity
  8
Camada_1
 62
7
100
AcDbSpline
 70
8
 71
3
 72
8
 73
4
 74
0
 40
0
 40
0
 40
0
 40
0
 40
1
 40
1
 40
1
 40
1
 10
174.420530
 20
167.122630
 30
0.0
 10
183.489440
 20
164.758622
 30
0.0
 10
193.142050
 20
166.764609
 30
0.0
 10
200.518160
 20
172.546190
 30
0.0
  0
SPLINE
  5
150
100
AcDbEntity
  8
Camada_1
 62
7
100
AcDbSpline
 70
8
 71
3
 72
8
 73
4
 74
0
 40
0
 40
0
 40
0
 40
0
 40
1
 40
1
 40
1
 40
1
 10
200.518160
 20
172.546190
 30
0.0
 10
202.772825
 20
174.309173
 30
0.0
 10
205.352320
 20
175.611338
 30
0.0
 10
208.109690
 20
176.378500
 30
0.0
  0
LWPOLYLINE
  5
151
100
AcDbEntity
  8
Camada_1
 62
7
100
AcDbPolyline
 90
6
 70
0
 10
170.697210
 20
168.429780
 30
0.0
 10
163.503640
 20
181.729720
 30
0.0
 10
166.142410
 20
183.156940
 30
0.0
 10
173.278540
 20
169.963170
 30
0.0
 10
198.752860
 20
186.765300
 30
0.0
 10
200.404630
 20
184.260990
 30
0.0
  0
SPLINE
  5
152
100
AcDbEntity
  8
Camada_1
 62
7
100
AcDbSpline
 70
8
 71
3
 72
8
 73
4
 74
0
 40
0
 40
0
 40
0
 40
0
 40
1
 40
1
 40
1
 40
1
 10
163.430000
 20
9.668250
 30
0.0
 10
169.216976
 20
8.084423
 30
0.0
 10
175.195360
 20
7.309385
 30
0.0
 10
181.194900
 20
7.365210
 30
0.0
  0
SPLINE
  5
153
100
AcDbEntity
  8
Camada_1
 62
7
100
AcDbSpline
 70
8
 71
3
 72
8
 73
4
 74
0
 40
0
 40
0
 40
0
 40
0
 40
1
 40
1
 40
1
 40
1
 10
149.033170
 20
25.365210
 30
0.0
 10
150.411684
 20
17.798426
 30
0.0
 10
156.010299
 20
11.694219
 30
0.0
 10
163.430000
 20
9.668250
 30
0.0
  0
LWPOLYLINE
  5
154
100
AcDbEntity
  8
Camada_1
 62
7
100
AcDbPolyline
 90
2
 70
0
 10
208.109690
 20
176.378500
 30
0.0
 10
248.987860
 20
196.991890
 30
0.0
  0
LWPOLYLINE
  5
155
100
AcDbEntity
  8
Camada_1
 62
7
100
AcDbPolyline
 90
2
 70
0
 10
172.313250
 20
25.365210
 30
0.0
 10
149.033170
 20
25.365210
 30
0.0
  0
LWPOLYLINE
  5
156
100
AcDbEntity
  8
Camada_1
 62
7
100
AcDbPolyline
 90
2
 70
0
 10
172.313250
 20
28.365220
 30
0.0
 10
172.313250
 20
25.365210
 30
0.0
  0
SPLINE
  5
157
100
AcDbEntity
  8
Camada_1
 62
7
100
AcDbSpline
 70
8
 71
3
 72
8
 73
4
 74
0
 40
0
 40
0
 40
0
 40
0
 40
1
 40
1
 40
1
 40
1
 10
149.105160
 20
32.865200
 30
0.0
 10
148.810058
 20
31.384245
 30
0.0
 10
148.683652
 20
29.874629
 30
0.0
 10
148.728360
 20
28.365220
 30
0.0
  0
LWPOLYLINE
  5
158
100
AcDbEntity
  8
Camada_1
 62
7
100
AcDbPolyline
 90
2
 70
0
 10
148.728360
 20
28.365220
 30
0.0
 10
172.313250
 20
28.365220
 30
0.0
  0
LWPOLYLINE
  5
159
100
AcDbEntity
  8
Camada_1
 62
7
100
AcDbPolyline
 90
2
 70
0
 10
193.313250
 20
59.365200
 30
0.0
 10
193.313250
 20
32.865200
 30
0.0
  0
SPLINE
  5
15a
100
AcDbEntity
  8
Camada_1
 62
7
100
AcDbSpline
 70
8
 71
3
 72
8
 73
4
 74
0
 40
0
 40
0
 40
0
 40
0
 40
1
 40
1
 40
1
 40
1
 10
255.898140
 20
28.365220
 30
0.0
 10
255.942848
 20
29.874629
 30
0.0
 10
255.816442
 20
31.384245
 30
0.0
 10
255.521340
 20
32.865200
 30
0.0
  0
LWPOLYLINE
  5
15b
100
AcDbEntity
  8
Camada_1
 62
7
100
AcDbPolyline
 90
3
 70
0
 10
193.313250
 20
59.365200
 30
0.0
 10
211.313250
 20
59.365200
 30
0.0
 10
211.313250
 20
32.865200
 30
0.0
  0
SPLINE
  5
15c
100
AcDbEntity
  8
Camada_1
 62
7
100
AcDbSpline
 70
8
 71
3
 72
8
 73
4
 74
0
 40
0
 40
0
 40
0
 40
0
 40
1
 40
1
 40
1
 40
1
 10
241.196500
 20
9.668250
 30
0.0
 10
248.616205
 20
11.694216
 30
0.0
 10
254.214824
 20
17.798424
 30
0.0
 10
255.593340
 20
25.365210
 30
0.0
  0
SPLINE
  5
15d
100
AcDbEntity
  8
Camada_1
 62
7
100
AcDbSpline
 70
8
 71
3
 72
8
 73
4
 74
0
 40
0
 40
0
 40
0
 40
0
 40
1
 40
1
 40
1
 40
1
 10
223.431600
 20
7.365210
 30
0.0
 10
229.431140
 20
7.309385
 30
0.0
 10
235.409524
 20
8.084423
 30
0.0
 10
241.196500
 20
9.668250
 30
0.0
  0
LWPOLYLINE
  5
15e
100
AcDbEntity
  8
Camada_1
 62
7
100
AcDbPolyline
 90
4
 70
0
 10
255.898140
 20
28.365220
 30
0.0
 10
232.313250
 20
28.365220
 30
0.0
 10
232.313250
 20
25.365210
 30
0.0
 10
255.593340
 20
25.365210
 30
0.0
  0
LWPOLYLINE
  5
15f
100
AcDbEntity
  8
Camada_1
 62
7
100
AcDbPolyline
 90
4
 70
0
 10
223.431600
 20
7.365210
 30
0.0
 10
203.813250
 20
7.365210
 30
0.0
 10
203.813250
 20
28.865200
 30
0.0
 10
200.813250
 20
28.865200
 30
0.0
  0
LWPOLYLINE
  5
160
100
AcDbEntity
  8
Camada_1
 62
7
100
AcDbPolyline
 90
2
 70
0
 10
200.813250
 20
7.365210
 30
0.0
 10
200.813250
 20
28.865200
 30
0.0
  0
LWPOLYLINE
  5
161
100
AcDbEntity
  8
Camada_1
 62
7
100
AcDbPolyline
 90
2
 70
0
 10
181.194900
 20
7.365210
 30
0.0
 10
200.813250
 20
7.365210
 30
0.0
  0
LWPOLYLINE
  5
162
100
AcDbEntity
  8
Camada_1
 62
7
100
AcDbPolyline
 90
2
 70
0
 10
149.105160
 20
32.865200
 30
0.0
 10
193.313250
 20
32.865200
 30
0.0
  0
SPLINE
  5
163
100
AcDbEntity
  8
Camada_1
 62
7
100
AcDbSpline
 70
8
 71
3
 72
8
 73
4
 74
0
 40
0
 40
0
 40
0
 40
0
 40
1
 40
1
 40
1
 40
1
 10
18.340209
 20
29.536900
 30
0.0
 10
17.800671
 20
34.107105
 30
0.0
 10
19.241250
 20
38.689894
 30
0.0
 10
22.298614
 20
42.129429
 30
0.0
  0
SPLINE
  5
164
100
AcDbEntity
  8
Camada_1
 62
7
100
AcDbSpline
 70
8
 71
3
 72
8
 73
4
 74
0
 40
0
 40
0
 40
0
 40
0
 40
1
 40
1
 40
1
 40
1
 10
22.298614
 20
42.129429
 30
0.0
 10
25.355979
 20
45.568963
 30
0.0
 10
29.738266
 20
47.536900
 30
0.0
 10
34.340209
 20
47.536900
 30
0.0
  0
LWPOLYLINE
  5
165
100
AcDbEntity
  8
Camada_1
 62
7
100
AcDbPolyline
 90
2
 70
0
 10
211.313250
 20
32.865200
 30
0.0
 10
255.521340
 20
32.865200
 30
0.0
  0
SPLINE
  5
166
100
AcDbEntity
  8
Camada_1
 62
7
100
AcDbSpline
 70
8
 71
3
 72
8
 73
4
 74
0
 40
0
 40
0
 40
0
 40
0
 40
1
 40
1
 40
1
 40
1
 10
58.340208
 20
47.536900
 30
0.0
 10
62.942150
 20
47.536900
 30
0.0
 10
67.324438
 20
45.568963
 30
0.0
 10
70.381802
 20
42.129428
 30
0.0
  0
SPLINE
  5
167
100
AcDbEntity
  8
Camada_1
 62
7
100
AcDbSpline
 70
8
 71
3
 72
8
 73
4
 74
0
 40
0
 40
0
 40
0
 40
0
 40
1
 40
1
 40
1
 40
1
 10
70.381802
 20
42.129428
 30
0.0
 10
73.439166
 20
38.689893
 30
0.0
 10
74.879745
 20
34.107105
 30
0.0
 10
74.340207
 20
29.536900
 30
0.0
  0
LWPOLYLINE
  5
168
100
AcDbEntity
  8
Camada_1
 62
7
100
AcDbPolyline
 90
2
 70
0
 10
34.340209
 20
47.536900
 30
0.0
 10
58.340208
 20
47.536900
 30
0.0
  0
SPLINE
  5
169
100
AcDbEntity
  8
Camada_1
 62
7
100
AcDbSpline
 70
8
 71
3
 72
8
 73
4
 74
0
 40
0
 40
0
 40
0
 40
0
 40
1
 40
1
 40
1
 40
1
 10
82.735788
 20
131.656570
 30
0.0
 10
78.568328
 20
130.415122
 30
0.0
 10
74.060643
 20
131.179554
 30
0.0
 10
70.535475
 20
133.725552
 30
0.0
  0
SPLINE
  5
16a
100
AcDbEntity
  8
Camada_1
 62
7
100
AcDbSpline
 70
8
 71
3
 72
8
 73
4
 74
0
 40
0
 40
0
 40
0
 40
0
 40
1
 40
1
 40
1
 40
1
 10
70.535475
 20
133.725552
 30
0.0
 10
67.010306
 20
136.271550
 30
0.0
 10
64.867479
 20
140.310346
 30
0.0
 10
64.735787
 20
144.656790
 30
0.0
  0
SPLINE
  5
16b
100
AcDbEntity
  8
Camada_1
 62
7
100
AcDbSpline
 70
8
 71
3
 72
8
 73
4
 74
0
 40
0
 40
0
 40
0
 40
0
 40
1
 40
1
 40
1
 40
1
 10
64.735787
 20
144.656790
 30
0.0
 10
64.735787
 20
144.656790
 30
0.0
 10
64.735787
 20
170.656360
 30
0.0
 10
64.735787
 20
170.656360
 30
0.0
  0
SPLINE
  5
16c
100
AcDbEntity
  8
Camada_1
 62
7
100
AcDbSpline
 70
8
 71
3
 72
8
 73
4
 74
0
 40
0
 40
0
 40
0
 40
0
 40
1
 40
1
 40
1
 40
1
 10
64.735787
 20
170.656360
 30
0.0
 10
64.867482
 20
175.002802
 30
0.0
 10
67.010310
 20
179.041595
 30
0.0
 10
70.535479
 20
181.587591
 30
0.0
  0
SPLINE
  5
16d
100
AcDbEntity
  8
Camada_1
 62
7
100
AcDbSpline
 70
8
 71
3
 72
8
 73
4
 74
0
 40
0
 40
0
 40
0
 40
0
 40
1
 40
1
 40
1
 40
1
 10
70.535479
 20
181.587591
 30
0.0
 10
74.060647
 20
184.133586
 30
0.0
 10
78.568329
 20
184.898018
 30
0.0
 10
82.735788
 20
183.656570
 30
0.0
  0
LWPOLYLINE
  5
16e
100
AcDbEntity
  8
Camada_1
 62
7
100
AcDbPolyline
 90
10
 70
0
 10
74.340207
 20
29.536900
 30
0.0
 10
58.340208
 20
29.536900
 30
0.0
 10
58.340208
 20
37.536900
 30
0.0
 10
55.340209
 20
37.536900
 30
0.0
 10
55.340209
 20
29.536900
 30
0.0
 10
37.340208
 20
29.536900
 30
0.0
 10
37.340208
 20
37.536900
 30
0.0
 10
34.340209
 20
37.536900
 30
0.0
 10
34.340209
 20
29.536900
 30
0.0
 10
18.340209
 20
29.536900
 30
0.0
  0
LWPOLYLINE
  5
16f
100
AcDbEntity
  8
Camada_1
 62
7
100
AcDbPolyline
 90
10
 70
0
 10
82.735788
 20
183.656570
 30
0.0
 10
82.735788
 20
169.656570
 30
0.0
 10
74.735788
 20
169.656570
 30
0.0
 10
74.735788
 20
166.656570
 30
0.0
 10
82.735788
 20
166.656570
 30
0.0
 10
82.735788
 20
148.656570
 30
0.0
 10
74.735788
 20
148.656570
 30
0.0
 10
74.735788
 20
145.656570
 30
0.0
 10
82.735788
 20
145.656570
 30
0.0
 10
82.735788
 20
131.656570
 30
0.0
  0
SPLINE
  5
170
100
AcDbEntity
  8
Camada_1
 62
7
100
AcDbSpline
 70
8
 71
3
 72
8
 73
4
 74
0
 40
0
 40
0
 40
0
 40
0
 40
1
 40
1
 40
1
 40
1
 10
52.915490
 20
196.839330
 30
0.0
 10
54.667041
 20
200.477723
 30
0.0
 10
58.387261
 20
202.752922
 30
0.0
 10
62.424112
 20
202.654579
 30
0.0
  0
SPLINE
  5
171
100
AcDbEntity
  8
Camada_1
 62
7
100
AcDbSpline
 70
8
 71
3
 72
8
 73
4
 74
0
 40
0
 40
0
 40
0
 40
0
 40
1
 40
1
 40
1
 40
1
 10
52.915490
 20
196.839330
 30
0.0
 10
53.732297
 20
192.722750
 30
0.0
 10
52.037432
 20
188.512707
 30
0.0
 10
48.596233
 20
186.110300
 30
0.0
  0
SPLINE
  5
172
100
AcDbEntity
  8
Camada_1
 62
7
100
AcDbSpline
 70
8
 71
3
 72
8
 73
4
 74
0
 40
0
 40
0
 40
0
 40
0
 40
1
 40
1
 40
1
 40
1
 10
41.255903
 20
183.057530
 30
0.0
 10
43.135648
 20
185.103691
 30
0.0
 10
45.819873
 20
186.220034
 30
0.0
 10
48.596233
 20
186.110300
 30
0.0
  0
SPLINE
  5
173
100
AcDbEntity
  8
Camada_1
 62
7
100
AcDbSpline
 70
8
 71
3
 72
8
 73
4
 74
0
 40
0
 40
0
 40
0
 40
0
 40
1
 40
1
 40
1
 40
1
 10
42.929877
 20
176.259910
 30
0.0
 10
41.733626
 20
176.871293
 30
0.0
 10
40.861797
 20
177.971987
 30
0.0
 10
40.540562
 20
179.276446
 30
0.0
  0
SPLINE
  5
174
100
AcDbEntity
  8
Camada_1
 62
7
100
AcDbSpline
 70
8
 71
3
 72
8
 73
4
 74
0
 40
0
 40
0
 40
0
 40
0
 40
1
 40
1
 40
1
 40
1
 10
40.540562
 20
179.276446
 30
0.0
 10
40.219328
 20
180.580905
 30
0.0
 10
40.480346
 20
181.960572
 30
0.0
 10
41.255903
 20
183.057530
 30
0.0
  0
SPLINE
  5
175
100
AcDbEntity
  8
Camada_1
 62
7
100
AcDbSpline
 70
8
 71
3
 72
8
 73
4
 74
0
 40
0
 40
0
 40
0
 40
0
 40
1
 40
1
 40
1
 40
1
 10
42.929877
 20
176.259910
 30
0.0
 10
45.037812
 20
175.192137
 30
0.0
 10
46.352819
 20
173.016295
 30
0.0
 10
46.318144
 20
170.653600
 30
0.0
  0
SPLINE
  5
176
100
AcDbEntity
  8
Camada_1
 62
7
100
AcDbSpline
 70
8
 71
3
 72
8
 73
4
 74
0
 40
0
 40
0
 40
0
 40
0
 40
1
 40
1
 40
1
 40
1
 10
46.318144
 20
170.653600
 30
0.0
 10
46.353101
 20
168.290913
 30
0.0
 10
45.038359
 20
166.114917
 30
0.0
 10
42.930557
 20
165.046890
 30
0.0
  0
SPLINE
  5
177
100
AcDbEntity
  8
Camada_1
 62
7
100
AcDbSpline
 70
8
 71
3
 72
8
 73
4
 74
0
 40
0
 40
0
 40
0
 40
0
 40
1
 40
1
 40
1
 40
1
 10
41.257406
 20
158.249070
 30
0.0
 10
40.481717
 20
159.345934
 30
0.0
 10
40.220532
 20
160.725569
 30
0.0
 10
40.541609
 20
162.030066
 30
0.0
  0
SPLINE
  5
178
100
AcDbEntity
  8
Camada_1
 62
7
100
AcDbSpline
 70
8
 71
3
 72
8
 73
4
 74
0
 40
0
 40
0
 40
0
 40
0
 40
1
 40
1
 40
1
 40
1
 10
40.541609
 20
162.030066
 30
0.0
 10
40.862685
 20
163.334563
 30
0.0
 10
41.734381
 20
164.435362
 30
0.0
 10
42.930557
 20
165.046890
 30
0.0
  0
SPLINE
  5
179
100
AcDbEntity
  8
Camada_1
 62
7
100
AcDbSpline
 70
8
 71
3
 72
8
 73
4
 74
0
 40
0
 40
0
 40
0
 40
0
 40
1
 40
1
 40
1
 40
1
 10
48.598107
 20
155.197180
 30
0.0
 10
45.821759
 20
155.087112
 30
0.0
 10
43.137397
 20
156.203133
 30
0.0
 10
41.257406
 20
158.249070
 30
0.0
  0
SPLINE
  5
17a
100
AcDbEntity
  8
Camada_1
 62
7
100
AcDbSpline
 70
8
 71
3
 72
8
 73
4
 74
0
 40
0
 40
0
 40
0
 40
0
 40
1
 40
1
 40
1
 40
1
 10
48.598107
 20
155.197180
 30
0.0
 10
52.039595
 20
152.795192
 30
0.0
 10
53.734970
 20
148.585358
 30
0.0
 10
52.918665
 20
144.468680
 30
0.0
  0
SPLINE
  5
17b
100
AcDbEntity
  8
Camada_1
 62
7
100
AcDbSpline
 70
8
 71
3
 72
8
 73
4
 74
0
 40
0
 40
0
 40
0
 40
0
 40
1
 40
1
 40
1
 40
1
 10
62.427991
 20
138.654580
 30
0.0
 10
58.391151
 20
138.555749
 30
0.0
 10
54.670656
 20
140.830498
 30
0.0
 10
52.918665
 20
144.468680
 30
0.0
  0
SPLINE
  5
17c
100
AcDbEntity
  8
Camada_1
 62
7
100
AcDbSpline
 70
8
 71
3
 72
8
 73
4
 74
0
 40
0
 40
0
 40
0
 40
0
 40
1
 40
1
 40
1
 40
1
 10
206.764280
 20
91.393550
 30
0.0
 10
204.793599
 20
70.142536
 30
0.0
 10
188.166572
 20
53.198724
 30
0.0
 10
166.956530
 20
50.827370
 30
0.0
  0
SPLINE
  5
17d
100
AcDbEntity
  8
Camada_1
 62
7
100
AcDbSpline
 70
8
 71
3
 72
8
 73
4
 74
0
 40
0
 40
0
 40
0
 40
0
 40
1
 40
1
 40
1
 40
1
 10
166.956530
 20
50.827370
 30
0.0
 10
155.568508
 20
49.554145
 30
0.0
 10
146.956539
 20
39.925667
 30
0.0
 10
146.956540
 20
28.466690
 30
0.0
  0
SPLINE
  5
17e
100
AcDbEntity
  8
Camada_1
 62
7
100
AcDbSpline
 70
8
 71
3
 72
8
 73
4
 74
0
 40
0
 40
0
 40
0
 40
0
 40
1
 40
1
 40
1
 40
1
 10
146.956540
 20
28.466690
 30
0.0
 10
146.956540
 20
28.466690
 30
0.0
 10
146.956540
 20
23.466690
 30
0.0
 10
146.956540
 20
23.466690
 30
0.0
  0
SPLINE
  5
17f
100
AcDbEntity
  8
Camada_1
 62
7
100
AcDbSpline
 70
8
 71
3
 72
8
 73
4
 74
0
 40
0
 40
0
 40
0
 40
0
 40
1
 40
1
 40
1
 40
1
 10
146.956540
 20
23.466690
 30
0.0
 10
146.956540
 20
15.182430
 30
0.0
 10
140.240830
 20
8.466707
 30
0.0
 10
131.956570
 20
8.466690
 30
0.0
  0
LWPOLYLINE
  5
180
100
AcDbEntity
  8
Camada_1
 62
7
100
AcDbPolyline
 90
10
 70
0
 10
62.427979
 20
138.654580
 30
0.0
 10
62.426679
 20
158.654580
 30
0.0
 10
54.426767
 20
158.654050
 30
0.0
 10
54.426585
 20
161.654100
 30
0.0
 10
62.426585
 20
161.654620
 30
0.0
 10
62.425485
 20
179.654580
 30
0.0
 10
54.425495
 20
179.654050
 30
0.0
 10
54.425312
 20
182.654100
 30
0.0
 10
62.425312
 20
182.654620
 30
0.0
 10
62.424012
 20
202.654579
 30
0.0
  0
SPLINE
  5
181
100
AcDbEntity
  8
Camada_1
 62
7
100
AcDbSpline
 70
8
 71
3
 72
8
 73
4
 74
0
 40
0
 40
0
 40
0
 40
0
 40
1
 40
1
 40
1
 40
1
 10
91.956574
 20
8.466750
 30
0.0
 10
87.978323
 20
8.466744
 30
0.0
 10
84.163008
 20
10.047094
 30
0.0
 10
81.349958
 20
12.860141
 30
0.0
  0
SPLINE
  5
182
100
AcDbEntity
  8
Camada_1
 62
7
100
AcDbSpline
 70
8
 71
3
 72
8
 73
4
 74
0
 40
0
 40
0
 40
0
 40
0
 40
1
 40
1
 40
1
 40
1
 10
81.349958
 20
12.860141
 30
0.0
 10
78.536908
 20
15.673187
 30
0.0
 10
76.956552
 20
19.488499
 30
0.0
 10
76.956552
 20
23.466750
 30
0.0
  0
SPLINE
  5
183
100
AcDbEntity
  8
Camada_1
 62
7
100
AcDbSpline
 70
8
 71
3
 72
8
 73
4
 74
0
 40
0
 40
0
 40
0
 40
0
 40
1
 40
1
 40
1
 40
1
 10
76.956552
 20
23.466750
 30
0.0
 10
76.956552
 20
23.466750
 30
0.0
 10
76.956552
 20
28.466750
 30
0.0
 10
76.956552
 20
28.466750
 30
0.0
  0
SPLINE
  5
184
100
AcDbEntity
  8
Camada_1
 62
7
100
AcDbSpline
 70
8
 71
3
 72
8
 73
4
 74
0
 40
0
 40
0
 40
0
 40
0
 40
1
 40
1
 40
1
 40
1
 10
76.956552
 20
28.466750
 30
0.0
 10
76.956531
 20
39.925720
 30
0.0
 10
68.344555
 20
49.554178
 30
0.0
 10
56.956539
 20
50.827390
 30
0.0
  0
SPLINE
  5
185
100
AcDbEntity
  8
Camada_1
 62
7
100
AcDbSpline
 70
8
 71
3
 72
8
 73
4
 74
0
 40
0
 40
0
 40
0
 40
0
 40
1
 40
1
 40
1
 40
1
 10
56.956539
 20
50.827390
 30
0.0
 10
35.746500
 20
53.198742
 30
0.0
 10
19.119471
 20
70.142549
 30
0.0
 10
17.148786
 20
91.393560
 30
0.0
  0
SPLINE
  5
186
100
AcDbEntity
  8
Camada_1
 62
7
100
AcDbSpline
 70
8
 71
3
 72
8
 73
4
 74
0
 40
0
 40
0
 40
0
 40
0
 40
1
 40
1
 40
1
 40
1
 10
17.148786
 20
91.393560
 30
0.0
 10
17.148786
 20
91.393560
 30
0.0
 10
16.956540
 20
93.466700
 30
0.0
 10
16.956540
 20
93.466700
 30
0.0
  0
SPLINE
  5
187
100
AcDbEntity
  8
Camada_1
 62
7
100
AcDbSpline
 70
8
 71
3
 72
8
 73
4
 74
0
 40
0
 40
0
 40
0
 40
0
 40
1
 40
1
 40
1
 40
1
 10
16.956540
 20
93.466700
 30
0.0
 10
37.415760
 20
93.466700
 30
0.0
 10
56.680996
 20
83.834084
 30
0.0
 10
68.956531
 20
67.466710
 30
0.0
  0
SPLINE
  5
188
100
AcDbEntity
  8
Camada_1
 62
7
100
AcDbSpline
 70
8
 71
3
 72
8
 73
4
 74
0
 40
0
 40
0
 40
0
 40
0
 40
1
 40
1
 40
1
 40
1
 10
68.956531
 20
67.466710
 30
0.0
 10
73.205753
 20
61.801074
 30
0.0
 10
79.874491
 20
58.466702
 30
0.0
 10
86.956532
 20
58.466700
 30
0.0
  0
LWPOLYLINE
  5
189
100
AcDbEntity
  8
Camada_1
 62
7
100
AcDbPolyline
 90
10
 70
0
 10
131.956570
 20
8.466690
 30
0.0
 10
124.546810
 20
8.415790
 30
0.0
 10
124.353930
 20
36.486620
 30
0.0
 10
121.354000
 20
36.466020
 30
0.0
 10
121.547840
 20
8.257920
 30
0.0
 10
103.547840
 20
8.134230
 30
0.0
 10
103.354000
 20
36.342320
 30
0.0
 10
100.354000
 20
36.321720
 30
0.0
 10
100.545000
 20
8.525750
 30
0.0
 10
91.956574
 20
8.466750
 30
0.0
  0
SPLINE
  5
18a
100
AcDbEntity
  8
Camada_1
 62
7
100
AcDbSpline
 70
8
 71
3
 72
8
 73
4
 74
0
 40
0
 40
0
 40
0
 40
0
 40
1
 40
1
 40
1
 40
1
 10
136.956540
 20
58.466700
 30
0.0
 10
144.038581
 20
58.466702
 30
0.0
 10
150.707318
 20
61.801075
 30
0.0
 10
154.956540
 20
67.466710
 30
0.0
  0
SPLINE
  5
18b
100
AcDbEntity
  8
Camada_1
 62
7
100
AcDbSpline
 70
8
 71
3
 72
8
 73
4
 74
0
 40
0
 40
0
 40
0
 40
0
 40
1
 40
1
 40
1
 40
1
 10
154.956540
 20
67.466710
 30
0.0
 10
167.232075
 20
83.834083
 30
0.0
 10
186.497311
 20
93.466699
 30
0.0
 10
206.956530
 20
93.466700
 30
0.0
  0
LWPOLYLINE
  5
18c
100
AcDbEntity
  8
Camada_1
 62
7
100
AcDbPolyline
 90
2
 70
0
 10
86.956532
 20
58.466700
 30
0.0
 10
136.956540
 20
58.466700
 30
0.0
  0
SPLINE
  5
18d
100
AcDbEntity
  8
Camada_1
 62
7
100
AcDbSpline
 70
8
 71
3
 72
8
 73
4
 74
0
 40
0
 40
0
 40
0
 40
0
 40
1
 40
1
 40
1
 40
1
 10
247.376240
 20
194.238210
 30
0.0
 10
252.826074
 20
198.227233
 30
0.0
 10
260.015446
 20
198.932810
 30
0.0
 10
266.136807
 20
196.079404
 30
0.0
  0
SPLINE
  5
18e
100
AcDbEntity
  8
Camada_1
 62
7
100
AcDbSpline
 70
8
 71
3
 72
8
 73
4
 74
0
 40
0
 40
0
 40
0
 40
0
 40
1
 40
1
 40
1
 40
1
 10
266.136807
 20
196.079404
 30
0.0
 10
272.258169
 20
193.225999
 30
0.0
 10
276.340556
 20
187.266215
 30
0.0
 10
276.789740
 20
180.527430
 30
0.0
  0
SPLINE
  5
18f
100
AcDbEntity
  8
Camada_1
 62
7
100
AcDbSpline
 70
8
 71
3
 72
8
 73
4
 74
0
 40
0
 40
0
 40
0
 40
0
 40
1
 40
1
 40
1
 40
1
 10
247.376240
 20
194.238210
 30
0.0
 10
241.581892
 20
186.253920
 30
0.0
 10
233.367161
 20
180.351124
 30
0.0
 10
223.951700
 20
177.406220
 30
0.0
  0
SPLINE
  5
190
100
AcDbEntity
  8
Camada_1
 62
7
100
AcDbSpline
 70
8
 71
3
 72
8
 73
4
 74
0
 40
0
 40
0
 40
0
 40
0
 40
1
 40
1
 40
1
 40
1
 10
203.978750
 20
167.059230
 30
0.0
 10
208.297322
 20
173.842397
 30
0.0
 10
215.919686
 20
177.791164
 30
0.0
 10
223.951700
 20
177.406220
 30
0.0
  0
LWPOLYLINE
  5
191
100
AcDbEntity
  8
Camada_1
 62
7
100
AcDbPolyline
 90
2
 70
0
 10
206.956530
 20
93.466700
 30
0.0
 10
206.764280
 20
91.393550
 30
0.0
  0
LWPOLYLINE
  5
192
100
AcDbEntity
  8
Camada_1
 62
7
100
AcDbPolyline
 90
2
 70
0
 10
225.325070
 20
154.769910
 30
0.0
 10
203.978750
 20
167.059230
 30
0.0
  0
LWPOLYLINE
  5
193
100
AcDbEntity
  8
Camada_1
 62
7
100
AcDbPolyline
 90
2
 70
0
 10
230.563880
 20
163.869620
 30
0.0
 10
225.325070
 20
154.769910
 30
0.0
  0
LWPOLYLINE
  5
194
100
AcDbEntity
  8
Camada_1
 62
7
100
AcDbPolyline
 90
2
 70
0
 10
239.663600
 20
158.630810
 30
0.0
 10
230.563880
 20
163.869620
 30
0.0
  0
LWPOLYLINE
  5
195
100
AcDbEntity
  8
Camada_1
 62
7
100
AcDbPolyline
 90
2
 70
0
 10
248.644420
 20
174.230320
 30
0.0
 10
239.663600
 20
158.630810
 30
0.0
  0
LWPOLYLINE
  5
196
100
AcDbEntity
  8
Camada_1
 62
7
100
AcDbPolyline
 90
2
 70
0
 10
251.244340
 20
172.733520
 30
0.0
 10
248.644420
 20
174.230320
 30
0.0
  0
LWPOLYLINE
  5
197
100
AcDbEntity
  8
Camada_1
 62
7
100
AcDbPolyline
 90
2
 70
0
 10
242.263520
 20
157.134010
 30
0.0
 10
251.244340
 20
172.733520
 30
0.0
  0
LWPOLYLINE
  5
198
100
AcDbEntity
  8
Camada_1
 62
7
100
AcDbPolyline
 90
2
 70
0
 10
258.079690
 20
148.028450
 30
0.0
 10
242.263520
 20
157.134010
 30
0.0
  0
SPLINE
  5
199
100
AcDbEntity
  8
Camada_1
 62
7
100
AcDbSpline
 70
8
 71
3
 72
8
 73
4
 74
0
 40
0
 40
0
 40
0
 40
0
 40
1
 40
1
 40
1
 40
1
 10
223.460300
 20
67.842730
 30
0.0
 10
217.284148
 20
65.109948
 30
0.0
 10
213.085643
 20
59.231393
 30
0.0
 10
212.504357
 20
52.502718
 30
0.0
  0
SPLINE
  5
19a
100
AcDbEntity
  8
Camada_1
 62
7
100
AcDbSpline
 70
8
 71
3
 72
8
 73
4
 74
0
 40
0
 40
0
 40
0
 40
0
 40
1
 40
1
 40
1
 40
1
 10
212.504357
 20
52.502718
 30
0.0
 10
211.923072
 20
45.774044
 30
0.0
 10
215.051209
 20
39.262545
 30
0.0
 10
220.667190
 20
35.511050
 30
0.0
  0
SPLINE
  5
19b
100
AcDbEntity
  8
Camada_1
 62
7
100
AcDbSpline
 70
8
 71
3
 72
8
 73
4
 74
0
 40
0
 40
0
 40
0
 40
0
 40
1
 40
1
 40
1
 40
1
 10
223.460300
 20
67.842730
 30
0.0
 10
233.270806
 20
68.880703
 30
0.0
 10
242.485020
 20
73.054809
 30
0.0
 10
249.734890
 20
79.745310
 30
0.0
  0
SPLINE
  5
19c
100
AcDbEntity
  8
Camada_1
 62
7
100
AcDbSpline
 70
8
 71
3
 72
8
 73
4
 74
0
 40
0
 40
0
 40
0
 40
0
 40
1
 40
1
 40
1
 40
1
 10
268.667190
 20
91.892180
 30
0.0
 10
260.633948
 20
91.533890
 30
0.0
 10
253.408733
 20
86.898228
 30
0.0
 10
249.734890
 20
79.745310
 30
0.0
  0
LWPOLYLINE
  5
19d
100
AcDbEntity
  8
Camada_1
 62
7
100
AcDbPolyline
 90
2
 70
0
 10
276.789740
 20
180.527430
 30
0.0
 10
258.079690
 20
148.028450
 30
0.0
  0
LWPOLYLINE
  5
19e
100
AcDbEntity
  8
Camada_1
 62
7
100
AcDbPolyline
 90
2
 70
0
 10
268.667190
 20
67.261050
 30
0.0
 10
268.667190
 20
91.892180
 30
0.0
  0
LWPOLYLINE
  5
19f
100
AcDbEntity
  8
Camada_1
 62
7
100
AcDbPolyline
 90
2
 70
0
 10
258.167190
 20
67.261050
 30
0.0
 10
268.667190
 20
67.261050
 30
0.0
  0
LWPOLYLINE
  5
1a0
100
AcDbEntity
  8
Camada_1
 62
7
100
AcDbPolyline
 90
2
 70
0
 10
258.167190
 20
56.761050
 30
0.0
 10
258.167190
 20
67.261050
 30
0.0
  0
LWPOLYLINE
  5
1a1
100
AcDbEntity
  8
Camada_1
 62
7
100
AcDbPolyline
 90
2
 70
0
 10
240.167190
 20
56.761050
 30
0.0
 10
258.167190
 20
56.761050
 30
0.0
  0
LWPOLYLINE
  5
1a2
100
AcDbEntity
  8
Camada_1
 62
7
100
AcDbPolyline
 90
2
 70
0
 10
240.167190
 20
53.761050
 30
0.0
 10
240.167190
 20
56.761050
 30
0.0
  0
LWPOLYLINE
  5
1a3
100
AcDbEntity
  8
Camada_1
 62
7
100
AcDbPolyline
 90
2
 70
0
 10
258.167190
 20
53.761050
 30
0.0
 10
240.167190
 20
53.761050
 30
0.0
  0
LWPOLYLINE
  5
1a4
100
AcDbEntity
  8
Camada_1
 62
7
100
AcDbPolyline
 90
2
 70
0
 10
258.167190
 20
35.511050
 30
0.0
 10
258.167190
 20
53.761050
 30
0.0
  0
LWPOLYLINE
  5
1a5
100
AcDbEntity
  8
Camada_1
 62
7
100
AcDbPolyline
 90
2
 70
0
 10
220.667190
 20
35.511050
 30
0.0
 10
258.167190
 20
35.511050
 30
0.0
  0
LWPOLYLINE
  5
1a6
100
AcDbEntity
  8
Camada_1
 62
7
100
AcDbPolyline
 90
32
 70
0
 10
38.131563
 20
95.433420
 30
0.0
 10
26.631562
 20
95.433420
 30
0.0
 10
26.631562
 20
101.933420
 30
0.0
 10
20.131562
 20
101.933420
 30
0.0
 10
20.131562
 20
108.433420
 30
0.0
 10
13.631565
 20
108.433420
 30
0.0
 10
13.631565
 20
114.933420
 30
0.0
 10
7.131565
 20
114.933420
 30
0.0
 10
7.131565
 20
139.933420
 30
0.0
 10
13.631565
 20
139.933420
 30
0.0
 10
13.631565
 20
146.433420
 30
0.0
 10
20.131562
 20
146.433420
 30
0.0
 10
20.131562
 20
152.933420
 30
0.0
 10
23.131564
 20
152.933420
 30
0.0
 10
23.131564
 20
155.933420
 30
0.0
 10
29.131563
 20
155.933420
 30
0.0
 10
29.131563
 20
173.933420
 30
0.0
 10
23.131564
 20
173.933420
 30
0.0
 10
23.131564
 20
176.933420
 30
0.0
 10
20.131562
 20
176.933420
 30
0.0
 10
20.131562
 20
183.433420
 30
0.0
 10
13.631565
 20
183.433420
 30
0.0
 10
13.631565
 20
189.933420
 30
0.0
 10
7.131565
 20
189.933420
 30
0.0
 10
7.131565
 20
214.933423
 30
0.0
 10
13.631565
 20
214.933423
 30
0.0
 10
13.631565
 20
221.433424
 30
0.0
 10
20.131562
 20
221.433424
 30
0.0
 10
20.131562
 20
227.933424
 30
0.0
 10
26.631562
 20
227.933424
 30
0.0
 10
26.631562
 20
234.433424
 30
0.0
 10
38.131563
 20
234.433424
 30
0.0
  0
LWPOLYLINE
  5
1a7
100
AcDbEntity
  8
Camada_1
 62
7
100
AcDbPolyline
 90
2
 70
0
 10
38.131563
 20
95.433420
 30
0.0
 10
38.131563
 20
234.433424
 30
0.0
  0
ENDSEC
  0
SECTION
  2
OBJECTS
  0
DICTIONARY
  5
C
330
0
100
AcDbDictionary
  3
ACAD_GROUP
350
D
  3
ACAD_MLINESTYLE
350
17
  0
DICTIONARY
  5
D
330
C
100
AcDbDictionary
  0
DICTIONARY
  5
1A
330
C
100
AcDbDictionary
  0
DICTIONARY
  5
17
330
C
100
AcDbDictionary
  3
STANDARD
350
18
  0
DICTIONARY
  5
19
330
C
100
AcDbDictionary
  0
ENDSEC
  0
EOF
