M48
;GenerationSoftware,Autodesk,EAGLE,9.6.2*%
;CreationDate,2021-04-26T19:16:49Z*%
FMAT,2
ICI,OFF
METRIC,TZ,000.000
T4C0.762
T3C0.813
T2C1.016
T1C1.300
%
G90
M71
T1
X3461Y5103
X8541Y5103
T2
X37591Y34120
X47382Y44856
X34682Y44856
X37222Y44856
X39762Y44856
X42302Y44856
X44842Y44856
X44819Y34138
X49922Y44856
T3
X61729Y18148
X61729Y25768
X67330Y41642
X59710Y41642
X67176Y46126
X59556Y46126
X16396Y45346
X24016Y45346
X16188Y41791
X23808Y41791
X24792Y18743
X76551Y2204
X76551Y7182
X82545Y2204
X82545Y7182
X76551Y4693
X82545Y4693
X24792Y26363
T4
X17490Y18810
X17490Y23890
X17490Y26430
X70380Y22090
X72920Y22090
X67840Y22090
X65300Y22090
X17490Y21350
M30