G04 EAGLE Gerber RS-274X export*
G75*
%MOMM*%
%FSLAX34Y34*%
%LPD*%
%IN*%
%IPPOS*%
%AMOC8*
5,1,8,0,0,1.08239X$1,22.5*%
G01*
%ADD10C,0.254000*%


D10*
X662837Y77350D02*
X666407Y77392D01*
X669975Y77519D01*
X673538Y77731D01*
X677096Y78027D01*
X680645Y78409D01*
X684185Y78874D01*
X687712Y79424D01*
X691226Y80057D01*
X694723Y80774D01*
X698202Y81574D01*
X701661Y82456D01*
X705098Y83421D01*
X708512Y84467D01*
X711899Y85594D01*
X715258Y86801D01*
X718588Y88088D01*
X721887Y89454D01*
X725152Y90898D01*
X728381Y92419D01*
X731574Y94016D01*
X734727Y95689D01*
X737840Y97437D01*
X740911Y99258D01*
X743937Y101152D01*
X746917Y103117D01*
X749850Y105153D01*
X752733Y107258D01*
X755566Y109431D01*
X758346Y111670D01*
X761072Y113976D01*
X763742Y116345D01*
X766355Y118777D01*
X768910Y121271D01*
X662841Y106350D02*
X662837Y77350D01*
X662841Y106350D02*
X665720Y106384D01*
X668598Y106486D01*
X671473Y106657D01*
X674343Y106897D01*
X677206Y107204D01*
X680061Y107580D01*
X682906Y108023D01*
X685740Y108534D01*
X688562Y109112D01*
X691368Y109757D01*
X694158Y110469D01*
X696931Y111247D01*
X699684Y112091D01*
X702417Y113000D01*
X705127Y113974D01*
X707813Y115012D01*
X710474Y116114D01*
X713107Y117279D01*
X715713Y118506D01*
X718288Y119794D01*
X720832Y121144D01*
X723343Y122554D01*
X725819Y124023D01*
X728261Y125551D01*
X730665Y127136D01*
X733030Y128778D01*
X735356Y130476D01*
X737641Y132229D01*
X739884Y134035D01*
X742082Y135895D01*
X744236Y137806D01*
X746344Y139768D01*
X748405Y141780D01*
X768909Y121271D01*
X61855Y227378D02*
X32855Y227378D01*
X61855Y227378D02*
X61889Y224499D01*
X61992Y221621D01*
X62163Y218746D01*
X62403Y215876D01*
X62711Y213013D01*
X63087Y210158D01*
X63530Y207313D01*
X64042Y204479D01*
X64620Y201658D01*
X65266Y198851D01*
X65978Y196061D01*
X66756Y193288D01*
X67600Y190535D01*
X68510Y187803D01*
X69484Y185093D01*
X70522Y182407D01*
X71624Y179746D01*
X72789Y177113D01*
X74017Y174508D01*
X75306Y171933D01*
X76656Y169389D01*
X78066Y166878D01*
X79535Y164402D01*
X81063Y161961D01*
X82649Y159557D01*
X84291Y157191D01*
X85989Y154866D01*
X87742Y152581D01*
X89549Y150339D01*
X91409Y148140D01*
X93321Y145986D01*
X95283Y143879D01*
X97295Y141818D01*
X76789Y121312D01*
X74295Y123866D01*
X71862Y126479D01*
X69493Y129149D01*
X67187Y131874D01*
X64947Y134654D01*
X62774Y137486D01*
X60669Y140369D01*
X58633Y143302D01*
X56667Y146282D01*
X54773Y149308D01*
X52951Y152378D01*
X51203Y155491D01*
X49530Y158644D01*
X47932Y161836D01*
X46410Y165066D01*
X44966Y168330D01*
X43600Y171629D01*
X42313Y174958D01*
X41105Y178318D01*
X39978Y181705D01*
X38931Y185118D01*
X37966Y188555D01*
X37083Y192014D01*
X36283Y195493D01*
X35566Y198990D01*
X34932Y202503D01*
X34382Y206031D01*
X33916Y209570D01*
X33534Y213120D01*
X33237Y216677D01*
X33025Y220241D01*
X32897Y223808D01*
X32855Y227378D01*
X182855Y77378D02*
X186425Y77420D01*
X189992Y77548D01*
X193556Y77760D01*
X197113Y78057D01*
X200663Y78439D01*
X204202Y78905D01*
X207730Y79455D01*
X211243Y80089D01*
X214740Y80806D01*
X218219Y81606D01*
X221678Y82489D01*
X225115Y83454D01*
X228528Y84501D01*
X231915Y85628D01*
X235275Y86836D01*
X238604Y88123D01*
X241903Y89489D01*
X245167Y90933D01*
X248397Y92455D01*
X251589Y94053D01*
X254742Y95726D01*
X257855Y97474D01*
X260925Y99296D01*
X263951Y101190D01*
X266931Y103156D01*
X269864Y105192D01*
X272747Y107297D01*
X275579Y109470D01*
X278359Y111710D01*
X281084Y114016D01*
X283754Y116385D01*
X286367Y118818D01*
X288921Y121312D01*
X182855Y106378D02*
X182855Y77378D01*
X182855Y106378D02*
X185734Y106412D01*
X188612Y106515D01*
X191487Y106686D01*
X194357Y106926D01*
X197220Y107234D01*
X200075Y107610D01*
X202920Y108053D01*
X205754Y108565D01*
X208575Y109143D01*
X211382Y109789D01*
X214172Y110501D01*
X216945Y111279D01*
X219698Y112123D01*
X222430Y113033D01*
X225140Y114007D01*
X227826Y115045D01*
X230487Y116147D01*
X233120Y117312D01*
X235725Y118540D01*
X238300Y119829D01*
X240844Y121179D01*
X243355Y122589D01*
X245831Y124058D01*
X248272Y125586D01*
X250676Y127172D01*
X253042Y128814D01*
X255367Y130512D01*
X257652Y132265D01*
X259894Y134072D01*
X262093Y135932D01*
X264247Y137844D01*
X266354Y139806D01*
X268415Y141818D01*
X288921Y121312D01*
X512855Y227367D02*
X512897Y223797D01*
X513024Y220230D01*
X513236Y216666D01*
X513533Y213108D01*
X513914Y209559D01*
X514379Y206020D01*
X514929Y202492D01*
X515562Y198979D01*
X516279Y195482D01*
X517079Y192003D01*
X517962Y188544D01*
X518926Y185106D01*
X519972Y181693D01*
X521099Y178306D01*
X522307Y174946D01*
X523594Y171616D01*
X524959Y168318D01*
X526403Y165053D01*
X527924Y161824D01*
X529522Y158631D01*
X531195Y155478D01*
X532943Y152365D01*
X534764Y149294D01*
X536658Y146268D01*
X538623Y143288D01*
X540659Y140355D01*
X542764Y137472D01*
X544937Y134639D01*
X547176Y131860D01*
X549481Y129134D01*
X551851Y126463D01*
X554283Y123850D01*
X556777Y121296D01*
X541855Y227364D02*
X512855Y227367D01*
X541855Y227364D02*
X541891Y224395D01*
X542000Y221427D01*
X542182Y218463D01*
X542436Y215504D01*
X542763Y212552D01*
X543163Y209610D01*
X543634Y206678D01*
X544177Y203758D01*
X544792Y200853D01*
X545478Y197963D01*
X546234Y195091D01*
X547061Y192239D01*
X547958Y189408D01*
X548923Y186600D01*
X549958Y183816D01*
X551060Y181058D01*
X552230Y178329D01*
X553466Y175629D01*
X554768Y172960D01*
X556136Y170324D01*
X557567Y167722D01*
X559063Y165156D01*
X560620Y162627D01*
X562239Y160138D01*
X563919Y157689D01*
X565658Y155282D01*
X567456Y152918D01*
X569312Y150599D01*
X571223Y148327D01*
X573190Y146102D01*
X575211Y143926D01*
X577285Y141800D01*
X556777Y121296D01*
X303853Y228029D02*
X303801Y230978D01*
X303678Y233925D01*
X303482Y236868D01*
X303215Y239805D01*
X302877Y242735D01*
X302467Y245655D01*
X301986Y248565D01*
X301434Y251463D01*
X300812Y254346D01*
X300119Y257213D01*
X299357Y260062D01*
X298526Y262892D01*
X297626Y265700D01*
X296658Y268486D01*
X295622Y271248D01*
X294520Y273983D01*
X293350Y276691D01*
X292116Y279369D01*
X290816Y282017D01*
X289452Y284632D01*
X288025Y287213D01*
X286536Y289759D01*
X284984Y292267D01*
X283373Y294737D01*
X281701Y297167D01*
X279971Y299556D01*
X278183Y301901D01*
X276338Y304203D01*
X274438Y306458D01*
X272483Y308667D01*
X270475Y310827D01*
X268415Y312938D01*
X288921Y333444D01*
X291431Y330874D01*
X293878Y328244D01*
X296261Y325557D01*
X298580Y322813D01*
X300832Y320014D01*
X303016Y317163D01*
X305132Y314260D01*
X307177Y311307D01*
X309151Y308306D01*
X311053Y305258D01*
X312881Y302166D01*
X314634Y299031D01*
X316312Y295855D01*
X317914Y292640D01*
X319438Y289387D01*
X320883Y286099D01*
X322250Y282777D01*
X323537Y279423D01*
X324742Y276040D01*
X325867Y272628D01*
X326910Y269191D01*
X327869Y265729D01*
X328746Y262246D01*
X329539Y258742D01*
X330248Y255221D01*
X330873Y251683D01*
X331412Y248132D01*
X331867Y244569D01*
X332236Y240996D01*
X332519Y237415D01*
X332716Y233828D01*
X332828Y230238D01*
X332853Y226646D01*
X332853Y227378D02*
X303855Y227378D01*
X182855Y377378D02*
X179285Y377336D01*
X175718Y377208D01*
X172154Y376996D01*
X168597Y376699D01*
X165047Y376317D01*
X161508Y375851D01*
X157980Y375301D01*
X154467Y374667D01*
X150970Y373950D01*
X147491Y373150D01*
X144032Y372267D01*
X140595Y371302D01*
X137182Y370255D01*
X133795Y369128D01*
X130435Y367920D01*
X127106Y366633D01*
X123807Y365267D01*
X120543Y363823D01*
X117313Y362301D01*
X114121Y360703D01*
X110968Y359030D01*
X107855Y357282D01*
X104785Y355460D01*
X101759Y353566D01*
X98779Y351600D01*
X95846Y349564D01*
X92963Y347459D01*
X90131Y345286D01*
X87351Y343046D01*
X84626Y340740D01*
X81956Y338371D01*
X79343Y335938D01*
X76789Y333444D01*
X182855Y348378D02*
X182855Y377378D01*
X182855Y348378D02*
X179886Y348342D01*
X176918Y348232D01*
X173954Y348050D01*
X170995Y347795D01*
X168043Y347468D01*
X165101Y347068D01*
X162169Y346597D01*
X159249Y346053D01*
X156344Y345438D01*
X153455Y344752D01*
X150583Y343995D01*
X147731Y343168D01*
X144900Y342271D01*
X142091Y341305D01*
X139308Y340270D01*
X136550Y339167D01*
X133821Y337997D01*
X131121Y336761D01*
X128452Y335458D01*
X125816Y334091D01*
X123214Y332659D01*
X120649Y331163D01*
X118120Y329605D01*
X115631Y327986D01*
X113182Y326306D01*
X110775Y324566D01*
X108412Y322768D01*
X106094Y320912D01*
X103821Y319000D01*
X101596Y317033D01*
X99421Y315012D01*
X97295Y312938D01*
X76789Y333444D01*
X662869Y348350D02*
X662872Y377350D01*
X662869Y348350D02*
X659900Y348314D01*
X656932Y348205D01*
X653968Y348023D01*
X651009Y347769D01*
X648057Y347442D01*
X645115Y347042D01*
X642183Y346571D01*
X639263Y346028D01*
X636358Y345413D01*
X633468Y344727D01*
X630596Y343971D01*
X627744Y343144D01*
X624913Y342247D01*
X622105Y341282D01*
X619321Y340247D01*
X616563Y339145D01*
X613834Y337975D01*
X611134Y336739D01*
X608465Y335437D01*
X605829Y334069D01*
X603227Y332638D01*
X600661Y331142D01*
X598132Y329585D01*
X595643Y327966D01*
X593194Y326286D01*
X590787Y324547D01*
X588423Y322749D01*
X586104Y320893D01*
X583832Y318982D01*
X581607Y317015D01*
X579431Y314994D01*
X577305Y312920D01*
X556801Y333428D01*
X559436Y335999D01*
X562134Y338504D01*
X564892Y340942D01*
X567709Y343312D01*
X570584Y345612D01*
X573514Y347841D01*
X576498Y349997D01*
X579534Y352080D01*
X582620Y354087D01*
X585754Y356018D01*
X588935Y357871D01*
X592160Y359646D01*
X595428Y361341D01*
X598737Y362956D01*
X602084Y364488D01*
X605468Y365938D01*
X608887Y367305D01*
X612337Y368587D01*
X615819Y369785D01*
X619329Y370896D01*
X622864Y371921D01*
X626424Y372859D01*
X630006Y373709D01*
X633608Y374471D01*
X637227Y375145D01*
X640862Y375729D01*
X644510Y376224D01*
X648169Y376629D01*
X651837Y376945D01*
X655512Y377170D01*
X659191Y377305D01*
X662872Y377350D01*
X783855Y227336D02*
X812855Y227332D01*
X783855Y227336D02*
X783819Y230305D01*
X783710Y233273D01*
X783528Y236237D01*
X783274Y239196D01*
X782947Y242148D01*
X782547Y245090D01*
X782076Y248022D01*
X781533Y250942D01*
X780918Y253847D01*
X780232Y256737D01*
X779476Y259609D01*
X778649Y262461D01*
X777752Y265292D01*
X776787Y268100D01*
X775752Y270884D01*
X774650Y273642D01*
X773480Y276371D01*
X772244Y279071D01*
X770942Y281740D01*
X769574Y284376D01*
X768143Y286978D01*
X766647Y289544D01*
X765090Y292073D01*
X763471Y294562D01*
X761791Y297011D01*
X760052Y299418D01*
X758254Y301782D01*
X756398Y304101D01*
X754487Y306373D01*
X752520Y308598D01*
X750499Y310774D01*
X748425Y312900D01*
X768933Y333403D01*
X771427Y330849D01*
X773859Y328236D01*
X776229Y325565D01*
X778534Y322839D01*
X780773Y320060D01*
X782946Y317227D01*
X785051Y314344D01*
X787087Y311411D01*
X789052Y308431D01*
X790946Y305405D01*
X792767Y302334D01*
X794515Y299221D01*
X796188Y296068D01*
X797786Y292875D01*
X799307Y289646D01*
X800751Y286381D01*
X802116Y283083D01*
X803403Y279753D01*
X804611Y276393D01*
X805738Y273006D01*
X806784Y269593D01*
X807748Y266155D01*
X808631Y262696D01*
X809431Y259217D01*
X810148Y255720D01*
X810781Y252207D01*
X811331Y248679D01*
X811796Y245140D01*
X812177Y241591D01*
X812474Y238033D01*
X812686Y234469D01*
X812813Y230902D01*
X812855Y227332D01*
M02*
