G04 EAGLE Gerber RS-274X export*
G75*
%MOMM*%
%FSLAX34Y34*%
%LPD*%
%IN*%
%IPPOS*%
%AMOC8*
5,1,8,0,0,1.08239X$1,22.5*%
G01*
%ADD10C,0.254000*%


D10*
X406977Y180025D02*
X438727Y180023D01*
X438718Y15023D01*
X438722Y14661D01*
X438735Y14298D01*
X438757Y13936D01*
X438788Y13575D01*
X438827Y13215D01*
X438875Y12856D01*
X438932Y12498D01*
X438997Y12141D01*
X439071Y11786D01*
X439154Y11433D01*
X439245Y11082D01*
X439344Y10734D01*
X439452Y10388D01*
X439568Y10044D01*
X439692Y9704D01*
X439825Y9367D01*
X439966Y9032D01*
X440114Y8702D01*
X440271Y8375D01*
X440436Y8052D01*
X440608Y7733D01*
X440788Y7418D01*
X440975Y7108D01*
X441170Y6803D01*
X441373Y6502D01*
X441582Y6206D01*
X441799Y5915D01*
X442022Y5630D01*
X442253Y5350D01*
X442490Y5076D01*
X442733Y4807D01*
X442983Y4545D01*
X443240Y4289D01*
X443502Y4039D01*
X443770Y3795D01*
X444045Y3558D01*
X444324Y3328D01*
X444610Y3104D01*
X444900Y2887D01*
X445196Y2678D01*
X445497Y2475D01*
X445803Y2281D01*
X446113Y2093D01*
X446427Y1913D01*
X446746Y1741D01*
X447069Y1576D01*
X447396Y1419D01*
X447727Y1271D01*
X448061Y1130D01*
X448398Y997D01*
X448738Y873D01*
X449082Y756D01*
X449428Y649D01*
X449776Y549D01*
X450127Y458D01*
X450480Y376D01*
X450835Y302D01*
X451192Y236D01*
X451550Y180D01*
X451909Y131D01*
X452269Y92D01*
X452630Y61D01*
X452992Y40D01*
X453355Y26D01*
X453717Y22D01*
X830684Y0D01*
X831046Y4D01*
X831409Y17D01*
X831771Y39D01*
X832132Y70D01*
X832492Y109D01*
X832851Y157D01*
X833209Y214D01*
X833566Y279D01*
X833921Y353D01*
X834274Y436D01*
X834625Y527D01*
X834973Y626D01*
X835319Y734D01*
X835663Y850D01*
X836003Y974D01*
X836340Y1107D01*
X836675Y1248D01*
X837005Y1396D01*
X837332Y1553D01*
X837655Y1718D01*
X837974Y1890D01*
X838289Y2070D01*
X838599Y2257D01*
X838904Y2452D01*
X839205Y2655D01*
X839501Y2864D01*
X839792Y3081D01*
X840077Y3304D01*
X840357Y3535D01*
X840631Y3772D01*
X840900Y4015D01*
X841162Y4265D01*
X841418Y4522D01*
X841668Y4784D01*
X841912Y5052D01*
X842149Y5327D01*
X842379Y5606D01*
X842603Y5892D01*
X842820Y6182D01*
X843029Y6478D01*
X843232Y6779D01*
X843426Y7085D01*
X843614Y7395D01*
X843794Y7709D01*
X843966Y8028D01*
X844131Y8351D01*
X844288Y8678D01*
X844436Y9009D01*
X844577Y9343D01*
X844710Y9680D01*
X844834Y10020D01*
X844951Y10364D01*
X845058Y10710D01*
X845158Y11058D01*
X845249Y11409D01*
X845331Y11762D01*
X845405Y12117D01*
X845471Y12474D01*
X845527Y12832D01*
X845576Y13191D01*
X845615Y13551D01*
X845646Y13912D01*
X845667Y14274D01*
X845681Y14637D01*
X845685Y14999D01*
X845696Y206900D01*
X845627Y212790D01*
X845419Y218677D01*
X845073Y224557D01*
X844588Y230427D01*
X843965Y236285D01*
X843204Y242126D01*
X842306Y247947D01*
X841271Y253746D01*
X840099Y259518D01*
X838792Y265262D01*
X837350Y270973D01*
X835774Y276648D01*
X834064Y282285D01*
X832222Y287880D01*
X830249Y293430D01*
X828146Y298932D01*
X825913Y304383D01*
X823553Y309780D01*
X821066Y315120D01*
X818454Y320399D01*
X815719Y325616D01*
X812861Y330767D01*
X809883Y335849D01*
X806786Y340859D01*
X710219Y493044D01*
X710019Y493352D01*
X709810Y493655D01*
X709595Y493953D01*
X709372Y494246D01*
X709142Y494533D01*
X708904Y494814D01*
X708661Y495089D01*
X708410Y495358D01*
X708153Y495622D01*
X707890Y495878D01*
X707620Y496128D01*
X707344Y496372D01*
X707063Y496609D01*
X706775Y496838D01*
X706483Y497061D01*
X706184Y497276D01*
X705881Y497484D01*
X705573Y497684D01*
X705259Y497877D01*
X704941Y498062D01*
X704619Y498240D01*
X704293Y498409D01*
X703962Y498570D01*
X703628Y498723D01*
X703289Y498868D01*
X702948Y499004D01*
X702603Y499132D01*
X702255Y499252D01*
X701905Y499363D01*
X701551Y499465D01*
X701196Y499559D01*
X700838Y499644D01*
X700478Y499720D01*
X700116Y499787D01*
X699753Y499846D01*
X699389Y499895D01*
X699023Y499936D01*
X698657Y499967D01*
X698290Y499990D01*
X697922Y500003D01*
X697554Y500008D01*
X148187Y500040D01*
X147819Y500036D01*
X147451Y500022D01*
X147084Y499999D01*
X146718Y499968D01*
X146352Y499927D01*
X145988Y499878D01*
X145625Y499820D01*
X145263Y499752D01*
X144903Y499676D01*
X144545Y499591D01*
X144190Y499498D01*
X143836Y499396D01*
X143486Y499285D01*
X143138Y499165D01*
X142793Y499037D01*
X142452Y498901D01*
X142113Y498756D01*
X141779Y498603D01*
X141448Y498442D01*
X141122Y498272D01*
X140800Y498095D01*
X140482Y497910D01*
X140169Y497718D01*
X139860Y497517D01*
X139557Y497309D01*
X139258Y497094D01*
X138966Y496872D01*
X138678Y496642D01*
X138397Y496405D01*
X138121Y496162D01*
X137851Y495912D01*
X137588Y495655D01*
X137331Y495392D01*
X137080Y495123D01*
X136836Y494848D01*
X136599Y494566D01*
X136369Y494279D01*
X136146Y493987D01*
X135931Y493689D01*
X135722Y493386D01*
X135521Y493078D01*
X135522Y493078D02*
X38937Y340904D01*
X35839Y335894D01*
X32860Y330812D01*
X30002Y325662D01*
X27266Y320446D01*
X24654Y315166D01*
X22166Y309827D01*
X19805Y304430D01*
X17572Y298980D01*
X15468Y293478D01*
X13494Y287928D01*
X11652Y282334D01*
X9942Y276697D01*
X8365Y271022D01*
X6922Y265311D01*
X5614Y259567D01*
X4442Y253795D01*
X3406Y247996D01*
X2507Y242175D01*
X1746Y236334D01*
X1122Y230477D01*
X636Y224607D01*
X289Y218727D01*
X81Y212840D01*
X11Y206950D01*
X0Y15048D01*
X4Y14686D01*
X17Y14323D01*
X39Y13961D01*
X70Y13600D01*
X109Y13240D01*
X157Y12881D01*
X214Y12523D01*
X279Y12166D01*
X353Y11811D01*
X436Y11458D01*
X527Y11107D01*
X626Y10759D01*
X734Y10413D01*
X850Y10069D01*
X974Y9729D01*
X1107Y9392D01*
X1248Y9057D01*
X1396Y8727D01*
X1553Y8400D01*
X1718Y8077D01*
X1890Y7758D01*
X2070Y7443D01*
X2257Y7133D01*
X2452Y6828D01*
X2655Y6527D01*
X2864Y6231D01*
X3081Y5940D01*
X3304Y5655D01*
X3535Y5375D01*
X3772Y5101D01*
X4015Y4832D01*
X4265Y4570D01*
X4522Y4314D01*
X4784Y4064D01*
X5052Y3820D01*
X5327Y3583D01*
X5606Y3353D01*
X5892Y3129D01*
X6182Y2912D01*
X6478Y2703D01*
X6779Y2500D01*
X7085Y2306D01*
X7395Y2118D01*
X7709Y1938D01*
X8028Y1766D01*
X8351Y1601D01*
X8678Y1444D01*
X9009Y1296D01*
X9343Y1155D01*
X9680Y1022D01*
X10020Y898D01*
X10364Y781D01*
X10710Y674D01*
X11058Y574D01*
X11409Y483D01*
X11762Y401D01*
X12117Y327D01*
X12474Y261D01*
X12832Y205D01*
X13191Y156D01*
X13551Y117D01*
X13912Y86D01*
X14274Y65D01*
X14637Y51D01*
X14999Y47D01*
X391967Y25D01*
X392336Y30D01*
X392704Y43D01*
X393071Y66D01*
X393438Y97D01*
X393804Y138D01*
X394169Y187D01*
X394532Y246D01*
X394894Y313D01*
X395254Y389D01*
X395612Y474D01*
X395968Y568D01*
X396322Y671D01*
X396673Y782D01*
X397021Y902D01*
X397366Y1030D01*
X397708Y1167D01*
X398047Y1312D01*
X398381Y1465D01*
X398712Y1627D01*
X399039Y1796D01*
X399362Y1974D01*
X399680Y2159D01*
X399993Y2352D01*
X400302Y2553D01*
X400605Y2761D01*
X400904Y2977D01*
X401197Y3200D01*
X401484Y3430D01*
X401766Y3667D01*
X402042Y3911D01*
X402311Y4161D01*
X402575Y4418D01*
X402832Y4682D01*
X403083Y4952D01*
X403327Y5227D01*
X403564Y5509D01*
X403794Y5797D01*
X404017Y6090D01*
X404232Y6388D01*
X404441Y6691D01*
X404641Y7000D01*
X404835Y7314D01*
X405020Y7632D01*
X405197Y7954D01*
X405367Y8281D01*
X405529Y8612D01*
X405682Y8947D01*
X405827Y9285D01*
X405964Y9627D01*
X406092Y9972D01*
X406212Y10320D01*
X406323Y10671D01*
X406425Y11025D01*
X406519Y11381D01*
X406604Y11739D01*
X406681Y12099D01*
X406748Y12461D01*
X406807Y12824D01*
X406856Y13189D01*
X406897Y13555D01*
X406928Y13922D01*
X406951Y14289D01*
X406964Y14657D01*
X406969Y15025D01*
X406968Y15025D02*
X406977Y180025D01*
M02*
