<?xml version="1.0" encoding="UTF-8" standalone="no"?>
<!-- Created with Inkscape (http://www.inkscape.org/) -->

<svg
   xmlns:dc="http://purl.org/dc/elements/1.1/"
   xmlns:cc="http://creativecommons.org/ns#"
   xmlns:rdf="http://www.w3.org/1999/02/22-rdf-syntax-ns#"
   xmlns:svg="http://www.w3.org/2000/svg"
   xmlns="http://www.w3.org/2000/svg"
   xmlns:sodipodi="http://sodipodi.sourceforge.net/DTD/sodipodi-0.dtd"
   xmlns:inkscape="http://www.inkscape.org/namespaces/inkscape"
   width="145mm"
   height="45mm"
   viewBox="0 0 145 44.999999"
   version="1.1"
   id="svg8"
   inkscape:version="0.92.4 (5da689c313, 2019-01-14)"
   sodipodi:docname="thug_life_glasses.svg">
  <defs
     id="defs2">
    <marker
       style="overflow:visible"
       refY="0.0"
       refX="0.0"
       orient="auto"
       id="DistanceX">
      <path
         id="path836"
         style="stroke:#000000; stroke-width:0.5"
         d="M 3,-3 L -3,3 M 0,-5 L  0,5" />
    </marker>
    <pattern
       y="0"
       x="0"
       width="8"
       patternUnits="userSpaceOnUse"
       id="Hatch"
       height="8">
      <path
         id="path839"
         stroke-width="0.25"
         stroke="#000000"
         linecap="square"
         d="M8 4 l-4,4" />
      <path
         id="path841"
         stroke-width="0.25"
         stroke="#000000"
         linecap="square"
         d="M6 2 l-4,4" />
      <path
         id="path843"
         stroke-width="0.25"
         stroke="#000000"
         linecap="square"
         d="M4 0 l-4,4" />
    </pattern>
    <symbol
       id="*MODEL_SPACE" />
    <symbol
       id="*PAPER_SPACE" />
    <marker
       style="overflow:visible"
       refY="0.0"
       refX="0.0"
       orient="auto"
       id="DistanceX-4">
      <path
         id="path942"
         style="stroke:#000000; stroke-width:0.5"
         d="M 3,-3 L -3,3 M 0,-5 L  0,5" />
    </marker>
    <pattern
       y="0"
       x="0"
       width="8"
       patternUnits="userSpaceOnUse"
       id="Hatch-9"
       height="8">
      <path
         id="path945"
         stroke-width="0.25"
         stroke="#000000"
         linecap="square"
         d="M8 4 l-4,4" />
      <path
         id="path947"
         stroke-width="0.25"
         stroke="#000000"
         linecap="square"
         d="M6 2 l-4,4" />
      <path
         id="path949"
         stroke-width="0.25"
         stroke="#000000"
         linecap="square"
         d="M4 0 l-4,4" />
    </pattern>
    <symbol
       id="*MODEL_SPACE-4" />
    <symbol
       id="*PAPER_SPACE-7" />
  </defs>
  <sodipodi:namedview
     id="base"
     pagecolor="#ffffff"
     bordercolor="#666666"
     borderopacity="1.0"
     inkscape:pageopacity="0.0"
     inkscape:pageshadow="2"
     inkscape:zoom="0.35"
     inkscape:cx="789.38118"
     inkscape:cy="169.13327"
     inkscape:document-units="mm"
     inkscape:current-layer="layer1"
     showgrid="false"
     fit-margin-top="0"
     fit-margin-left="0"
     fit-margin-right="0"
     fit-margin-bottom="0"
     inkscape:window-width="1536"
     inkscape:window-height="801"
     inkscape:window-x="-8"
     inkscape:window-y="-8"
     inkscape:window-maximized="1" />
  <metadata
     id="metadata5">
    <rdf:RDF>
      <cc:Work
         rdf:about="">
        <dc:format>image/svg+xml</dc:format>
        <dc:type
           rdf:resource="http://purl.org/dc/dcmitype/StillImage" />
        <dc:title></dc:title>
      </cc:Work>
    </rdf:RDF>
  </metadata>
  <g
     inkscape:label="Camada 1"
     inkscape:groupmode="layer"
     id="layer1"
     transform="translate(-18.852085,-15.938666)">
    <path
       id="path1076"
       style="fill:none;stroke:#000000;stroke-width:0.26458332"
       d="m 28.352085,34.438668 v 6.5 m 132.500005,-6.5 V 22.938667 m -6.5,11.500001 h 6.5 m -6.5,6.5 v -6.5 m -6.5,6.5 h 6.5 m -6.5,6.499997 v -6.499997 m -6.5,6.499997 h 6.5 m -6.5,6.5 v -6.5 m -25,6.5 h 25 m -25,-6.5 v 6.5 m -6.5,-6.5 h 6.5 m -6.5,-6.499997 v 6.499997 m -6.5,-6.499997 h 6.5 m -6.5,-3.000002 v 3.000002 m -3,-3.000002 h 3 m -3,-5.999999 v 5.999999 M 82.352085,31.938667 h 18.000005 m -18.000005,5.999999 v -5.999999 m -2.999999,5.999999 h 2.999999 m -2.999999,3.000002 v -3.000002 m -6.5,3.000002 h 6.5 m -6.5,6.499997 v -6.499997 m -6.500001,6.499997 h 6.500001 m -6.500001,6.5 v -6.5 m -24.999999,6.5 h 24.999999 m -24.999999,-6.5 v 6.5 m -6.500001,-6.5 h 6.500001 m -6.500001,-6.499997 v 6.499997 m -6.5,-6.499997 h 6.5 m -13,-6.5 h 6.5 m -6.5,-11.500001 V 34.438668 M 160.85209,22.938667 H 21.852085" />
  </g>
</svg>
