0
SECTION
2
HEADER
9
$INSUNITS
70
4
9
$ACADVER
1
AC1014
9
$HANDSEED
5
FFFF
0
ENDSEC
0
SECTION
2
TABLES
0
TABLE
2
VPORT
5
8
100
AcDbSymbolTable
0
ENDTAB
0
TABLE
2
LTYPE
5
5
100
AcDbSymbolTable
0
LTYPE
5
14
100
AcDbSymbolTableRecord
100
AcDbLinetypeTableRecord
2
BYBLOCK
70
0
0
LTYPE
5
15
100
AcDbSymbolTableRecord
100
AcDbLinetypeTableRecord
2
BYLAYER
70
0
0
ENDTAB
0
TABLE
2
LAYER
5
2
100
AcDbSymbolTable
70
2
0
LAYER
5
50
100
AcDbSymbolTableRecord
100
AcDbLayerTableRecord
2
0
70
0
6
CONTINUOUS
0
ENDTAB
0
TABLE
2
STYLE
5
3
100
AcDbSymbolTable
70
1
0
STYLE
5
11
100
AcDbSymbolTableRecord
100
AcDbTextStyleTableRecord
2
STANDARD
70
0
0
ENDTAB
0
TABLE
2
VIEW
5
6
100
AcDbSymbolTable
70
0
0
ENDTAB
0
TABLE
2
UCS
5
7
100
AcDbSymbolTable
70
0
0
ENDTAB
0
TABLE
2
APPID
5
9
100
AcDbSymbolTable
70
2
0
APPID
5
12
100
AcDbSymbolTableRecord
100
AcDbRegAppTableRecord
2
ACAD
70
0
0
ENDTAB
0
TABLE
2
DIMSTYLE
5
A
100
AcDbSymbolTable
70
1
0
ENDTAB
0
TABLE
2
BLOCK_RECORD
5
1
100
AcDbSymbolTable
70
1
0
BLOCK_RECORD
5
1F
100
AcDbSymbolTableRecord
100
AcDbBlockTableRecord
2
*MODEL_SPACE
0
BLOCK_RECORD
5
1B
100
AcDbSymbolTableRecord
100
AcDbBlockTableRecord
2
*PAPER_SPACE
0
ENDTAB
0
ENDSEC
0
SECTION
2
BLOCKS
0
BLOCK
5
20
100
AcDbEntity
100
AcDbBlockBegin
2
*MODEL_SPACE
0
ENDBLK
5
21
100
AcDbEntity
100
AcDbBlockEnd
0
BLOCK
5
1C
100
AcDbEntity
100
AcDbBlockBegin
2
*PAPER_SPACE
0
ENDBLK
5
1D
100
AcDbEntity
100
AcDbBlockEnd
0
ENDSEC
0
SECTION
2
ENTITIES
0
LWPOLYLINE
5
100
100
AcDbEntity
8
0
100
AcDbPolyline
90
26
43
0.0
10
-15.619928845530774
20
232.40214008138486
10
-9.772133978433065
20
209.13656766629236
10
-6.876107620265864
20
198.10112058468187
10
-3.2133675569684663
20
183.33043934817348
10
1.4911484780462037
20
163.30399010745887
10
6.610201414421342
20
141.16414643971697
10
11.106595848849873
20
122.26413337637285
10
14.442023738053956
20
109.5874400477095
10
20.484948508863088
20
90.0088102820189
10
24.80116026490605
20
75.6599284335451
10
30.083312447470142
20
58.76560724956716
10
35.99489897363888
20
42.92634038657822
10
42.265693848702
20
31.63453692982065
10
48.96273812679009
20
25.584041629187535
10
56.27490222540518
20
22.026652090226495
10
64.0736740642942
20
17.13197530604757
10
72.51940026770396
20
9.452646991742457
10
89.8025159754869
20
-7.125022872265545
10
104.17563054241235
20
-17.274164288404002
10
121.81796676994819
20
-25.976351913885825
10
137.8910202247206
20
-36.41494581699108
10
145.444201538698
20
-45.99301205301251
10
150.99077866239108
20
-56.51317907720539
10
155.93212945258253
20
-74.9206634784499
10
158.57158363165973
20
-88.59822324644615
10
162.69140672403674
20
-108.03491027636868
0
LWPOLYLINE
5
101
100
AcDbEntity
8
0
100
AcDbPolyline
90
20
43
0.0
10
-13.066615404339085
20
-75.06166787092216
10
-11.415265359826513
20
-60.84636728488001
10
-9.838032063636925
20
-48.75715190707791
10
-8.622351811468329
20
-36.90515989483474
10
-8.227928279553437
20
-22.440858175416018
10
-8.71010820990828
20
-5.927944178985376
10
-9.65671099204501
20
8.47056755493432
10
-11.071721733642992
20
20.353404638320875
10
-12.197561733538969
20
27.36713679206351
10
-13.751109202957599
20
36.478931468937326
10
-15.773544727830705
20
48.29251218696378
10
-18.2229169404886
20
62.845721533535176
10
-23.926184288987006
20
98.1034799622453
10
-29.608054494979488
20
135.57364720411084
10
-32.03571286007722
20
152.63933264183677
10
-34.03717356258253
20
167.49666405136432
10
-35.580007955094906
20
179.7067588828755
10
-36.72069137478585
20
189.28305062600504
10
-38.39529563090828
20
202.58526724935925
10
-43.74916873617633
20
223.7367767968468
0
LWPOLYLINE
5
102
100
AcDbEntity
8
0
100
AcDbPolyline
90
12
43
0.0
10
-18.2430788452709
20
191.72138986422814
10
-22.7220658704775
20
190.016173166487
10
-25.910403336168727
20
185.93110312222697
10
-28.020231753105698
20
175.37788805248172
10
-26.393856123279146
20
164.25999823048218
10
-22.724102300097957
20
157.9440164538293
10
-18.76684099709342
20
159.0749190668678
10
-14.628777556231205
20
163.65098822645166
10
-10.242075836339618
20
174.06326112995652
10
-9.860689436567071
20
184.63564315438242
10
-13.265435960695683
20
189.55573355627666
10
-18.2430788452709
20
191.72138986422814
0
LWPOLYLINE
5
103
100
AcDbEntity
8
0
100
AcDbPolyline
90
13
43
0.0
10
-7.504245535792995
20
158.3939761451588
10
-11.899957115042668
20
157.55960219870383
10
-15.686536987880745
20
153.97425847511852
10
-19.293076747361805
20
143.05261089391166
10
-19.81614961124765
20
129.70621560104613
10
-17.908558919630966
20
125.49506832864355
10
-14.139835086253331
20
124.93687957008443
10
-6.21876147681191
20
130.643268588222
10
-3.296360562379179
20
134.19881709298156
10
-1.9421841905783932
20
139.42909680499056
10
-2.30285945645152
20
150.73133189279625
10
-4.061596294459829
20
155.45967364601844
10
-7.504245535792993
20
158.3939761451588
0
LWPOLYLINE
5
104
100
AcDbEntity
8
0
100
AcDbPolyline
90
14
43
0.0
10
-2.6902857763718924
20
124.88141012765023
10
-6.750434989458265
20
122.84256725978106
10
-10.04658002572276
20
118.29781024639966
10
-15.46349986770088
20
107.87406970450843
10
-16.57918899394789
20
102.58181374199381
10
-15.108441775139536
20
98.11699926258086
10
-11.315254936020871
20
96.10354251242097
10
-5.960781091089141
20
96.20629971296606
10
5.123812481618917
20
99.51192339956965
10
7.788338236755195
20
104.20762829982908
10
7.705732326315389
20
110.07938400668041
10
4.353181817800394
20
119.74414617268324
10
1.4992857225666039
20
123.2413693727197
10
-2.690285776371893
20
124.88141012765021
0
LWPOLYLINE
5
105
100
AcDbEntity
8
0
100
AcDbPolyline
90
15
43
0.0
10
3.0034879859217156
20
89.89220536420841
10
-3.2828603584754084
20
88.10315615336816
10
-8.249762286486023
20
84.58317793345664
10
-10.59281367839437
20
79.89579932981954
10
-10.975115681550331
20
73.05608279719799
10
-10.587302068061724
20
64.66215017355957
10
-8.588646450537441
20
59.37075714927469
10
-5.769235614017224
20
55.59701724910108
10
-1.7760472052149057
20
55.835153371876224
10
8.972354176816506
20
65.53652864146551
10
14.099331071775207
20
76.26567616212557
10
14.769368192446004
20
82.39497416422135
10
13.564997215929745
20
87.89006437994325
10
9.248818286942445
20
90.17204989788944
10
3.0034879859217147
20
89.8922053642084
0
LWPOLYLINE
5
106
100
AcDbEntity
8
0
100
AcDbPolyline
90
16
43
0.0
10
17.701738173207993
20
60.86781258931397
10
12.353078434335174
20
58.65576315088872
10
8.064731026587992
20
53.608084658772356
10
1.5467886737236065
20
42.67216668057874
10
-1.9499420585823575
20
36.21411176616134
10
-2.987464349273439
20
29.325361627738975
10
-0.3443658160846933
20
24.025576939400068
10
2.7671171722784504
20
21.273094855516224
10
7.216230492421661
20
22.95365235346534
10
13.898581500960693
20
26.55145753616412
10
20.809145810511218
20
30.313489610829272
10
25.414043384071245
20
34.78593005679714
10
26.994477837979993
20
40.64882211508406
10
26.624226946158693
20
48.48013106166359
10
23.354636371821307
20
56.66945903920341
10
17.701738173207993
20
60.86781258931398
0
LWPOLYLINE
5
107
100
AcDbEntity
8
0
100
AcDbPolyline
90
14
43
0.0
10
33.88841875920681
20
25.145483020213117
10
24.640347438585785
20
23.660942937663272
10
18.197898060246338
20
20.192259573458674
10
10.120482231256954
20
14.602575027265125
10
4.003725979952233
20
9.004587456574438
10
2.8600001767902987
20
4.528387311322803
10
6.35174573121639
20
0.17734704830389236
10
12.55517180078039
20
-3.3551150719888327
10
26.888064701435628
20
-4.300613803554045
10
37.8380764270192
20
-0.08280491716394757
10
40.33947334433201
20
4.9988820048726605
10
40.341080305105145
20
12.679921017437254
10
37.93702792125926
20
20.575120831453326
10
33.88841875920681
20
25.145483020213117
0
LWPOLYLINE
5
108
100
AcDbEntity
8
0
100
AcDbPolyline
90
14
43
0.0
10
51.649114491844124
20
8.676000658458918
10
47.73319461088949
20
7.188234703713887
10
46.141698566616704
20
3.025235324202408
10
47.35281391693574
20
-8.425913373508292
10
50.84131924960266
20
-20.41250251457921
10
53.0373559314816
20
-25.598334500317847
10
56.50055496733217
20
-28.844105965240498
10
61.00832665156778
20
-28.093131010405784
10
65.46685053717859
20
-22.53870473988466
10
70.65924114507496
20
-7.400815963100015
10
69.52933510937373
20
-2.115634551780278
10
64.91284235464899
20
2.5438661911096183
10
58.034094758577886
20
6.715009439812916
10
51.649114491844124
20
8.676000658458918
0
LWPOLYLINE
5
109
100
AcDbEntity
8
0
100
AcDbPolyline
90
13
43
0.0
10
73.95324401655147
20
-21.61541849333956
10
79.1803156490565
20
-16.05059005159231
10
82.57492719719853
20
-15.367660877353133
10
86.56766207535644
20
-17.482111481030962
10
94.99193418388501
20
-29.06519729545347
10
98.12818063842703
20
-35.39058877947241
10
98.94247437622451
20
-40.239040703395425
10
96.33594880085529
20
-43.1006850466855
10
90.52335779215338
20
-43.885980684054985
10
76.35903099821107
20
-39.87633970525156
10
71.87351982244338
20
-35.75151414139664
10
70.44302638210287
20
-30.87197056146785
10
73.95324401655147
20
-21.615418493339558
0
LWPOLYLINE
5
110
100
AcDbEntity
8
0
100
AcDbPolyline
90
14
43
0.0
10
105.45029179130712
20
-39.549144259827216
10
105.82599586180062
20
-33.4474809057969
10
108.47495805200634
20
-31.14568219913599
10
114.75655063579102
20
-31.640055661741755
10
123.492708028734
20
-35.46355577145142
10
131.52432908989158
20
-41.31776529960328
10
135.70158807127729
20
-47.269277264458836
10
134.8248319479849
20
-51.93942934596256
10
130.20216358631473
20
-55.01011003116359
10
124.02727022149844
20
-56.65969190847966
10
112.68785861152733
20
-55.87569876234461
10
108.87793465896877
20
-53.15795588242144
10
106.63951928544154
20
-48.86148807406865
10
105.45029179130712
20
-39.549144259827216
0
LWPOLYLINE
5
111
100
AcDbEntity
8
0
100
AcDbPolyline
90
13
43
0.0
10
93.99681987321416
20
-61.55186662879528
10
98.30240124331391
20
-58.14189301470391
10
102.09980872809236
20
-58.90485526896141
10
107.70929495205132
20
-62.12656795407641
10
118.8337891533173
20
-72.73896695673066
10
120.95394146178386
20
-77.66306001749538
10
119.67946641241333
20
-81.18984080263168
10
115.54872172453813
20
-83.08916804408292
10
109.84443273625739
20
-83.42483432814434
10
98.00747508844672
20
-79.07266660834992
10
93.60023524642148
20
-74.54462255060317
10
91.52432173285196
20
-69.48037501563202
10
93.99681987321416
20
-61.55186662879528
0
LWPOLYLINE
5
112
100
AcDbEntity
8
0
100
AcDbPolyline
90
14
43
0.0
10
60.842032741892446
20
-48.44065535413625
10
53.787392423203414
20
-54.92977541665875
10
51.70997066269553
20
-58.72540052612573
10
51.93489176678952
20
-63.52101433735755
10
54.68679237003571
20
-67.56702763976212
10
59.33023420167842
20
-69.35881096605479
10
71.64804143882091
20
-68.88553057802807
10
83.47291379996872
20
-63.28105563001696
10
86.14452678771632
20
-58.837946009691514
10
84.90818885818233
20
-54.465551105618225
10
79.84314347279401
20
-50.96418394443056
10
72.81409887115404
20
-48.5341281260427
10
66.09052943889938
20
-47.44561665274551
10
60.84203274189246
20
-48.44065535413625
0
LWPOLYLINE
5
113
100
AcDbEntity
8
0
100
AcDbPolyline
90
14
43
0.0
10
34.16749945896535
20
-21.615418493339565
10
37.593435956450406
20
-21.49977038229797
10
41.2536013450166
20
-25.38466842183783
10
48.70686842143411
20
-38.04744768876335
10
50.17701373498533
20
-43.52306313533881
10
48.73073758348095
20
-48.37401261628501
10
38.961683345566684
20
-58.136817016081615
10
33.32548307991397
20
-61.55604653274637
10
29.023495795740722
20
-61.434096369096636
10
26.590675675894644
20
-56.657793660078255
10
25.638629015350194
20
-48.64350160945353
10
27.42980666320457
20
-31.674602511136865
10
30.52082120524876
20
-25.333528333868216
10
34.16749945896535
20
-21.61541849333957
0
LWPOLYLINE
5
114
100
AcDbEntity
8
0
100
AcDbPolyline
90
13
43
0.0
10
135.1539431355082
20
-116.96237347140435
10
127.56784523242911
20
-104.20437226056215
10
122.59761645426816
20
-97.80206490902367
10
115.25700667706332
20
-92.47228536976685
10
99.29750286961112
20
-87.34189743869757
10
80.52441046388014
20
-85.09178205696153
10
60.362933678625524
20
-80.1060518688907
10
50.44501419018856
20
-76.92905569425933
10
42.576147266631494
20
-73.3290122047486
10
36.40824640852306
20
-70.32857610010775
10
28.895070837474428
20
-70.18291983408255
10
20.972742067465173
20
-73.57622181266409
10
15.968357710147515
20
-79.88419407810215
0
LINE
5
115
100
AcDbEntity
8
0
100
AcDbLine
10
2.5935886980572862
20
-41.388046595472744
30
0
11
14.139112051628093
21
-44.659268155097116
31
0
0
LINE
5
116
100
AcDbEntity
8
0
100
AcDbLine
10
2.5935886980572862
20
-41.388046595472744
30
0
11
-10.060164157593317
21
-86.048488097943888
31
0
0
LINE
5
117
100
AcDbEntity
8
0
100
AcDbLine
10
14.139112051628093
20
-44.659268155097116
30
0
11
0.81706310333965804
21
-91.678409000921846
31
0
0
LINE
5
118
100
AcDbEntity
8
0
100
AcDbLine
10
133.16060088179719
20
-86.627049806071426
30
0
11
144.60070758600611
21
-83.00434934973859
31
0
0
LINE
5
119
100
AcDbEntity
8
0
100
AcDbLine
10
133.16060088179719
20
-86.627049806071426
30
0
11
145.10378463104777
21
-124.34236690896795
31
0
0
LINE
5
120
100
AcDbEntity
8
0
100
AcDbLine
10
144.60070758600611
20
-83.00434934973859
30
0
11
156.86810541090549
21
-121.7435003757366
31
0
0
ARC
5
121
100
AcDbEntity
8
0
100
AcDbCircle
10
1.5341060868114198
20
-76.970479133862682
30
0
40
14.725398076187037
100
AcDbArc
50
172.48060342625897
51
218.06001075079863
0
ARC
5
122
100
AcDbEntity
8
0
100
AcDbCircle
10
1.5341060868114198
20
-76.970479133862682
30
0
40
14.725398181865136
100
AcDbArc
50
267.20891827223562
51
348.5875684762396
0
ARC
5
123
100
AcDbEntity
8
0
100
AcDbCircle
10
148.08748039582551
20
-109.92241853188574
30
0
40
14.725398181864849
100
AcDbArc
50
208.56024073401196
51
258.30964713343678
0
ARC
5
124
100
AcDbEntity
8
0
100
AcDbCircle
10
148.08748039582551
20
-109.92241853188574
30
0
40
14.725398181864843
100
AcDbArc
50
-53.395267979453472
51
7.3644604623615049
0
ARC
5
125
100
AcDbEntity
8
0
100
AcDbCircle
10
-29.832249010285263
20
228.54891841879254
30
0
40
14.725398522503831
100
AcDbArc
50
11.712968996702884
51
199.07417482572637
0
CIRCLE
5
126
100
AcDbEntity
8
0
100
AcDbCircle
10
-30
20
220
30
0
40
3.0000000000000044
0
ARC
5
127
100
AcDbEntity
8
0
100
AcDbCircle
10
1.7756891704420161
20
-44.274759685625199
30
0
40
3.0003453304796195
100
AcDbArc
50
74.180852253528485
51
254.18085225352846
0
ARC
5
128
100
AcDbEntity
8
0
100
AcDbCircle
10
13.32121252401282
20
-47.545981245249571
30
0
40
3.0003453304796195
100
AcDbArc
50
-105.8191477464715
51
74.180852253528442
0
ARC
5
129
100
AcDbEntity
8
0
100
AcDbCircle
10
134.0662759958804
20
-89.487076482123641
30
0
40
2.9999999999999987
100
AcDbArc
50
107.57125877832256
51
287.57125877832243
0
ARC
5
130
100
AcDbEntity
8
0
100
AcDbCircle
10
145.50638270008935
20
-85.864376025790818
30
0
40
3.0000000000000049
100
AcDbArc
50
-72.428741221678095
51
107.571258778323
0
ENDSEC
0
SECTION
2
OBJECTS
0
DICTIONARY
5
C
100
AcDbDictionary
3
ACAD_GROUP
350
D
3
ACAD_MLINESTYLE
350
17
0
DICTIONARY
5
D
100
AcDbDictionary
0
DICTIONARY
5
1A
330
C
100
AcDbDictionary
0
DICTIONARY
5
17
100
AcDbDictionary
0
ENDSEC
0
EOF
