0
SECTION
2
HEADER
9
$INSUNITS
70
4
9
$ACADVER
1
AC1014
9
$HANDSEED
5
FFFF
0
ENDSEC
0
SECTION
2
TABLES
0
TABLE
2
VPORT
5
8
100
AcDbSymbolTable
0
ENDTAB
0
TABLE
2
LTYPE
5
5
100
AcDbSymbolTable
0
LTYPE
5
14
100
AcDbSymbolTableRecord
100
AcDbLinetypeTableRecord
2
BYBLOCK
70
0
0
LTYPE
5
15
100
AcDbSymbolTableRecord
100
AcDbLinetypeTableRecord
2
BYLAYER
70
0
0
ENDTAB
0
TABLE
2
LAYER
5
2
100
AcDbSymbolTable
70
2
0
LAYER
5
50
100
AcDbSymbolTableRecord
100
AcDbLayerTableRecord
2
0
70
0
6
CONTINUOUS
0
ENDTAB
0
TABLE
2
STYLE
5
3
100
AcDbSymbolTable
70
1
0
STYLE
5
11
100
AcDbSymbolTableRecord
100
AcDbTextStyleTableRecord
2
STANDARD
70
0
0
ENDTAB
0
TABLE
2
VIEW
5
6
100
AcDbSymbolTable
70
0
0
ENDTAB
0
TABLE
2
UCS
5
7
100
AcDbSymbolTable
70
0
0
ENDTAB
0
TABLE
2
APPID
5
9
100
AcDbSymbolTable
70
2
0
APPID
5
12
100
AcDbSymbolTableRecord
100
AcDbRegAppTableRecord
2
ACAD
70
0
0
ENDTAB
0
TABLE
2
DIMSTYLE
5
A
100
AcDbSymbolTable
70
1
0
ENDTAB
0
TABLE
2
BLOCK_RECORD
5
1
100
AcDbSymbolTable
70
1
0
BLOCK_RECORD
5
1F
100
AcDbSymbolTableRecord
100
AcDbBlockTableRecord
2
*MODEL_SPACE
0
BLOCK_RECORD
5
1B
100
AcDbSymbolTableRecord
100
AcDbBlockTableRecord
2
*PAPER_SPACE
0
ENDTAB
0
ENDSEC
0
SECTION
2
BLOCKS
0
BLOCK
5
20
100
AcDbEntity
100
AcDbBlockBegin
2
*MODEL_SPACE
0
ENDBLK
5
21
100
AcDbEntity
100
AcDbBlockEnd
0
BLOCK
5
1C
100
AcDbEntity
100
AcDbBlockBegin
2
*PAPER_SPACE
0
ENDBLK
5
1D
100
AcDbEntity
100
AcDbBlockEnd
0
ENDSEC
0
SECTION
2
ENTITIES
0
ARC
5
100
100
AcDbEntity
8
0
100
AcDbCircle
10
517.11864144768504
20
100.75495227003361
30
1.7763568394002489e-14
40
14.725398181865078
210
0
220
0
230
1
100
AcDbArc
50
219.97413425573228
51
269.72354065515691
0
SPLINE
5
101
100
AcDbEntity
8
0
100
AcDbSpline
70
4
71
5
72
61
73
55
74
0
42
0.000000001
43
0.0000000001
44
0.0000000001
40
-1
40
-1
40
-1
40
-1
40
-1
40
-1
40
-0.98000000000000043
40
-0.96000000000000041
40
-0.94000000000000039
40
-0.92000000000000037
40
-0.90000000000000036
40
-0.88000000000000034
40
-0.86000000000000032
40
-0.8400000000000003
40
-0.8200000000000004
40
-0.80000000000000027
40
-0.78000000000000025
40
-0.76000000000000034
40
-0.74000000000000032
40
-0.72000000000000031
40
-0.70000000000000018
40
-0.68000000000000016
40
-0.66000000000000025
40
-0.64000000000000024
40
-0.62000000000000022
40
-0.6000000000000002
40
-0.58000000000000018
40
-0.56000000000000016
40
-0.54000000000000015
40
-0.52000000000000013
40
-0.50000000000000011
40
-0.4800000000000002
40
-0.46000000000000008
40
-0.44000000000000011
40
-0.4200000000000001
40
-0.40000000000000008
40
-0.38000000000000012
40
-0.36000000000000004
40
-0.34000000000000002
40
-0.32000000000000001
40
-0.29999999999999999
40
-0.28000000000000003
40
-0.25999999999999995
40
-0.23999999999999999
40
-0.22
40
-0.20000000000000001
40
-0.17999999999999999
40
-0.16
40
-0.14000000000000001
40
-0.12
40
-0.10000000000000001
40
-0.080000000000000002
40
-0.059999999999999998
40
-0.040000000000000001
40
-0.02
40
0
40
0
40
0
40
0
40
0
40
0
41
1
41
1
41
1
41
1
41
1
41
1
41
1
41
1
41
1
41
1
41
1
41
1
41
1
41
1
41
1
41
1
41
1
41
1
41
1
41
1
41
1
41
1
41
1
41
1
41
1
41
1
41
1
41
1
41
1
41
1
41
1
41
1
41
1
41
1
41
1
41
1
41
1
41
1
41
1
41
1
41
1
41
1
41
1
41
1
41
1
41
1
41
1
41
1
41
1
41
1
41
1
41
1
41
1
41
1
41
1
10
795.33397647360516
20
79.237515585584617
30
0
10
795.20805671629262
20
79.486642528798967
30
1.7763568394002501e-14
10
794.91814149456764
20
79.967493867899748
30
1.7763568394002501e-14
10
794.37303537841535
20
80.633121815560855
30
1.7763568394002501e-14
10
793.45534021201024
20
81.397575288112023
30
0
10
792.10159059188959
20
82.130482796306865
30
0
10
790.65814440424697
20
82.637051793422671
30
0
10
789.21919030562208
20
82.928762548593085
30
0
10
787.81820094224963
20
83.035731882715879
30
0
10
786.43159219877703
20
83.00079179113925
30
0
10
785.00943359160658
20
82.867214062753547
30
0
10
783.49697175694598
20
82.668950651460378
30
1.7763568394002501e-14
10
781.86210644173127
20
82.418478462668006
30
1.7763568394002501e-14
10
780.11370591164223
20
82.099711775859447
30
1.7763568394002501e-14
10
778.28991819029272
20
81.679773084705516
30
1.7763568394002501e-14
10
776.45092364529535
20
81.117758120069112
30
0
10
774.66998085150431
20
80.374990822487078
30
0
10
773.02535579927974
20
79.423854112171242
30
0
10
771.59159923965649
20
78.259293540590164
30
0
10
770.43311497098284
20
76.896390930761584
30
0
10
769.59867623583864
20
75.363525295877423
30
0
10
769.11505261675427
20
73.696808847125254
30
0
10
768.98214647507973
20
71.934527083636482
30
1.7763568394002501e-14
10
769.16442116339499
20
70.110339249416256
30
0
10
769.5965400744318
20
68.252349395436099
30
0
10
770.20045034776115
20
66.38703190626768
30
1.7763568394002501e-14
10
770.89892570521556
20
64.541699642941708
30
0
10
771.63101141818788
20
62.747686994939336
30
0
10
772.36560732379428
20
61.042967058531787
30
0
10
773.1187843422573
20
59.475739160768569
30
1.7763568394002501e-14
10
773.93718902990497
20
58.09958156613115
30
0
10
774.87661790232141
20
56.967424901804463
30
0
10
775.98265410536908
20
56.125985695998409
30
1.7763568394002501e-14
10
777.2696806570774
20
55.609877642907236
30
0
10
778.70258207195786
20
55.436139026559232
30
1.7763568394002501e-14
10
780.21705583259791
20
55.605537863876421
30
1.7763568394002501e-14
10
781.73871963995089
20
56.103358216897149
30
0
10
783.20107512807294
20
56.900623094480324
30
1.7763568394002501e-14
10
784.56782171076202
20
57.9543541637115
30
0
10
785.83222627895202
20
59.212137259373335
30
0
10
787.00647901483535
20
60.618404870028627
30
1.7763568394002501e-14
10
788.11418992045014
20
62.120376098699815
30
0
10
789.18190401981201
20
63.673640588180447
30
0
10
790.23036836368078
20
65.249105687228393
30
1.7763568394002501e-14
10
791.26814891792787
20
66.835435903014726
30
1.7763568394002501e-14
10
792.29084158833712
20
68.43131336045947
30
1.7763568394002501e-14
10
793.27932941072481
20
70.03994990392232
30
0
10
794.19786889483817
20
71.662420410280774
30
0
10
794.99339245712895
20
73.292184696029381
30
0
10
795.59124739098081
20
74.907351427455424
30
0
10
795.90717139556205
20
76.472393407033138
30
-1.7763568394002501e-14
10
795.87608479064238
20
77.650481334973335
30
1.7763568394002501e-14
10
795.6736600384429
20
78.472732208613522
30
1.7763568394002501e-14
10
795.45989623091771
20
78.988388642370239
30
1.7763568394002501e-14
10
795.33397647360516
20
79.237515585584617
30
0
0
ARC
5
102
100
AcDbEntity
8
0
100
AcDbCircle
10
635.9055580747638
20
11.634610468051136
30
0
40
3.0003453304795324
210
0
220
-0
230
1
100
AcDbArc
50
44.102929135639833
51
224.10292913563578
0
LINE
5
103
100
AcDbEntity
8
0
100
AcDbLine
10
538.810315280091
20
97.533135192330903
30
-1.0408340855860844e-17
11
505.83406010802571
21
91.294742145354192
31
1.7763568394002489e-14
0
SPLINE
5
104
100
AcDbEntity
8
0
100
AcDbSpline
70
4
71
5
72
61
73
55
74
0
42
0.000000001
43
0.0000000001
44
0.0000000001
40
-1
40
-1
40
-1
40
-1
40
-1
40
-1
40
-0.98000000000000043
40
-0.96000000000000041
40
-0.94000000000000039
40
-0.92000000000000037
40
-0.90000000000000036
40
-0.88000000000000034
40
-0.86000000000000032
40
-0.8400000000000003
40
-0.8200000000000004
40
-0.80000000000000027
40
-0.78000000000000025
40
-0.76000000000000034
40
-0.74000000000000032
40
-0.72000000000000031
40
-0.70000000000000018
40
-0.68000000000000016
40
-0.66000000000000025
40
-0.64000000000000024
40
-0.62000000000000022
40
-0.6000000000000002
40
-0.58000000000000018
40
-0.56000000000000016
40
-0.54000000000000015
40
-0.52000000000000013
40
-0.50000000000000011
40
-0.4800000000000002
40
-0.46000000000000008
40
-0.44000000000000011
40
-0.4200000000000001
40
-0.40000000000000008
40
-0.38000000000000012
40
-0.36000000000000004
40
-0.34000000000000002
40
-0.32000000000000001
40
-0.29999999999999999
40
-0.28000000000000003
40
-0.25999999999999995
40
-0.23999999999999999
40
-0.22
40
-0.20000000000000001
40
-0.17999999999999999
40
-0.16
40
-0.14000000000000001
40
-0.12
40
-0.10000000000000001
40
-0.080000000000000002
40
-0.059999999999999998
40
-0.040000000000000001
40
-0.02
40
0
40
0
40
0
40
0
40
0
40
0
41
1
41
1
41
1
41
1
41
1
41
1
41
1
41
1
41
1
41
1
41
1
41
1
41
1
41
1
41
1
41
1
41
1
41
1
41
1
41
1
41
1
41
1
41
1
41
1
41
1
41
1
41
1
41
1
41
1
41
1
41
1
41
1
41
1
41
1
41
1
41
1
41
1
41
1
41
1
41
1
41
1
41
1
41
1
41
1
41
1
41
1
41
1
41
1
41
1
41
1
41
1
41
1
41
1
41
1
41
1
10
690.17295522271206
20
64.190376623296501
30
1.7763568394002501e-14
10
689.91657020911543
20
64.37839652791375
30
0
10
689.36216911147517
20
64.726722210135819
30
1.7763568394002501e-14
10
688.4026025603298
20
65.159825794516991
30
0
10
686.86980310983188
20
65.541119245546071
30
0
10
684.59469014236424
20
65.677828042403235
30
1.7763568394002501e-14
10
682.06387140487868
20
65.485841201150379
30
0
10
679.40385015916354
20
64.993756679460191
30
1.7763568394002501e-14
10
676.74821576093314
20
64.241198649120932
30
0
10
674.21918794158637
20
63.271831089442436
30
1.7763568394002501e-14
10
671.91970291480106
20
62.12901136887286
30
1.7763568394002501e-14
10
669.93176174955329
20
60.852984500435319
30
1.7763568394002501e-14
10
668.31285869913188
20
59.477634660857611
30
0
10
667.09304156884843
20
58.02735210835565
30
1.7763568394002501e-14
10
666.27182715448521
20
56.513963535269561
30
0
10
665.81450320024737
20
54.933235300773845
30
0
10
665.66488861715015
20
53.271820782293645
30
0
10
665.75935392742394
20
51.514994889159937
30
0
10
666.03953698088071
20
49.653611486920127
30
1.7763568394002501e-14
10
666.46764291740851
20
47.692621668781456
30
1.7763568394002501e-14
10
667.02552865716302
20
45.649915848195938
30
0
10
667.70970737986772
20
43.552784607349324
30
1.7763568394002501e-14
10
668.52781329512254
20
41.435152706352945
30
0
10
669.49439745173993
20
39.33465412486121
30
-1.7763568394002501e-14
10
670.62724754298051
20
37.28943334561982
30
1.7763568394002501e-14
10
671.94248336478324
20
35.336683618238496
30
0
10
673.44888365927363
20
33.512397299786201
30
0
10
675.14251222338976
20
31.850767551394664
30
1.7763568394002501e-14
10
677.00097356865876
20
30.383679585396315
30
1.7763568394002501e-14
10
678.97826972966482
20
29.140262611193364
30
0
10
680.99800195663659
20
28.146108538905075
30
1.7763568394002501e-14
10
682.96831821924354
20
27.427297361781633
30
1.7763568394002501e-14
10
684.79884745977006
20
27.014872664153003
30
0
10
686.41685105282772
20
26.949141560807433
30
1.7763568394002501e-14
10
687.78388785740776
20
27.284102630783032
30
1.7763568394002501e-14
10
688.91191004987047
20
28.091667576966451
30
-1.7763568394002501e-14
10
689.84256544899085
20
29.435128083784129
30
0
10
690.6283126989315
20
31.345245289822515
30
0
10
691.31069676192328
20
33.791036970622244
30
0
10
691.90666643223108
20
36.665763204614031
30
1.7763568394002501e-14
10
692.41759887509704
20
39.816342688294981
30
0
10
692.83427911581146
20
43.065005627371093
30
1.7763568394002501e-14
10
693.14332938361429
20
46.233608194072168
30
1.7763568394002501e-14
10
693.3332738018089
20
49.167499707099452
30
0
10
693.40013925657229
20
51.75796810223035
30
0
10
693.35476751207227
20
53.969387275344673
30
1.7763568394002501e-14
10
693.22494915683751
20
55.852498321236872
30
-1.7763568394002501e-14
10
693.03759192466009
20
57.501780587680862
30
1.7763568394002501e-14
10
692.80237950621256
20
59.019183874152901
30
0
10
692.49780651629703
20
60.479459535549871
30
0
10
692.04869827080711
20
61.884763784944646
30
1.7763568394002501e-14
10
691.48536611017551
20
62.916072054919283
30
1.7763568394002501e-14
10
690.90047919305562
20
63.598602782432287
30
0
10
690.4293402363088
20
64.002356718679323
30
1.7763568394002501e-14
10
690.17295522271206
20
64.190376623296501
30
1.7763568394002501e-14
0
SPLINE
5
105
100
AcDbEntity
8
0
100
AcDbSpline
70
4
71
5
72
56
73
50
74
0
42
0.000000001
43
0.0000000001
44
0.0000000001
40
-1
40
-1
40
-1
40
-1
40
-1
40
-1
40
-0.97777777777777797
40
-0.95555555555555605
40
-0.93333333333333379
40
-0.91111111111111143
40
-0.88888888888888906
40
-0.86666666666666692
40
-0.84444444444444455
40
-0.82222222222222241
40
-0.80000000000000016
40
-0.7777777777777779
40
-0.75555555555555554
40
-0.73333333333333339
40
-0.71111111111111125
40
-0.68888888888888888
40
-0.66666666666666663
40
-0.64444444444444438
40
-0.62222222222222212
40
-0.59999999999999987
40
-0.57777777777777761
40
-0.55555555555555536
40
-0.5333333333333331
40
-0.51111111111111085
40
-0.48888888888888871
40
-0.46666666666666651
40
-0.44444444444444425
40
-0.42222222222222211
40
-0.39999999999999991
40
-0.37777777777777771
40
-0.35555555555555546
40
-0.33333333333333331
40
-0.31111111111111106
40
-0.28888888888888892
40
-0.26666666666666666
40
-0.24444444444444449
40
-0.22222222222222224
40
-0.20000000000000001
40
-0.17777777777777778
40
-0.15555555555555556
40
-0.13333333333333333
40
-0.11111111111111112
40
-0.088888888888888906
40
-0.066666666666666666
40
-0.044444444444444453
40
-0.022222222222222227
40
0
40
0
40
0
40
0
40
0
40
0
41
1
41
1
41
1
41
1
41
1
41
1
41
1
41
1
41
1
41
1
41
1
41
1
41
1
41
1
41
1
41
1
41
1
41
1
41
1
41
1
41
1
41
1
41
1
41
1
41
1
41
1
41
1
41
1
41
1
41
1
41
1
41
1
41
1
41
1
41
1
41
1
41
1
41
1
41
1
41
1
41
1
41
1
41
1
41
1
41
1
41
1
41
1
41
1
41
1
41
1
10
612.60048195950742
20
53.058060628597133
30
0
10
612.58585926744843
20
53.410613629806683
30
1.7763568394002501e-14
10
612.52369290509967
20
54.118442223429398
30
1.7763568394002501e-14
10
612.32580456482594
20
55.188731261708533
30
1.7763568394002501e-14
10
611.83908013234054
20
56.636333126241105
30
1.7763568394002501e-14
10
610.86503445683002
20
58.490612904791917
30
0
10
609.56108140908918
20
60.394491332375786
30
1.7763568394002501e-14
10
607.98294618692046
20
62.338868008723189
30
0
10
606.19707650575515
20
64.293914513356
30
0
10
604.26979916384983
20
66.198665860848919
30
1.7763568394002501e-14
10
602.26265406424591
20
67.963977132918913
30
0
10
600.23344172973702
20
69.487984952489143
30
0
10
598.23566953004297
20
70.667820690133198
30
0
10
596.31866380513327
20
71.41337883288783
30
1.7763568394002501e-14
10
594.52732980973667
20
71.659032184042658
30
0
10
592.90217244041708
20
71.379299784485482
30
1.7763568394002501e-14
10
591.47871119257013
20
70.592005764286526
30
1.7763568394002501e-14
10
590.28613248404372
20
69.344962799662454
30
0
10
589.34617852574218
20
67.707115117722964
30
0
10
588.67173799816953
20
65.757440047713757
30
1.7763568394002501e-14
10
588.26604848352497
20
63.57653308457926
30
0
10
588.12364584199747
20
61.243633006965723
30
0
10
588.23102994891394
20
58.832895689145168
30
0
10
588.56729297472702
20
56.409714381272167
30
1.7763568394002501e-14
10
589.10497996259426
20
54.027547598515547
30
0
10
589.81019082453474
20
51.723139814503199
30
0
10
590.64542027266441
20
49.517620353805512
30
0
10
591.57560785802184
20
47.424198476371672
30
0
10
592.5730502349852
20
45.453869866272015
30
0
10
593.62341154466753
20
43.622367840215844
30
0
10
594.72986572871218
20
41.955538438540387
30
0
10
595.92172640814897
20
40.498065868409149
30
0
10
597.24283015579385
20
39.307423526240783
30
0
10
598.72896042092975
20
38.439983556554708
30
0
10
600.38922857090404
20
37.939776832597389
30
1.7763568394002501e-14
10
602.18447285732191
20
37.825622476008419
30
1.7763568394002501e-14
10
604.0102710334495
20
38.080230423883911
30
0
10
605.73471025042647
20
38.662163470776029
30
0
10
607.23542804128817
20
39.516930455056269
30
0
10
608.43227067406474
20
40.587500171764781
30
0
10
609.33337150257046
20
41.827081476004288
30
0
10
610.02194378940248
20
43.201378408134673
30
1.7763568394002501e-14
10
610.60250685074629
20
44.683903196445428
30
0
10
611.16393123834848
20
46.253714342045441
30
0
10
611.72503565722457
20
47.891446265135912
30
1.7763568394002501e-14
10
612.22946500799867
20
49.578966864724777
30
0
10
612.51302859366911
20
50.957338498715153
30
0
10
612.61142905745271
20
52.003124216172061
30
1.7763568394002501e-14
10
612.61510465156584
20
52.70550762738776
30
1.7763568394002501e-14
10
612.60048195950742
20
53.058060628597133
30
0
0
SPLINE
5
106
100
AcDbEntity
8
0
100
AcDbSpline
70
4
71
5
72
46
73
40
74
0
42
0.000000001
43
0.0000000001
44
0.0000000001
40
0
40
0
40
0
40
0
40
0
40
0
40
0.028571428571428567
40
0.057142857142857134
40
0.085714285714285715
40
0.11428571428571427
40
0.14285714285714285
40
0.17142857142857146
40
0.20000000000000001
40
0.22857142857142854
40
0.25714285714285717
40
0.2857142857142857
40
0.31428571428571433
40
0.34285714285714292
40
0.3714285714285715
40
0.40000000000000008
40
0.42857142857142871
40
0.4571428571428573
40
0.48571428571428582
40
0.51428571428571435
40
0.54285714285714293
40
0.57142857142857151
40
0.60000000000000009
40
0.62857142857142867
40
0.65714285714285725
40
0.68571428571428583
40
0.71428571428571441
40
0.74285714285714299
40
0.77142857142857146
40
0.80000000000000016
40
0.82857142857142863
40
0.85714285714285732
40
0.8857142857142859
40
0.91428571428571459
40
0.94285714285714295
40
0.97142857142857164
40
1
40
1
40
1
40
1
40
1
40
1
41
1
41
1
41
1
41
1
41
1
41
1
41
1
41
1
41
1
41
1
41
1
41
1
41
1
41
1
41
1
41
1
41
1
41
1
41
1
41
1
41
1
41
1
41
1
41
1
41
1
41
1
41
1
41
1
41
1
41
1
41
1
41
1
41
1
41
1
41
1
41
1
41
1
41
1
41
1
41
1
10
599.29331818696062
20
96.553751648404216
30
1.7763568394002501e-14
10
599.58877144405187
20
96.69912182012186
30
1.7763568394002501e-14
10
600.15325239067874
20
96.978375622076072
30
0
10
600.92785774340643
20
97.363850128126074
30
1.7763568394002501e-14
10
601.86688929998377
20
97.834670274073147
30
1.7763568394002501e-14
10
603.01175105413154
20
98.470805124827024
30
0
10
604.1624746488244
20
99.298383357394385
30
0
10
605.13133259682206
20
100.44774650976402
30
1.7763568394002501e-14
10
605.5925814508264
20
102.01151817847281
30
0
10
605.21704237971699
20
104.02700580107256
30
1.7763568394002501e-14
10
603.80973962976657
20
106.45069654107166
30
0
10
601.38075383046294
20
109.15328912539552
30
0
10
598.07999535089732
20
111.94980493504274
30
0
10
594.1642353460802
20
114.62147647171844
30
1.7763568394002501e-14
10
589.95169750003242
20
116.94083293789046
30
1.7763568394002501e-14
10
585.78291290581592
20
118.69501957463126
30
0
10
581.97811128513433
20
119.71068387321039
30
0
10
578.79841880044319
20
119.87672851860493
30
1.7763568394002501e-14
10
576.39947218237489
20
119.172460959772
30
0
10
574.80514373451456
20
117.68138664631758
30
0
10
573.95150180004168
20
115.5545028142283
30
0
10
573.72014269547913
20
112.98108237549465
30
0
10
573.97292135560792
20
110.15896161078473
30
0
10
574.59151772244991
20
107.26005882720261
30
-1.7763568394002501e-14
10
575.49153155588101
20
104.41907004664223
30
1.7763568394002501e-14
10
576.61329935762456
20
101.74330273621436
30
0
10
577.91932290057468
20
99.316214358125194
30
0
10
579.38924445423856
20
97.203761030531467
30
1.7763568394002501e-14
10
581.01558304266155
20
95.458523012889373
30
0
10
582.80012060789898
20
94.126844806300269
30
0
10
584.74650559817701
20
93.246045294903894
30
0
10
586.84936973294293
20
92.832678520009637
30
1.7763568394002501e-14
10
589.08352629868909
20
92.87224364075648
30
1.7763568394002501e-14
10
591.39484594547343
20
93.309920351055666
30
0
10
593.68553571271366
20
94.035867981219099
30
0
10
595.83848023398593
20
94.909709713610724
30
0
10
597.36809738740942
20
95.617301212381349
30
1.7763568394002501e-14
10
598.38053284813043
20
96.106154591770377
30
0
10
598.99786492986914
20
96.408381476686628
30
0
10
599.29331818696062
20
96.553751648404216
30
1.7763568394002501e-14
0
LINE
5
107
100
AcDbEntity
8
0
100
AcDbLine
10
502.54825844559656
20
102.88598272193262
30
1.7738023900083317e-14
11
536.57973882114743
21
109.32400151592245
31
1.80411241501588e-14
0
SPLINE
5
108
100
AcDbEntity
8
0
100
AcDbSpline
70
4
71
5
72
56
73
50
74
0
42
0.000000001
43
0.0000000001
44
0.0000000001
40
0
40
0
40
0
40
0
40
0
40
0
40
0.022222222222222227
40
0.044444444444444453
40
0.066666666666666666
40
0.088888888888888906
40
0.11111111111111112
40
0.13333333333333333
40
0.15555555555555556
40
0.17777777777777778
40
0.20000000000000001
40
0.22222222222222224
40
0.24444444444444449
40
0.26666666666666666
40
0.28888888888888892
40
0.31111111111111106
40
0.33333333333333331
40
0.35555555555555546
40
0.37777777777777771
40
0.39999999999999991
40
0.42222222222222211
40
0.44444444444444425
40
0.46666666666666651
40
0.48888888888888871
40
0.51111111111111085
40
0.5333333333333331
40
0.55555555555555536
40
0.57777777777777761
40
0.59999999999999987
40
0.62222222222222212
40
0.64444444444444438
40
0.66666666666666663
40
0.68888888888888888
40
0.71111111111111125
40
0.73333333333333339
40
0.75555555555555554
40
0.7777777777777779
40
0.80000000000000016
40
0.82222222222222241
40
0.84444444444444455
40
0.86666666666666692
40
0.88888888888888906
40
0.91111111111111143
40
0.93333333333333379
40
0.95555555555555605
40
0.97777777777777797
40
1
40
1
40
1
40
1
40
1
40
1
41
1
41
1
41
1
41
1
41
1
41
1
41
1
41
1
41
1
41
1
41
1
41
1
41
1
41
1
41
1
41
1
41
1
41
1
41
1
41
1
41
1
41
1
41
1
41
1
41
1
41
1
41
1
41
1
41
1
41
1
41
1
41
1
41
1
41
1
41
1
41
1
41
1
41
1
41
1
41
1
41
1
41
1
41
1
41
1
41
1
41
1
41
1
41
1
41
1
41
1
10
648.86252747366734
20
42.279001595971792
30
0
10
648.87374191881861
20
42.571244082245691
30
1.7763568394002501e-14
10
648.85828987268712
20
43.12969697352414
30
1.7763568394002501e-14
10
648.71714007803575
20
43.886866825720709
30
0
10
648.27095724467495
20
44.733097690145833
30
0
10
647.23251568387514
20
45.539661660441865
30
0
10
645.69545476600524
20
46.132794360273756
30
0
10
643.70199869424982
20
46.557326280450432
30
0
10
641.33770278001589
20
46.858782211560516
30
1.7763568394002501e-14
10
638.71616255463744
20
47.077118737653329
30
0
10
635.96292712933996
20
47.240100667159865
30
0
10
633.20063057565142
20
47.35754025971228
30
1.7763568394002501e-14
10
630.53153158552539
20
47.413213410059846
30
1.7763568394002501e-14
10
628.03408036931535
20
47.369449015285092
30
0
10
625.76437077352762
20
47.176019228672843
30
0
10
623.75574614199979
20
46.777685822788783
30
0
10
622.01944509985333
20
46.122028646348895
30
0
10
620.54385997901443
20
45.167788147943298
30
1.7763568394002501e-14
10
619.29707533788257
20
43.890989768962015
30
1.7763568394002501e-14
10
618.23700520951843
20
42.285331143868831
30
0
10
617.32007570276357
20
40.363800814550743
30
0
10
616.51032977678244
20
38.159808745366057
30
0
10
615.78872023391011
20
35.728810491081468
30
1.7763568394002501e-14
10
615.15278891934747
20
33.144401616397374
30
0
10
614.615825960591
20
30.494210461877813
30
1.7763568394002501e-14
10
614.2063126550313
20
27.875942963301132
30
0
10
613.96719726224535
20
25.393351387346222
30
1.7763568394002501e-14
10
613.9555139802776
20
23.152389514610988
30
0
10
614.24125352410772
20
21.256927293447006
30
-1.7763568394002501e-14
10
614.8925157787404
20
19.796515749484293
30
0
10
615.96136919312346
20
18.834545602116272
30
1.7763568394002501e-14
10
617.46928358353091
20
18.396058088556039
30
0
10
619.39292659540706
20
18.455860005483395
30
0
10
621.67502609762391
20
18.95398043961324
30
0
10
624.23469959380373
20
19.810415127782818
30
1.7763568394002501e-14
10
626.97808749919511
20
20.94051126900149
30
0
10
629.8083102106433
20
22.268947853701718
30
1.7763568394002501e-14
10
632.63692449210123
20
23.747128245490799
30
0
10
635.38614215494783
20
25.349724793026319
30
0
10
637.98842544107094
20
27.065340403165415
30
0
10
640.38701989843457
20
28.889139548891979
30
0
10
642.53609140025696
20
30.814801659681521
30
0
10
644.40118317843587
20
32.826481648339971
30
1.7763568394002501e-14
10
645.95933800853334
20
34.891403031478838
30
1.7763568394002501e-14
10
647.2000698297179
20
36.950358324387409
30
0
10
648.11881694417161
20
38.928468646525324
30
1.7763568394002501e-14
10
648.59122456851856
20
40.384783472258192
30
0
10
648.79100320177599
20
41.376242055881782
30
0
10
648.85131302851528
20
41.986759109698149
30
0
10
648.86252747366734
20
42.279001595971792
30
0
0
SPLINE
5
109
100
AcDbEntity
8
0
100
AcDbSpline
70
4
71
5
72
96
73
90
74
0
42
0.000000001
43
0.0000000001
44
0.0000000001
40
-1
40
-1
40
-1
40
-1
40
-1
40
-1
40
-0.98823529411764555
40
-0.97647058823529276
40
-0.96470588235293997
40
-0.95294117647058696
40
-0.94117647058823395
40
-0.92941176470588116
40
-0.91764705882352837
40
-0.90588235294117536
40
-0.89411764705882257
40
-0.88235294117646956
40
-0.87058823529411655
40
-0.85882352941176376
40
-0.84705882352941086
40
-0.83529411764705785
40
-0.82352941176470529
40
-0.81176470588235228
40
-0.79999999999999938
40
-0.78823529411764637
40
-0.77647058823529336
40
-0.76470588235294079
40
-0.75294117647058778
40
-0.74117647058823488
40
-0.72941176470588187
40
-0.71764705882352897
40
-0.70588235294117618
40
-0.69411764705882328
40
-0.68235294117647038
40
-0.67058823529411749
40
-0.65882352941176459
40
-0.64705882352941169
40
-0.63529411764705879
40
-0.62352941176470578
40
-0.61176470588235299
40
-0.60000000000000009
40
-0.58823529411764719
40
-0.57647058823529429
40
-0.56470588235294139
40
-0.55294117647058849
40
-0.54117647058823559
40
-0.52941176470588258
40
-0.51764705882352979
40
-0.50588235294117689
40
-0.49411764705882399
40
-0.48235294117647098
40
-0.47058823529411797
40
-0.45882352941176502
40
-0.44705882352941212
40
-0.43529411764705922
40
-0.42352941176470627
40
-0.41176470588235331
40
-0.4000000000000003
40
-0.38823529411764734
40
-0.37647058823529439
40
-0.36470588235294144
40
-0.35294117647058848
40
-0.34117647058823553
40
-0.32941176470588257
40
-0.31764705882352962
40
-0.30588235294117666
40
-0.29411764705882371
40
-0.28235294117647075
40
-0.2705882352941178
40
-0.25882352941176484
40
-0.24705882352941189
40
-0.2352941176470589
40
-0.223529411764706
40
-0.21176470588235305
40
-0.20000000000000007
40
-0.18823529411764711
40
-0.17647058823529416
40
-0.1647058823529412
40
-0.15294117647058825
40
-0.14117647058823526
40
-0.12941176470588234
40
-0.1176470588235294
40
-0.10588235294117647
40
-0.094117647058823528
40
-0.082352941176470573
40
-0.070588235294117646
40
-0.058823529411764712
40
-0.047058823529411764
40
-0.035294117647058823
40
-0.023529411764705882
40
-0.011764705882352941
40
0
40
0
40
0
40
0
40
0
40
0
41
1
41
1
41
1
41
1
41
1
41
1
41
1
41
1
41
1
41
1
41
1
41
1
41
1
41
1
41
1
41
1
41
1
41
1
41
1
41
1
41
1
41
1
41
1
41
1
41
1
41
1
41
1
41
1
41
1
41
1
41
1
41
1
41
1
41
1
41
1
41
1
41
1
41
1
41
1
41
1
41
1
41
1
41
1
41
1
41
1
41
1
41
1
41
1
41
1
41
1
41
1
41
1
41
1
41
1
41
1
41
1
41
1
41
1
41
1
41
1
41
1
41
1
41
1
41
1
41
1
41
1
41
1
41
1
41
1
41
1
41
1
41
1
41
1
41
1
41
1
41
1
41
1
41
1
41
1
41
1
41
1
41
1
41
1
41
1
41
1
41
1
41
1
41
1
41
1
41
1
10
511.86089376731491
20
114.50971293476455
30
0
10
513.52614783664046
20
114.98408721138154
30
0
10
516.76993955195974
20
115.91246533308306
30
0
10
521.37547602550603
20
117.243921049691
30
1.7763568394002501e-14
10
526.99578773495375
20
118.89694635353769
30
1.7763568394002501e-14
10
533.16385788175205
20
120.75975117725611
30
0
10
538.506145100759
20
122.42019754833143
30
1.7763568394002501e-14
10
543.08610870582277
20
123.88068184986361
30
0
10
547.01145000480722
20
125.14548825689951
30
0
10
550.44209379199401
20
126.22099032426661
30
1.7763568394002501e-14
10
553.60880803401233
20
127.11685163821613
30
1.7763568394002501e-14
10
556.79547902923423
20
127.84374369933903
30
1.7763568394002501e-14
10
560.26122530476471
20
128.40478277241613
30
0
10
564.18498519013167
20
128.78990114474138
30
1.7763568394002501e-14
10
568.58262634889229
20
128.96576618923643
30
0
10
573.30625034498712
20
128.88004942438582
30
0
10
578.12360553162887
20
128.47952761780141
30
1.7763568394002501e-14
10
582.77861258225255
20
127.72551573452218
30
0
10
587.05406163124746
20
126.60816018153491
30
1.7763568394002501e-14
10
590.8466885163333
20
125.16666956545069
30
1.7763568394002501e-14
10
594.18924181943407
20
123.48740802993746
30
1.7763568394002501e-14
10
597.19223902795829
20
121.66812906403092
30
0
10
600.00657798509803
20
119.79229659223904
30
1.7763568394002501e-14
10
602.77508070337728
20
117.89521628449091
30
1.7763568394002501e-14
10
605.59676225882436
20
115.94613840213903
30
1.7763568394002501e-14
10
608.52746907700453
20
113.89585401027325
30
-1.7763568394002501e-14
10
611.57711580371677
20
111.71183549559336
30
1.7763568394002501e-14
10
614.70508111226059
20
109.42501213538824
30
1.7763568394002501e-14
10
617.82589155716346
20
107.15080167569931
30
0
10
620.8530397202876
20
105.02940406691594
30
0
10
623.73548988152368
20
103.18030620596866
30
1.7763568394002501e-14
10
626.49895163801511
20
101.64922549107624
30
0
10
629.27975126106514
20
100.36395344132961
30
0
10
632.25654912098003
20
99.195421609701114
30
0
10
635.59381199823031
20
98.007418624742328
30
0
10
639.36910242960982
20
96.721405156008046
30
0
10
643.54896535709486
20
95.336472267112555
30
1.7763568394002501e-14
10
648.0282306017059
20
93.891674188344012
30
1.7763568394002501e-14
10
652.65404100049045
20
92.441185500540115
30
1.7763568394002501e-14
10
657.25510687818451
20
91.027326652312652
30
1.7763568394002501e-14
10
661.67089753214304
20
89.647121120519344
30
0
10
665.772505312563
20
88.24923750540097
30
0
10
669.47121054827846
20
86.767869725623612
30
1.7763568394002501e-14
10
672.73107891458324
20
85.148152801253673
30
0
10
675.57834656810564
20
83.372502977611006
30
0
10
678.11639645148648
20
81.493081158105184
30
1.7763568394002501e-14
10
680.5075596468796
20
79.614021430419243
30
0
10
682.94689042818436
20
77.861453669795026
30
1.7763568394002501e-14
10
685.63830158267149
20
76.355808459368731
30
0
10
688.77081813793734
20
75.188873718914152
30
1.7763568394002501e-14
10
692.49805139319892
20
74.424081971339248
30
0
10
696.91846690921227
20
74.09316794533359
30
0
10
702.05212274228427
20
74.193394689163824
30
0
10
707.82860154266336
20
74.687081586309489
30
1.7763568394002501e-14
10
714.1121802007417
20
75.511225087435662
30
0
10
720.72075006314901
20
76.585359966426111
30
1.7763568394002501e-14
10
727.44704070427485
20
77.820039365367023
30
0
10
734.07906941578176
20
79.125171815472214
30
1.7763568394002501e-14
10
740.42035425605138
20
80.418106155641823
30
1.7763568394002501e-14
10
746.31158930778224
20
81.632579912491309
30
1.7763568394002501e-14
10
751.64726657378299
20
82.724825824428279
30
0
10
756.38175059012735
20
83.673683649647117
30
0
10
760.53711266103551
20
84.481840493460822
30
1.7763568394002501e-14
10
764.2113494460416
20
85.176928599490196
30
1.7763568394002501e-14
10
767.5841352373352
20
85.812045920810135
30
0
10
770.92998741910822
20
86.468300250609303
30
0
10
774.5712156047432
20
87.240528187422854
30
1.7763568394002501e-14
10
778.81685343257925
20
88.219036536321326
30
0
10
783.91027492165233
20
89.473880036336539
30
1.7763568394002501e-14
10
789.96419850182724
20
91.03536114351995
30
1.7763568394002501e-14
10
796.93014685989988
20
92.884937349806322
30
1.7763568394002501e-14
10
804.64418505818935
20
94.969211839976765
30
1.7763568394002501e-14
10
812.85734492483152
20
97.209288744013861
30
0
10
821.27192142983904
20
99.511905144347537
30
1.7763568394002501e-14
10
829.57550153830402
20
101.77987942544512
30
1.7763568394002501e-14
10
837.47524902430177
20
103.92263148196299
30
0
10
844.73370234656727
20
105.86717538455136
30
0
10
851.20017865073214
20
107.56774977242233
30
1.7763568394002501e-14
10
856.85381307428293
20
109.0190534271922
30
1.7763568394002501e-14
10
861.78771228862979
20
110.25123962619742
30
1.7763568394002501e-14
10
866.16837554535425
20
111.31724978343681
30
1.7763568394002501e-14
10
870.20290315481384
20
112.28255839934712
30
0
10
874.10354792088708
20
113.21409717211063
30
1.7763568394002501e-14
10
878.05215771244889
20
114.1691399366748
30
3.5527136788005003e-14
10
882.16828794468245
20
115.18533910428906
30
1.7763568394002501e-14
10
886.52396667379776
20
116.28537350590003
30
0
10
890.22868389687221
20
117.24145075573256
30
0
10
893.13639252867324
20
118.00296022314713
30
0
10
895.13225741970405
20
118.53038379546221
30
0
10
896.14453820161191
20
118.79903329867838
30
0
0
SPLINE
5
110
100
AcDbEntity
8
0
100
AcDbSpline
70
4
71
5
72
46
73
40
74
0
42
0.000000001
43
0.0000000001
44
0.0000000001
40
0
40
0
40
0
40
0
40
0
40
0
40
0.028571428571428567
40
0.057142857142857134
40
0.085714285714285715
40
0.11428571428571427
40
0.14285714285714285
40
0.17142857142857146
40
0.20000000000000001
40
0.22857142857142854
40
0.25714285714285717
40
0.2857142857142857
40
0.31428571428571433
40
0.34285714285714292
40
0.3714285714285715
40
0.40000000000000008
40
0.42857142857142871
40
0.4571428571428573
40
0.48571428571428582
40
0.51428571428571435
40
0.54285714285714293
40
0.57142857142857151
40
0.60000000000000009
40
0.62857142857142867
40
0.65714285714285725
40
0.68571428571428583
40
0.71428571428571441
40
0.74285714285714299
40
0.77142857142857146
40
0.80000000000000016
40
0.82857142857142863
40
0.85714285714285732
40
0.8857142857142859
40
0.91428571428571459
40
0.94285714285714295
40
0.97142857142857164
40
1
40
1
40
1
40
1
40
1
40
1
41
1
41
1
41
1
41
1
41
1
41
1
41
1
41
1
41
1
41
1
41
1
41
1
41
1
41
1
41
1
41
1
41
1
41
1
41
1
41
1
41
1
41
1
41
1
41
1
41
1
41
1
41
1
41
1
41
1
41
1
41
1
41
1
41
1
41
1
41
1
41
1
41
1
41
1
41
1
41
1
10
630.01049185046975
20
77.314786486040902
30
1.7763568394002501e-14
10
630.20895201295514
20
77.68139476793985
30
0
10
630.58612331228426
20
78.404161328262859
30
1.7763568394002501e-14
10
631.09428680074222
20
79.452741158858174
30
0
10
631.66184166843129
20
80.780889927564687
30
0
10
632.18242710025925
20
82.374786973918205
30
1.7763568394002501e-14
10
632.47975593732269
20
83.958899355829629
30
0
10
632.47756021181863
20
85.550804928534802
30
0
10
632.05195411028092
20
87.095531075076167
30
0
10
631.07727539616815
20
88.508865333440127
30
1.7763568394002501e-14
10
629.46226738581925
20
89.708476287627548
30
0
10
627.19874594495127
20
90.657182454531338
30
0
10
624.35986397816305
20
91.361472808600553
30
1.7763568394002501e-14
10
621.07671350766009
20
91.851086638334067
30
1.7763568394002501e-14
10
617.52228154525494
20
92.165062829080398
30
0
10
613.89246054205228
20
92.334487173617561
30
0
10
610.38900507678943
20
92.368321365784922
30
1.7763568394002501e-14
10
607.20056510857103
20
92.233819846243989
30
1.7763568394002501e-14
10
604.48831756292338
20
91.85206408240316
30
0
10
602.38236621943963
20
91.128400016355613
30
0
10
600.97546362002879
20
89.976998887175768
30
1.7763568394002501e-14
10
600.3183727858401
20
88.345624158429885
30
0
10
600.41220192903165
20
86.245728268324797
30
1.7763568394002501e-14
10
601.20870887182855
20
83.762445313646069
30
3.5527136788005003e-14
10
602.6236838394251
20
81.03009587075023
30
1.7763568394002501e-14
10
604.54697239016741
20
78.216137733260538
30
0
10
606.85382820455311
20
75.50162414667264
30
0
10
609.41503759774128
20
73.06405156713987
30
0
10
612.10869502007859
20
71.057286501943992
30
0
10
614.82652343590905
20
69.599981988432674
30
0
10
617.47470522805384
20
68.772240268914572
30
1.7763568394002501e-14
10
619.97616890986421
20
68.610155545471997
30
1.7763568394002501e-14
10
622.27253444969188
20
69.10023281548591
30
0
10
624.32595584990372
20
70.175091547205199
30
1.7763568394002501e-14
10
626.1221017484861
20
71.704106251689112
30
1.7763568394002501e-14
10
627.66507814562669
20
73.519057613943971
30
0
10
628.70945761814551
20
75.061881774993878
30
0
10
629.39536233737192
20
76.204511636869242
30
1.7763568394002501e-14
10
629.81203168798436
20
76.948178204141925
30
1.7763568394002501e-14
10
630.01049185046975
20
77.314786486040902
30
1.7763568394002501e-14
0
SPLINE
5
111
100
AcDbEntity
8
0
100
AcDbSpline
70
4
71
5
72
51
73
45
74
0
42
0.000000001
43
0.0000000001
44
0.0000000001
40
-1
40
-1
40
-1
40
-1
40
-1
40
-1
40
-0.97500000000000042
40
-0.9500000000000004
40
-0.92500000000000038
40
-0.90000000000000036
40
-0.87500000000000033
40
-0.85000000000000031
40
-0.8250000000000004
40
-0.80000000000000027
40
-0.77500000000000036
40
-0.75000000000000033
40
-0.72500000000000031
40
-0.70000000000000018
40
-0.67500000000000016
40
-0.65000000000000024
40
-0.62500000000000022
40
-0.6000000000000002
40
-0.57500000000000018
40
-0.55000000000000016
40
-0.52500000000000013
40
-0.50000000000000011
40
-0.4750000000000002
40
-0.45000000000000012
40
-0.4250000000000001
40
-0.40000000000000008
40
-0.37500000000000011
40
-0.35000000000000003
40
-0.32500000000000001
40
-0.29999999999999999
40
-0.27500000000000002
40
-0.25
40
-0.22500000000000001
40
-0.20000000000000001
40
-0.17499999999999999
40
-0.14999999999999999
40
-0.125
40
-0.10000000000000001
40
-0.075000000000000011
40
-0.050000000000000003
40
-0.025000000000000001
40
0
40
0
40
0
40
0
40
0
40
0
41
1
41
1
41
1
41
1
41
1
41
1
41
1
41
1
41
1
41
1
41
1
41
1
41
1
41
1
41
1
41
1
41
1
41
1
41
1
41
1
41
1
41
1
41
1
41
1
41
1
41
1
41
1
41
1
41
1
41
1
41
1
41
1
41
1
41
1
41
1
41
1
41
1
41
1
41
1
41
1
41
1
41
1
41
1
41
1
41
1
10
667.2540298623527
20
72.02676753351237
30
0
10
667.03410541923631
20
72.389396943611388
30
1.7763568394002501e-14
10
666.52183668264001
20
73.124938169074611
30
0
10
665.539954365732
20
74.254960762266421
30
0
10
663.84267991331876
20
75.79098649249994
30
1.7763568394002501e-14
10
661.25101235033026
20
77.67232575953129
30
0
10
658.40699371596338
20
79.410132493196159
30
1.7763568394002501e-14
10
655.53153465880416
20
80.892367796379133
30
0
10
652.80884283744683
20
82.009965011782512
30
0
10
650.35163068380496
20
82.666648585026238
30
0
10
648.15276639015042
20
82.789806183407336
30
0
10
646.11603907842095
20
82.335378551175765
30
0
10
644.11033150278831
20
81.290890734847977
30
1.7763568394002501e-14
10
642.01674140755267
20
79.679470197637073
30
1.7763568394002501e-14
10
639.77643382729332
20
77.563181053203195
30
0
10
637.44426335940045
20
75.048083914051759
30
0
10
635.16004081628273
20
72.272011150767298
30
0
10
633.11035679062468
20
69.390502272480305
30
1.7763568394002501e-14
10
631.49452566478044
20
66.563619221230539
30
1.7763568394002501e-14
10
630.48775979872823
20
63.942175127383862
30
0
10
630.20804521689649
20
61.6548017505242
30
0
10
630.67493132105892
20
59.793101443720118
30
1.7763568394002501e-14
10
631.79121459976182
20
58.402017085543328
30
0
10
633.40156051994131
20
57.486128563854678
30
0
10
635.33384490638821
20
57.013744058579803
30
0
10
637.45573515658941
20
56.920166327261306
30
1.7763568394002501e-14
10
639.69263241219858
20
57.116693691447445
30
0
10
642.00573797990955
20
57.506358436492782
30
1.7763568394002501e-14
10
644.38008908643258
20
57.998519762020784
30
0
10
646.80965454339866
20
58.522362443277068
30
0
10
649.28127042940605
20
59.044771757259802
30
0
10
651.76992855579795
20
59.569545830000024
30
1.7763568394002501e-14
10
654.24311425118026
20
60.123041348882403
30
0
10
656.66251936856827
20
60.743725410190883
30
0
10
658.98657923171356
20
61.470570007196102
30
0
10
661.17319191181662
20
62.331036747066975
30
1.7763568394002501e-14
10
663.18079190107244
20
63.331894122671173
30
0
10
664.96064189340882
20
64.467974380403419
30
1.7763568394002501e-14
10
666.44871818331808
20
65.729381770692044
30
0
10
667.56066486135228
20
67.107988604110147
30
0
10
668.17816312439368
20
68.607339303669335
30
0
10
668.17148700497694
20
69.911680762655763
30
3.5527136788005003e-14
10
667.84138334133695
20
70.949161708480332
30
1.7763568394002501e-14
10
667.47395430546874
20
71.664138123413309
30
0
10
667.2540298623527
20
72.02676753351237
30
0
0
LINE
5
112
100
AcDbEntity
8
0
100
AcDbLine
10
542.47517198294327
20
110.43928974539419
30
0
11
544.70574844188673
21
98.64842342180259
31
-6.9388939039072284e-17
0
ARC
5
113
100
AcDbEntity
8
0
100
AcDbCircle
10
615.57919653326542
20
-12.687724548209287
30
-5.0806031932935282e-30
40
14.725398076187011
210
0
220
0
230
1
100
AcDbArc
50
260.22377063837075
51
305.80317796291047
0
SPLINE
5
114
100
AcDbEntity
8
0
100
AcDbSpline
70
4
71
5
72
46
73
40
74
0
42
0.000000001
43
0.0000000001
44
0.0000000001
40
7.3512272106394502e-05
40
7.3512272106394502e-05
40
7.3512272106394502e-05
40
7.3512272106394502e-05
40
7.3512272106394502e-05
40
7.3512272106394502e-05
40
0.028571428571428567
40
0.057142857142857134
40
0.085714285714285715
40
0.11428571428571427
40
0.14285714285714285
40
0.17142857142857146
40
0.20000000000000001
40
0.22857142857142854
40
0.25714285714285717
40
0.2857142857142857
40
0.31428571428571433
40
0.34285714285714292
40
0.3714285714285715
40
0.40000000000000008
40
0.42857142857142871
40
0.4571428571428573
40
0.48571428571428582
40
0.51428571428571435
40
0.54285714285714293
40
0.57142857142857151
40
0.60000000000000009
40
0.62857142857142867
40
0.65714285714285725
40
0.68571428571428583
40
0.71428571428571441
40
0.74285714285714299
40
0.77142857142857146
40
0.80000000000000016
40
0.82857142857142863
40
0.85714285714285732
40
0.8857142857142859
40
0.91428571428571459
40
0.94285714285714295
40
0.97142857142857164
40
1
40
1
40
1
40
1
40
1
40
1
41
1
41
1
41
1
41
1
41
1
41
1
41
1
41
1
41
1
41
1
41
1
41
1
41
1
41
1
41
1
41
1
41
1
41
1
41
1
41
1
41
1
41
1
41
1
41
1
41
1
41
1
41
1
41
1
41
1
41
1
41
1
41
1
41
1
41
1
41
1
41
1
41
1
41
1
41
1
41
1
10
624.19359358453971
20
-24.630484360964818
30
0
10
625.36307148049036
20
-23.829285353480799
30
1.7763568394002501e-14
10
627.6591475361472
20
-22.249841359045881
30
0
10
630.96680131246251
20
-19.954854409801754
30
0
10
635.1016543045447
20
-17.044858263669095
30
1.7763568394002501e-14
10
639.83826975844613
20
-13.648361639689444
30
3.5527136788005003e-14
10
644.23438446053842
20
-10.459890886415987
30
0
10
648.46743214441585
20
-7.4169582050905056
30
1.7763568394002501e-14
10
652.84991222323833
20
-4.4073040208384562
30
1.7763568394002501e-14
10
657.7251266888419
20
-1.3092940404264686
30
1.7763568394002501e-14
10
663.34182462731155
20
1.9605597897140394
30
1.7763568394002501e-14
10
669.74168127683106
20
5.4049606984622471
30
0
10
676.62736043130724
20
8.895727532895636
30
0
10
683.5235358392124
20
12.236835017623839
30
0
10
689.95820054733497
20
15.235305810850331
30
0
10
695.63055740579546
20
17.76694843085447
30
0
10
700.59878867824511
20
19.849771928759125
30
1.7763568394002501e-14
10
705.42216321641706
20
21.699865018771817
30
0
10
710.90778479600658
20
23.635159030666827
30
1.7763568394002501e-14
10
717.89057093267593
20
25.992056751282302
30
1.7763568394002501e-14
10
727.00564104112982
20
29.039094719006592
30
0
10
738.45062818222118
20
32.887017578882634
30
1.7763568394002501e-14
10
752.05829959726304
20
37.513189058859034
30
0
10
767.3854340848693
20
42.792021343495215
30
1.7763568394002501e-14
10
783.79388740154286
20
48.522511652764422
30
1.7763568394002501e-14
10
800.53339976781217
20
54.456415703356633
30
1.7763568394002501e-14
10
816.82296988139683
20
60.325846021343665
30
1.7763568394002501e-14
10
831.93189587639631
20
65.870749046547004
30
0
10
845.26245631312861
20
70.866840712692905
30
1.7763568394002501e-14
10
856.42953238839209
20
75.152573430241617
30
1.7763568394002501e-14
10
865.35014040767521
20
78.65916250966464
30
0
10
872.30943661629931
20
81.433307029792417
30
1.7763568394002501e-14
10
877.81872849682543
20
83.59502499987272
30
1.7763568394002501e-14
10
882.48753424993708
20
85.300045475026451
30
0
10
886.90165261538527
20
86.703741507084104
30
1.7763568394002501e-14
10
891.47379207207746
20
87.917443920027068
30
1.7763568394002501e-14
10
895.41235568130321
20
88.778519350744688
30
3.5527136788005003e-14
10
898.55448888965088
20
89.371056512063603
30
0
10
900.73256699766421
20
89.742376606241962
30
0
10
901.84244912325903
20
89.922113989176694
30
1.7763568394002501e-14
0
ARC
5
115
100
AcDbEntity
8
0
100
AcDbCircle
10
539.52745540204523
20
109.88164563065834
30
0
40
3.0000000000001621
210
0
220
-0
230
1
100
AcDbArc
50
10.712522610845861
51
190.71252261084746
0
CIRCLE
5
116
100
AcDbEntity
8
0
100
AcDbCircle
10
892.03690869217326
20
100.25915992211299
30
1.7763568394002501e-14
40
3.0000000000000031
210
-0
220
0
230
1
0
ARC
5
117
100
AcDbEntity
8
0
100
AcDbCircle
10
615.5791965332653
20
-12.687724548209092
30
5.7623823936066104e-30
40
14.725398076187178
210
-1.2503201115487627e-31
220
-7.2565294003893212e-31
230
1
100
AcDbArc
50
260.22377063837132
51
305.80317796291041
0
SPLINE
5
118
100
AcDbEntity
8
0
100
AcDbSpline
70
4
71
5
72
76
73
70
74
0
42
0.000000001
43
0.0000000001
44
0.0000000001
40
-1
40
-1
40
-1
40
-1
40
-1
40
-1
40
-0.98461538461538278
40
-0.96923076923076756
40
-0.95384615384615223
40
-0.93846153846153679
40
-0.92307692307692157
40
-0.90769230769230624
40
-0.89230769230769091
40
-0.87692307692307547
40
-0.86153846153846025
40
-0.84615384615384504
40
-0.83076923076922959
40
-0.81538461538461415
40
-0.79999999999999893
40
-0.7846153846153836
40
-0.76923076923076816
40
-0.75384615384615306
40
-0.73846153846153761
40
-0.72307692307692217
40
-0.70769230769230695
40
-0.69230769230769162
40
-0.67692307692307618
40
-0.66153846153846096
40
-0.64615384615384563
40
-0.6307692307692303
40
-0.61538461538461497
40
-0.59999999999999964
40
-0.58461538461538431
40
-0.56923076923076898
40
-0.55384615384615365
40
-0.53846153846153832
40
-0.52307692307692299
40
-0.50769230769230766
40
-0.49230769230769228
40
-0.47692307692307701
40
-0.46153846153846162
40
-0.44615384615384612
40
-0.43076923076923079
40
-0.41538461538461535
40
-0.40000000000000002
40
-0.38461538461538464
40
-0.36923076923076931
40
-0.35384615384615392
40
-0.33846153846153848
40
-0.32307692307692309
40
-0.30769230769230771
40
-0.29230769230769232
40
-0.27692307692307688
40
-0.26153846153846155
40
-0.24615384615384614
40
-0.23076923076923081
40
-0.2153846153846154
40
-0.20000000000000001
40
-0.18461538461538465
40
-0.16923076923076924
40
-0.15384615384615385
40
-0.13846153846153847
40
-0.12307692307692307
40
-0.1076923076923077
40
-0.092307692307692327
40
-0.076923076923076927
40
-0.061538461538461535
40
-0.046153846153846163
40
-0.030769230769230767
40
-0.015384615384615384
40
0
40
0
40
0
40
0
40
0
40
0
41
1
41
1
41
1
41
1
41
1
41
1
41
1
41
1
41
1
41
1
41
1
41
1
41
1
41
1
41
1
41
1
41
1
41
1
41
1
41
1
41
1
41
1
41
1
41
1
41
1
41
1
41
1
41
1
41
1
41
1
41
1
41
1
41
1
41
1
41
1
41
1
41
1
41
1
41
1
41
1
41
1
41
1
41
1
41
1
41
1
41
1
41
1
41
1
41
1
41
1
41
1
41
1
41
1
41
1
41
1
41
1
41
1
41
1
41
1
41
1
41
1
41
1
41
1
41
1
41
1
41
1
41
1
41
1
41
1
41
1
10
729.30032988653284
20
66.862830580544511
30
1.7763568394002501e-14
10
729.12939858508321
20
67.096845147006277
30
0
10
728.747195825777
20
67.54751858133379
30
1.7763568394002501e-14
10
728.05263946293121
20
68.16787717701169
30
0
10
726.89317473765084
20
68.870214134445149
30
0
10
725.11497631990892
20
69.512779705444814
30
0
10
723.09252069665206
20
69.901262300410067
30
0
10
720.92189209650064
20
70.027904392029967
30
1.7763568394002501e-14
10
718.69824444741209
20
69.897948137620034
30
1.7763568394002501e-14
10
716.50191796381193
20
69.532490879677653
30
0
10
714.38896573846409
20
68.968955394580036
30
0
10
712.39698472493774
20
68.253296427679203
30
0
10
710.54845043535749
20
67.433521812884294
30
1.7763568394002501e-14
10
708.85497768753578
20
66.552789105321494
30
0
10
707.3212272516198
20
65.642488287273792
30
1.7763568394002501e-14
10
705.94880362059268
20
64.715766106907253
30
0
10
704.74053931964829
20
63.759625243102391
30
1.7763568394002501e-14
10
703.69955612074182
20
62.743363160129455
30
0
10
702.82766812207512
20
61.629103597496531
30
0
10
702.1240562116318
20
60.381257263527608
30
0
10
701.5837323666517
20
58.977151867983302
30
0
10
701.19635260722475
20
57.415041605972704
30
1.7763568394002501e-14
10
700.94664417465776
20
55.708364137367361
30
1.7763568394002501e-14
10
700.81468227199991
20
53.881749180328939
30
0
10
700.77611511697501
20
51.966239594377569
30
1.7763568394002501e-14
10
700.80263426331442
20
49.99516542664162
30
0
10
700.86172811429731
20
47.998954749393576
30
1.7763568394002501e-14
10
700.92118385681817
20
46.006177888690544
30
1.7763568394002501e-14
10
700.95498832220767
20
44.046326110981219
30
1.7763568394002501e-14
10
700.94854133338129
20
42.151818628823172
30
0
10
700.9046670965954
20
40.360754465054605
30
0
10
700.84815571703746
20
38.71837437993868
30
0
10
700.83395442345238
20
37.281633232157425
30
1.7763568394002501e-14
10
700.93457217738751
20
36.105397023009516
30
1.7763568394002501e-14
10
701.21959132411985
20
35.220503032895934
30
1.7763568394002501e-14
10
701.73935939334706
20
34.617884330957914
30
0
10
702.50300730929223
20
34.221673878645412
30
1.7763568394002501e-14
10
703.48780178301718
20
33.927733309922104
30
0
10
704.65509054301128
20
33.6538333048128
30
0
10
705.96562327735899
20
33.394365586086401
30
0
10
707.3818883728494
20
33.204224960075209
30
0
10
708.86692034100872
20
33.165073306032198
30
1.7763568394002501e-14
10
710.3845232952674
20
33.359879373848862
30
0
10
711.89851765352296
20
33.839114296266722
30
0
10
713.37376997330421
20
34.608045263603138
30
0
10
714.77925443064851
20
35.641465464812121
30
0
10
716.09070525979519
20
36.891815831202102
30
0
10
717.29330423801923
20
38.299778979025589
30
1.7763568394002501e-14
10
718.38469815825806
20
39.804152441957442
30
1.7763568394002501e-14
10
719.37691586596702
20
41.350952746722569
30
0
10
720.29092721914594
20
42.894623554086806
30
0
10
721.15214904079619
20
44.400102781522754
30
0
10
721.98537929218651
20
45.844778287361834
30
0
10
722.81047224942211
20
47.220034054546645
30
1.7763568394002501e-14
10
723.63645546288103
20
48.534183067418191
30
0
10
724.46166512658567
20
49.809660737856902
30
1.7763568394002501e-14
10
725.27813828660112
20
51.076063261407924
30
1.7763568394002501e-14
10
726.07500279043802
20
52.364225260741108
30
0
10
726.84172485265083
20
53.700288905221029
30
0
10
727.57279942153775
20
55.098723709548622
30
1.7763568394002501e-14
10
728.2643682401623
20
56.561548294507759
30
1.7763568394002501e-14
10
728.90758316730489
20
58.080345884083414
30
0
10
729.48241617938515
20
59.63734025826254
30
0
10
729.95259365361778
20
61.206899327291552
30
0
10
730.2567316428009
20
62.756709959293929
30
1.7763568394002501e-14
10
730.31566334363151
20
64.249663804903221
30
0
10
730.10427858956427
20
65.36687129943418
30
1.7763568394002501e-14
10
729.77278363447442
20
66.143431182563546
30
1.7763568394002501e-14
10
729.47126118798235
20
66.628816014082744
30
1.7763568394002501e-14
10
729.30032988653284
20
66.862830580544511
30
1.7763568394002501e-14
0
SPLINE
5
119
100
AcDbEntity
8
0
100
AcDbSpline
70
4
71
5
72
51
73
45
74
0
42
0.000000001
43
0.0000000001
44
0.0000000001
40
0
40
0
40
0
40
0
40
0
40
0
40
0.025000000000000001
40
0.050000000000000003
40
0.075000000000000011
40
0.10000000000000001
40
0.125
40
0.14999999999999999
40
0.17499999999999999
40
0.20000000000000001
40
0.22500000000000001
40
0.25
40
0.27500000000000002
40
0.29999999999999999
40
0.32500000000000001
40
0.35000000000000003
40
0.37500000000000011
40
0.40000000000000008
40
0.4250000000000001
40
0.45000000000000012
40
0.4750000000000002
40
0.50000000000000011
40
0.52500000000000013
40
0.55000000000000016
40
0.57500000000000018
40
0.6000000000000002
40
0.62500000000000022
40
0.65000000000000024
40
0.67500000000000016
40
0.70000000000000018
40
0.72500000000000031
40
0.75000000000000033
40
0.77500000000000036
40
0.80000000000000027
40
0.8250000000000004
40
0.85000000000000031
40
0.87500000000000033
40
0.90000000000000036
40
0.92500000000000038
40
0.9500000000000004
40
0.97500000000000042
40
1
40
1
40
1
40
1
40
1
40
1
41
1
41
1
41
1
41
1
41
1
41
1
41
1
41
1
41
1
41
1
41
1
41
1
41
1
41
1
41
1
41
1
41
1
41
1
41
1
41
1
41
1
41
1
41
1
41
1
41
1
41
1
41
1
41
1
41
1
41
1
41
1
41
1
41
1
41
1
41
1
41
1
41
1
41
1
41
1
41
1
41
1
41
1
41
1
41
1
41
1
10
585.34456861655485
20
76.041945388434343
30
0
10
585.46290643497332
20
76.295192837481466
30
1.7763568394002501e-14
10
585.68425398913541
20
76.791268120993635
30
0
10
585.97382925336524
20
77.500792410286621
30
0
10
586.28448471789568
20
78.37689416482641
30
0
10
586.53850725016332
20
79.3945528535547
30
0
10
586.6115348017579
20
80.393529384149772
30
1.7763568394002501e-14
10
586.40594182374491
20
81.429524536640429
30
0
10
585.80506100555635
20
82.545137802841481
30
1.7763568394002501e-14
10
584.7112588306486
20
83.763672814434344
30
0
10
583.08929575415948
20
85.079559346286842
30
0
10
580.96732857453378
20
86.461030032935199
30
0
10
578.41977432216913
20
87.857343675867781
30
0
10
575.55629098567249
20
89.204489405551556
30
0
10
572.50850832231572
20
90.431412769115113
30
1.7763568394002501e-14
10
569.41761795801642
20
91.466081569017504
30
0
10
566.42223869523218
20
92.241379974052165
30
1.7763568394002501e-14
10
563.64471023110605
20
92.701705303176482
30
0
10
561.18648996694981
20
92.805816678918362
30
1.7763568394002501e-14
10
559.12723985589162
20
92.528175623098164
30
-1.7763568394002501e-14
10
557.52250037081944
20
91.860937216435431
30
1.7763568394002501e-14
10
556.40206333712604
20
90.815600233090819
30
1.7763568394002501e-14
10
555.76734401943418
20
89.425313925196036
30
0
10
555.59065541542077
20
87.745852074597494
30
1.7763568394002501e-14
10
555.82658461703772
20
85.847692244474402
30
1.7763568394002501e-14
10
556.42253768105411
20
83.808830294063767
30
1.7763568394002501e-14
10
557.32849115784632
20
81.707895138133892
30
0
10
558.5095821853256
20
79.615879977866868
30
0
10
559.94717907872962
20
77.593673294280705
30
1.7763568394002501e-14
10
561.62941444292846
20
75.694909235938937
30
0
10
563.54476467635459
20
73.967261027997836
30
0
10
565.67418481913239
20
72.454417293438937
30
1.7763568394002501e-14
10
567.98425748983664
20
71.19755229013164
30
1.7763568394002501e-14
10
570.41879892838108
20
70.237423880376738
30
1.7763568394002501e-14
10
572.89414548672369
20
69.614858680503261
30
1.7763568394002501e-14
10
575.31378861097267
20
69.362738758526049
30
0
10
577.58025987952738
20
69.499301073533019
30
1.7763568394002501e-14
10
579.60860723875305
20
70.020261366469768
30
1.7763568394002501e-14
10
581.33799952158006
20
70.892670302340534
30
1.7763568394002501e-14
10
582.74723912996046
20
72.044625760587962
30
0
10
583.85875866631761
20
73.36744172087316
30
0
10
584.54669907035952
20
74.468482606159924
30
0
10
584.97422707862518
20
75.271783426710982
30
1.7763568394002501e-14
10
585.22623079813673
20
75.788697939387163
30
0
10
585.34456861655485
20
76.041945388434343
30
0
0
SPLINE
5
120
100
AcDbEntity
8
0
100
AcDbSpline
70
4
71
5
72
61
73
55
74
0
42
0.000000001
43
0.0000000001
44
0.0000000001
40
-1
40
-1
40
-1
40
-1
40
-1
40
-1
40
-0.98000000000000043
40
-0.96000000000000041
40
-0.94000000000000039
40
-0.92000000000000037
40
-0.90000000000000036
40
-0.88000000000000034
40
-0.86000000000000032
40
-0.8400000000000003
40
-0.8200000000000004
40
-0.80000000000000027
40
-0.78000000000000025
40
-0.76000000000000034
40
-0.74000000000000032
40
-0.72000000000000031
40
-0.70000000000000018
40
-0.68000000000000016
40
-0.66000000000000025
40
-0.64000000000000024
40
-0.62000000000000022
40
-0.6000000000000002
40
-0.58000000000000018
40
-0.56000000000000016
40
-0.54000000000000015
40
-0.52000000000000013
40
-0.50000000000000011
40
-0.4800000000000002
40
-0.46000000000000008
40
-0.44000000000000011
40
-0.4200000000000001
40
-0.40000000000000008
40
-0.38000000000000012
40
-0.36000000000000004
40
-0.34000000000000002
40
-0.32000000000000001
40
-0.29999999999999999
40
-0.28000000000000003
40
-0.25999999999999995
40
-0.23999999999999999
40
-0.22
40
-0.20000000000000001
40
-0.17999999999999999
40
-0.16
40
-0.14000000000000001
40
-0.12
40
-0.10000000000000001
40
-0.080000000000000002
40
-0.059999999999999998
40
-0.040000000000000001
40
-0.02
40
0
40
0
40
0
40
0
40
0
40
0
41
1
41
1
41
1
41
1
41
1
41
1
41
1
41
1
41
1
41
1
41
1
41
1
41
1
41
1
41
1
41
1
41
1
41
1
41
1
41
1
41
1
41
1
41
1
41
1
41
1
41
1
41
1
41
1
41
1
41
1
41
1
41
1
41
1
41
1
41
1
41
1
41
1
41
1
41
1
41
1
41
1
41
1
41
1
41
1
41
1
41
1
41
1
41
1
41
1
41
1
41
1
41
1
41
1
41
1
41
1
10
827.12656975148377
20
90.877846436147877
30
1.7763568394002501e-14
10
826.9356570661306
20
91.076649795721224
30
1.7763568394002501e-14
10
826.52125492573441
20
91.444524054603932
30
1.7763568394002501e-14
10
825.80607900475479
20
91.90403071356782
30
1.7763568394002501e-14
10
824.69229618614077
20
92.328547228700387
30
1.7763568394002501e-14
10
823.12881576561381
20
92.568442927548148
30
1.7763568394002501e-14
10
821.49394807432782
20
92.558970592641131
30
0
10
819.87028501214149
20
92.348002181742629
30
1.7763568394002501e-14
10
818.29458636613947
20
91.975300293411394
30
1.7763568394002501e-14
10
816.75426282372973
20
91.466904161644948
30
1.7763568394002501e-14
10
815.21311243813955
20
90.840129935560384
30
0
10
813.6302268954455
20
90.105900519779766
30
0
10
811.97996801583201
20
89.271965560692678
30
1.7763568394002501e-14
10
810.27553472156626
20
88.346162701735679
30
0
10
808.57774532572489
20
87.338233974680492
30
1.7763568394002501e-14
10
806.96962651947786
20
86.257911263487216
30
1.7763568394002501e-14
10
805.53863236141126
20
85.113845761950131
30
1.7763568394002501e-14
10
804.35479577189903
20
83.912082178834666
30
0
10
803.45300040656741
20
82.654994954626915
30
1.7763568394002501e-14
10
802.80717916479432
20
81.339320526506071
30
1.7763568394002501e-14
10
802.34601218224827
20
79.958845415426254
30
0
10
801.983762404657
20
78.508779654116523
30
1.7763568394002501e-14
10
801.64517252556334
20
76.989508144823333
30
0
10
801.29493292675897
20
75.410780350318745
30
0
10
800.9591836565005
20
73.795241117511395
30
0
10
800.70119472346664
20
72.177771487820351
30
1.7763568394002501e-14
10
800.601380143298
20
70.605540715849259
30
0
10
800.736855844616
20
69.137316060673413
30
0
10
801.15848667484579
20
67.844313181792572
30
1.7763568394002501e-14
10
801.87770023942164
20
66.806468247548395
30
1.7763568394002501e-14
10
802.88013362786944
20
66.095230890067555
30
1.7763568394002501e-14
10
804.133535376282
20
65.760629326473548
30
-1.7763568394002501e-14
10
805.59912404316822
20
65.812693214413315
30
0
10
807.23652279473072
20
66.220588427578932
30
1.7763568394002501e-14
10
809.00382152981877
20
66.927811333235411
30
0
10
810.85891646138737
20
67.863050030379938
30
-1.7763568394002501e-14
10
812.76031879066613
20
68.95245358538628
30
1.7763568394002501e-14
10
814.6682026657362
20
70.131997230497177
30
1.7763568394002501e-14
10
816.54530978741957
20
71.35765885860171
30
1.7763568394002501e-14
10
818.35759527882487
20
72.601784013947977
30
0
10
820.07492505333687
20
73.851262757362704
30
1.7763568394002501e-14
10
821.67171511675394
20
75.104993006743129
30
0
10
823.12772515954236
20
76.37179520640025
30
1.7763568394002501e-14
10
824.42853379588144
20
77.667899452325813
30
1.7763568394002501e-14
10
825.56686400331262
20
79.015314015242453
30
0
10
826.53900185372379
20
80.43543849693215
30
1.7763568394002501e-14
10
827.34006634886987
20
81.941651397381577
30
0
10
827.95916308873882
20
83.531588452865606
30
0
10
828.37571189962227
20
85.180931880060697
30
1.7763568394002501e-14
10
828.55245684317288
20
86.832988101384586
30
0
10
828.44125658125813
20
88.404269179752063
30
1.7763568394002501e-14
10
828.08871603156138
20
89.524605095789042
30
0
10
827.66673103785422
20
90.251703897163353
30
0
10
827.31748243683694
20
90.679043076574416
30
0
10
827.12656975148377
20
90.877846436147877
30
1.7763568394002501e-14
0
ARC
5
121
100
AcDbEntity
8
0
100
AcDbCircle
10
517.11864144768458
20
100.7549522700338
30
1.7763568394002498e-14
40
14.725398181864456
210
-4.3072081365721707e-16
220
1.1268060137789912e-15
230
1
100
AcDbArc
50
110.91932092680491
51
171.67904936862374
0
LINE
5
122
100
AcDbEntity
8
0
100
AcDbLine
10
544.70574844188673
20
98.64842342180259
30
-6.9388939039072284e-17
11
542.47517198294327
21
110.43928974539419
31
0
0
ARC
5
123
100
AcDbEntity
8
0
100
AcDbCircle
10
539.52745540204523
20
109.88164563065826
30
1.7763568394002498e-14
40
3.0000000000001754
210
5.8179961212124321e-15
220
1.1006388190693614e-15
230
1
100
AcDbArc
50
10.71252261084747
51
190.71252140343097
0
SPLINE
5
124
100
AcDbEntity
8
0
100
AcDbSpline
70
4
71
5
72
96
73
90
74
0
42
0.000000001
43
0.0000000001
44
0.0000000001
40
0
40
0
40
0
40
0
40
0
40
0
40
0.011764705882352941
40
0.023529411764705882
40
0.035294117647058823
40
0.047058823529411764
40
0.058823529411764712
40
0.070588235294117646
40
0.082352941176470573
40
0.094117647058823528
40
0.10588235294117647
40
0.1176470588235294
40
0.12941176470588234
40
0.14117647058823526
40
0.15294117647058825
40
0.1647058823529412
40
0.17647058823529416
40
0.18823529411764711
40
0.20000000000000007
40
0.21176470588235305
40
0.223529411764706
40
0.2352941176470589
40
0.24705882352941189
40
0.25882352941176484
40
0.2705882352941178
40
0.28235294117647075
40
0.29411764705882371
40
0.30588235294117666
40
0.31764705882352962
40
0.32941176470588257
40
0.34117647058823553
40
0.35294117647058848
40
0.36470588235294144
40
0.37647058823529439
40
0.38823529411764734
40
0.4000000000000003
40
0.41176470588235331
40
0.42352941176470627
40
0.43529411764705922
40
0.44705882352941212
40
0.45882352941176502
40
0.47058823529411797
40
0.48235294117647098
40
0.49411764705882399
40
0.50588235294117689
40
0.51764705882352979
40
0.52941176470588258
40
0.54117647058823559
40
0.55294117647058849
40
0.56470588235294139
40
0.57647058823529429
40
0.58823529411764719
40
0.60000000000000009
40
0.61176470588235299
40
0.62352941176470578
40
0.63529411764705879
40
0.64705882352941169
40
0.65882352941176459
40
0.67058823529411749
40
0.68235294117647038
40
0.69411764705882328
40
0.70588235294117618
40
0.71764705882352897
40
0.72941176470588187
40
0.74117647058823488
40
0.75294117647058778
40
0.76470588235294079
40
0.77647058823529336
40
0.78823529411764637
40
0.79999999999999938
40
0.81176470588235228
40
0.82352941176470529
40
0.83529411764705785
40
0.84705882352941086
40
0.85882352941176376
40
0.87058823529411655
40
0.88235294117646956
40
0.89411764705882257
40
0.90588235294117536
40
0.91764705882352837
40
0.92941176470588116
40
0.94117647058823395
40
0.95294117647058696
40
0.96470588235293997
40
0.97647058823529276
40
0.98823529411764555
40
1
40
1
40
1
40
1
40
1
40
1
41
1
41
1
41
1
41
1
41
1
41
1
41
1
41
1
41
1
41
1
41
1
41
1
41
1
41
1
41
1
41
1
41
1
41
1
41
1
41
1
41
1
41
1
41
1
41
1
41
1
41
1
41
1
41
1
41
1
41
1
41
1
41
1
41
1
41
1
41
1
41
1
41
1
41
1
41
1
41
1
41
1
41
1
41
1
41
1
41
1
41
1
41
1
41
1
41
1
41
1
41
1
41
1
41
1
41
1
41
1
41
1
41
1
41
1
41
1
41
1
41
1
41
1
41
1
41
1
41
1
41
1
41
1
41
1
41
1
41
1
41
1
41
1
41
1
41
1
41
1
41
1
41
1
41
1
41
1
41
1
41
1
41
1
41
1
41
1
41
1
41
1
41
1
41
1
41
1
41
1
10
896.14453820161191
20
118.79903329867838
30
0
10
895.13225741970405
20
118.53038379546221
30
1.7763568394002501e-14
10
893.1363925286729
20
118.00296022314717
30
0
10
890.22868389687221
20
117.24145075573256
30
0
10
886.52396667379776
20
116.28537350590003
30
0
10
882.16828794468245
20
115.18533910428906
30
1.7763568394002501e-14
10
878.052157712449
20
114.16913993667494
30
1.7763568394002501e-14
10
874.10354792088708
20
113.21409717211063
30
1.7763568394002501e-14
10
870.20290315481384
20
112.28255839934712
30
0
10
866.16837554535425
20
111.31724978343695
30
1.7763568394002501e-14
10
861.78771228862979
20
110.25123962619742
30
1.7763568394002501e-14
10
856.85381307428293
20
109.0190534271922
30
1.7763568394002501e-14
10
851.20017865073214
20
107.56774977242233
30
1.7763568394002501e-14
10
844.73370234656716
20
105.8671753845515
30
0
10
837.47524902430177
20
103.92263148196299
30
0
10
829.57550153830402
20
101.77987942544512
30
1.7763568394002501e-14
10
821.27192142983904
20
99.511905144347537
30
1.7763568394002501e-14
10
812.85734492483152
20
97.209288744013861
30
0
10
804.64418505818935
20
94.969211839976765
30
1.7763568394002501e-14
10
796.93014685989965
20
92.884937349806464
30
1.7763568394002501e-14
10
789.96419850182724
20
91.03536114351995
30
1.7763568394002501e-14
10
783.91027492165233
20
89.473880036336539
30
1.7763568394002501e-14
10
778.81685343257925
20
88.219036536321326
30
0
10
774.5712156047432
20
87.240528187422854
30
1.7763568394002501e-14
10
770.92998741910822
20
86.468300250609303
30
0
10
767.5841352373352
20
85.812045920810135
30
0
10
764.2113494460416
20
85.176928599490253
30
1.7763568394002501e-14
10
760.53711266103551
20
84.481840493460822
30
1.7763568394002501e-14
10
756.38175059012735
20
83.673683649647117
30
0
10
751.64726657378264
20
82.724825824428322
30
0
10
746.31158930778224
20
81.63257991249138
30
1.7763568394002501e-14
10
740.42035425605138
20
80.418106155641823
30
1.7763568394002501e-14
10
734.07906941578176
20
79.125171815472214
30
1.7763568394002501e-14
10
727.44704070427485
20
77.820039365367023
30
0
10
720.72075006314901
20
76.58535996642604
30
1.7763568394002501e-14
10
714.1121802007417
20
75.511225087435662
30
0
10
707.82860154266336
20
74.687081586309489
30
0
10
702.05212274228427
20
74.193394689163824
30
0
10
696.91846690921193
20
74.093167945333661
30
0
10
692.49805139319915
20
74.424081971339135
30
0
10
688.77081813793734
20
75.188873718914081
30
1.7763568394002501e-14
10
685.63830158267149
20
76.35580845936866
30
0
10
682.94689042818436
20
77.861453669795026
30
1.7763568394002501e-14
10
680.5075596468796
20
79.614021430419243
30
0
10
678.11639645148648
20
81.493081158105184
30
1.7763568394002501e-14
10
675.57834656810564
20
83.372502977611006
30
0
10
672.73107891458358
20
85.148152801253531
30
0
10
669.47121054827846
20
86.767869725623612
30
1.7763568394002501e-14
10
665.772505312563
20
88.24923750540097
30
0
10
661.67089753214304
20
89.647121120519344
30
0
10
657.25510687818428
20
91.027326652312695
30
0
10
652.65404100049045
20
92.441185500540115
30
0
10
648.0282306017059
20
93.891674188344012
30
1.7763568394002501e-14
10
643.54896535709486
20
95.336472267112555
30
1.7763568394002501e-14
10
639.36910242960982
20
96.721405156008046
30
0
10
635.59381199823031
20
98.007418624742328
30
0
10
632.25654912098003
20
99.195421609701114
30
0
10
629.27975126106514
20
100.36395344132961
30
0
10
626.49895163801511
20
101.64922549107624
30
0
10
623.73548988152368
20
103.18030620596866
30
1.7763568394002501e-14
10
620.85303972028782
20
105.02940406691587
30
0
10
617.82589155716357
20
107.15080167569928
30
0
10
614.70508111226059
20
109.42501213538824
30
1.7763568394002501e-14
10
611.57711580371688
20
111.71183549559332
30
1.7763568394002501e-14
10
608.52746907700487
20
113.89585401027318
30
-1.7763568394002501e-14
10
605.59676225882436
20
115.94613840213903
30
1.7763568394002501e-14
10
602.77508070337694
20
117.89521628449101
30
1.7763568394002501e-14
10
600.00657798509803
20
119.79229659223904
30
0
10
597.19223902795829
20
121.66812906403092
30
0
10
594.1892418194343
20
123.48740802993734
30
1.7763568394002501e-14
10
590.8466885163333
20
125.16666956545069
30
0
10
587.05406163124746
20
126.60816018153491
30
1.7763568394002501e-14
10
582.77861258225289
20
127.72551573452206
30
0
10
578.12360553162887
20
128.47952761780141
30
1.7763568394002501e-14
10
573.30625034498712
20
128.88004942438582
30
0
10
568.58262634889229
20
128.96576618923643
30
0
10
564.18498519013167
20
128.78990114474138
30
1.7763568394002501e-14
10
560.26122530476471
20
128.40478277241613
30
0
10
556.79547902923423
20
127.84374369933903
30
0
10
553.6088080340121
20
127.11685163821625
30
1.7763568394002501e-14
10
550.44209379199401
20
126.22099032426661
30
1.7763568394002501e-14
10
547.01145000480778
20
125.14548825689927
30
0
10
543.08610870582322
20
123.88068184986354
30
0
10
538.506145100759
20
122.42019754833143
30
1.7763568394002501e-14
10
533.16385788175228
20
120.75975117725599
30
0
10
526.99578773495375
20
118.89694635353769
30
1.7763568394002501e-14
10
521.3754760255058
20
117.24392104969107
30
1.7763568394002501e-14
10
516.76993955195974
20
115.91246533308306
30
0
10
513.52614783664092
20
114.98408721138139
30
0
10
511.86089376731491
20
114.50971293476448
30
0
0
LINE
5
125
100
AcDbEntity
8
0
100
AcDbLine
10
536.57973882114743
20
109.32400151592245
30
1.80411241501588e-14
11
502.54825844559656
21
102.88598272193262
31
1.7738023900083317e-14
0
LINE
5
126
100
AcDbEntity
8
0
100
AcDbLine
10
642.10243207033955
20
0.92943294228857365
30
0
11
613.07881418382533
21
-27.199286718037186
31
-5.0806031932935282e-30
0
ARC
5
127
100
AcDbEntity
8
0
100
AcDbCircle
10
644.25695217673388
20
3.0175218324636868
30
0
40
3.0003453304795453
210
0
220
0
230
1
100
AcDbArc
50
-135.89707001058119
51
44.102929135636039
0
ARC
5
128
100
AcDbEntity
8
0
100
AcDbCircle
10
541.75803186098926
20
98.090779307066626
30
9.6296497219361776e-34
40
3.0000000000003451
210
-3.4089821022727765e-18
220
-6.44905558048105e-19
230
1
100
AcDbArc
50
-169.28747738915732
51
10.712522610850003
0
SPLINE
5
129
100
AcDbEntity
8
0
100
AcDbSpline
70
4
71
5
72
76
73
70
74
0
42
0.000000001
43
0.0000000001
44
0.0000000001
40
-1
40
-1
40
-1
40
-1
40
-1
40
-1
40
-0.98461538461538278
40
-0.96923076923076756
40
-0.95384615384615223
40
-0.93846153846153679
40
-0.92307692307692157
40
-0.90769230769230624
40
-0.89230769230769091
40
-0.87692307692307547
40
-0.86153846153846025
40
-0.84615384615384504
40
-0.83076923076922959
40
-0.81538461538461415
40
-0.79999999999999893
40
-0.7846153846153836
40
-0.76923076923076816
40
-0.75384615384615306
40
-0.73846153846153761
40
-0.72307692307692217
40
-0.70769230769230695
40
-0.69230769230769162
40
-0.67692307692307618
40
-0.66153846153846096
40
-0.64615384615384563
40
-0.6307692307692303
40
-0.61538461538461497
40
-0.59999999999999964
40
-0.58461538461538431
40
-0.56923076923076898
40
-0.55384615384615365
40
-0.53846153846153832
40
-0.52307692307692299
40
-0.50769230769230766
40
-0.49230769230769228
40
-0.47692307692307701
40
-0.46153846153846162
40
-0.44615384615384612
40
-0.43076923076923079
40
-0.41538461538461535
40
-0.40000000000000002
40
-0.38461538461538464
40
-0.36923076923076931
40
-0.35384615384615392
40
-0.33846153846153848
40
-0.32307692307692309
40
-0.30769230769230771
40
-0.29230769230769232
40
-0.27692307692307688
40
-0.26153846153846155
40
-0.24615384615384614
40
-0.23076923076923081
40
-0.2153846153846154
40
-0.20000000000000001
40
-0.18461538461538465
40
-0.16923076923076924
40
-0.15384615384615385
40
-0.13846153846153847
40
-0.12307692307692307
40
-0.1076923076923077
40
-0.092307692307692327
40
-0.076923076923076927
40
-0.061538461538461535
40
-0.046153846153846163
40
-0.030769230769230767
40
-0.015384615384615384
40
0
40
0
40
0
40
0
40
0
40
0
41
1
41
1
41
1
41
1
41
1
41
1
41
1
41
1
41
1
41
1
41
1
41
1
41
1
41
1
41
1
41
1
41
1
41
1
41
1
41
1
41
1
41
1
41
1
41
1
41
1
41
1
41
1
41
1
41
1
41
1
41
1
41
1
41
1
41
1
41
1
41
1
41
1
41
1
41
1
41
1
41
1
41
1
41
1
41
1
41
1
41
1
41
1
41
1
41
1
41
1
41
1
41
1
41
1
41
1
41
1
41
1
41
1
41
1
41
1
41
1
41
1
41
1
41
1
41
1
41
1
41
1
41
1
41
1
41
1
41
1
10
761.82414796118383
20
67.672270119000061
30
0
10
761.71800305251304
20
67.980353441302142
30
1.7763568394002501e-14
10
761.49862024434594
20
68.593046778571434
30
0
10
761.14921557744412
20
69.499481219901682
30
-1.7763568394002501e-14
10
760.64480640056115
20
70.671940706274398
30
1.7763568394002501e-14
10
759.94891149363116
20
72.042272718602263
30
0
10
759.18186442118792
20
73.277576167936544
30
1.7763568394002501e-14
10
758.33513036812303
20
74.336332837407255
30
1.7763568394002501e-14
10
757.39928119145304
20
75.17835829497109
30
0
10
756.36577748059847
20
75.767703734279891
30
0
10
755.23010566832795
20
76.078005341767735
30
0
10
753.99530425694184
20
76.098513976480561
30
1.7763568394002501e-14
10
752.67494477796265
20
75.839199712311995
30
0
10
751.29741858090915
20
75.338073918595143
30
0
10
749.90059651521665
20
74.652177430244706
30
1.7763568394002501e-14
10
748.52477223136998
20
73.845617843189615
30
0
10
747.20587497569898
20
72.978161836376898
30
0
10
745.96931277691351
20
72.094685467988711
30
0
10
744.82162783783667
20
71.211459398320045
30
1.7763568394002501e-14
10
743.75397463834065
20
70.319720192794648
30
0
10
742.75021015854531
20
69.396067606806014
30
1.7763568394002501e-14
10
741.79368559649049
20
68.41080434255251
30
1.7763568394002501e-14
10
740.87409598318902
20
67.336705392237704
30
1.7763568394002501e-14
10
739.99556538502657
20
66.158689968234057
30
0
10
739.17191014949663
20
64.872348242529526
30
0
10
738.41994968881727
20
63.480635401525277
30
1.7763568394002501e-14
10
737.75310633181266
20
61.991053412810416
30
1.7763568394002501e-14
10
737.17579616697481
20
60.413029817045526
30
1.7763568394002501e-14
10
736.67517215684279
20
58.754232945123363
30
0
10
736.22479497300833
20
57.02200008911197
30
1.7763568394002501e-14
10
735.79602536969742
20
55.228168092975693
30
1.7763568394002501e-14
10
735.36668442026371
20
53.392615572546937
30
0
10
734.93170251734205
20
51.547928266342488
30
3.5527136788005003e-14
10
734.51096269576396
20
49.742262497655993
30
1.7763568394002501e-14
10
734.16322480120232
20
48.046285951664025
30
0
10
733.97983519414186
20
46.546458195537745
30
0
10
734.05324953013587
20
45.321454220378179
30
0
10
734.45051615474495
20
44.421626991882093
30
0
10
735.18765398171706
20
43.849752204131818
30
0
10
736.19596354338807
20
43.534539312286746
30
1.7763568394002501e-14
10
737.35812921706793
20
43.364759314089447
30
0
10
738.55660559124476
20
43.23384542738804
30
0
10
739.72051351050095
20
43.083539645471554
30
0
10
740.86538890789552
20
42.940470240488686
30
1.7763568394002501e-14
10
742.05445879337913
20
42.877457134849948
30
0
10
743.36653761057835
20
42.981083667270887
30
0
10
744.86281233106115
20
43.318349418182187
30
0
10
746.55043465790584
20
43.899893890072512
30
0
10
748.39190155695292
20
44.690973522132147
30
1.7763568394002501e-14
10
750.32056350516928
20
45.628827021924039
30
0
10
752.25372859721699
20
46.637498088173608
30
0
10
754.10710647865824
20
47.644165605746593
30
0
10
755.80783176811133
20
48.593741341700607
30
1.7763568394002501e-14
10
757.31012114470548
20
49.466836926772928
30
1.7763568394002501e-14
10
758.60347813648548
20
50.288103836813846
30
0
10
759.69961931073669
20
51.107093744410285
30
0
10
760.6229674915669
20
51.983651320841375
30
1.7763568394002501e-14
10
761.40028412986919
20
52.97235923058426
30
0
10
762.04944924049551
20
54.105452006634344
30
0
10
762.57243013610696
20
55.382379936103263
30
1.7763568394002501e-14
10
762.96265963943142
20
56.782004648185861
30
0
10
763.21018898322041
20
58.271275183673566
30
1.7763568394002501e-14
10
763.30721726499678
20
59.814533205184034
30
1.7763568394002501e-14
10
763.2546542982783
20
61.384308705112844
30
1.7763568394002501e-14
10
763.06386613088705
20
62.964973858353169
30
0
10
762.75189594228732
20
64.546701635616415
30
0
10
762.42105744569176
20
65.806852637322393
30
1.7763568394002501e-14
10
762.13548969637156
20
66.74454684475873
30
0
10
761.93029286985507
20
67.364186796697837
30
1.7763568394002501e-14
10
761.82414796118383
20
67.672270119000061
30
0
0
SPLINE
5
130
100
AcDbEntity
8
0
100
AcDbSpline
70
4
71
5
72
61
73
55
74
0
42
0.000000001
43
0.0000000001
44
0.0000000001
40
0
40
0
40
0
40
0
40
0
40
0
40
0.02
40
0.040000000000000001
40
0.059999999999999998
40
0.080000000000000002
40
0.10000000000000001
40
0.12
40
0.14000000000000001
40
0.16
40
0.17999999999999999
40
0.20000000000000001
40
0.22
40
0.23999999999999999
40
0.25999999999999995
40
0.28000000000000003
40
0.29999999999999999
40
0.32000000000000001
40
0.34000000000000002
40
0.36000000000000004
40
0.38000000000000012
40
0.40000000000000008
40
0.4200000000000001
40
0.44000000000000011
40
0.46000000000000008
40
0.4800000000000002
40
0.50000000000000011
40
0.52000000000000013
40
0.54000000000000015
40
0.56000000000000016
40
0.58000000000000018
40
0.6000000000000002
40
0.62000000000000022
40
0.64000000000000024
40
0.66000000000000025
40
0.68000000000000016
40
0.70000000000000018
40
0.72000000000000031
40
0.74000000000000032
40
0.76000000000000034
40
0.78000000000000025
40
0.80000000000000027
40
0.8200000000000004
40
0.8400000000000003
40
0.86000000000000032
40
0.88000000000000034
40
0.90000000000000036
40
0.92000000000000037
40
0.94000000000000039
40
0.96000000000000041
40
0.98000000000000043
40
0.98151830155543718
40
0.98151830155543718
40
0.98151830155543718
40
0.98151830155543718
40
0.98151830155543718
40
0.98151830155543718
41
1
41
1
41
1
41
1
41
1
41
1
41
1
41
1
41
1
41
1
41
1
41
1
41
1
41
1
41
1
41
1
41
1
41
1
41
1
41
1
41
1
41
1
41
1
41
1
41
1
41
1
41
1
41
1
41
1
41
1
41
1
41
1
41
1
41
1
41
1
41
1
41
1
41
1
41
1
41
1
41
1
41
1
41
1
41
1
41
1
41
1
41
1
41
1
41
1
41
1
41
1
41
1
41
1
41
1
41
1
10
517.04758982447856
20
86.029725505011982
30
0
10
517.52419443618169
20
85.96450459725871
30
1.7763568394002501e-14
10
518.47790650863681
20
85.843840367972163
30
1.7763568394002501e-14
10
519.9099816708142
20
85.692180665321388
30
1.7763568394002501e-14
10
521.82244423267616
20
85.548645600536389
30
1.7763568394002501e-14
10
524.21965197282043
20
85.460685032261608
30
0
10
526.62845759902962
20
85.444143495957064
30
1.7763568394002501e-14
10
529.05836405258788
20
85.459726964022295
30
0
10
531.52623255684819
20
85.438957475296064
30
1.7763568394002501e-14
10
534.05158207178101
20
85.29378389116647
30
0
10
536.64784020323827
20
84.936679497708809
30
-1.7763568394002501e-14
10
539.31486356393725
20
84.29743331284331
30
0
10
542.03083977564791
20
83.341457847486637
30
0
10
544.74457077446164
20
82.087232998032363
30
0
10
547.38950169789223
20
80.587847907750287
30
0
10
549.89719991926677
20
78.913306892384938
30
1.7763568394002501e-14
10
552.21162572482274
20
77.131882105710588
30
1.7763568394002501e-14
10
554.30171538179093
20
75.293578730147729
30
-1.7763568394002501e-14
10
556.1782969869962
20
73.408307290884082
30
1.7763568394002501e-14
10
557.88650474456676
20
71.454162446529153
30
0
10
559.4903527935536
20
69.395326864807686
30
0
10
561.0598252701692
20
67.196962283039937
30
0
10
562.65728082510509
20
64.840842201386891
30
1.7763568394002501e-14
10
564.32324164207876
20
62.342072321880437
30
1.7763568394002501e-14
10
566.07978313095123
20
59.739329507897168
30
0
10
567.93519634674465
20
57.083330209620229
30
-1.7763568394002501e-14
10
569.88824163882703
20
54.425604785586657
30
1.7763568394002501e-14
10
571.93231732395486
20
51.808025531725022
30
1.7763568394002501e-14
10
574.06018599530955
20
49.249898450416836
30
0
10
576.26668508830153
20
46.74288294803857
30
0
10
578.54645322832721
20
44.26518697235862
30
1.7763568394002501e-14
10
580.89266058105034
20
41.791744900264824
30
1.7763568394002501e-14
10
583.29528057172536
20
39.30639482960116
30
0
10
585.73967247125688
20
36.812252350438001
30
1.7763568394002501e-14
10
588.20471851674813
20
34.345217237603116
30
1.7763568394002501e-14
10
590.66205879147742
20
31.979047681832849
30
0
10
593.07949901070378
20
29.79785244088724
30
0
10
595.42366731491836
20
27.874521315291965
30
1.7763568394002501e-14
10
597.66316907077862
20
26.244966519482137
30
0
10
599.77105459332699
20
24.888306374645989
30
0
10
601.72879580004405
20
23.693722081651856
30
0
10
603.52423563624279
20
22.480464176504007
30
1.7763568394002501e-14
10
605.14474714344453
20
21.059522696991536
30
-1.7763568394002501e-14
10
606.57249825435679
20
19.277845749523216
30
1.7763568394002501e-14
10
607.77722774206416
20
17.081873333880736
30
0
10
608.71622594590792
20
14.526979174982618
30
0
10
609.34162126352908
20
11.732121248992184
30
0
10
609.60596355307007
20
8.8479328637862018
30
0
10
609.46801342928188
20
6.0219027682308912
30
3.5527136788005003e-14
10
608.89971540999511
20
3.3586355830891215
30
0
10
608.07282633606883
20
1.3695133885890756
30
0
10
607.23433509756103
20
-0.011596634968739639
30
0
10
606.57048728838743
20
-0.88762061707176321
30
0
10
606.20009997009322
20
-1.326496932540584
30
3.5527136788005003e-14
10
606.17383488989913
20
-1.3573879662906574
30
1.7763568394002501e-14
0
ARC
5
131
100
AcDbEntity
8
0
100
AcDbCircle
10
644.25695217673388
20
3.0175218324638999
30
-5.7777898331617076e-32
40
3.0003453304796395
210
0
220
0
230
1
100
AcDbArc
50
-135.89706938557711
51
44.10292940700559
0
ARC
5
132
100
AcDbEntity
8
0
100
AcDbCircle
10
899.48569776034515
20
104.45769394526917
30
1.7763568394002501e-14
40
14.725398522503683
210
-0
220
0
230
1
100
AcDbArc
50
-80.790393437016476
51
103.11449689218378
0
LINE
5
133
100
AcDbEntity
8
0
100
AcDbLine
10
602.96698699156752
20
-20.28835097573387
30
-1.0217797567675141e-16
11
633.75103793725407
21
9.5465216099811183
31
0
0
LINE
5
134
100
AcDbEntity
8
0
100
AcDbLine
10
505.83406010802571
20
91.294742145354192
30
1.7763568394002489e-14
11
538.810315280091
21
97.533135192330903
31
-1.0408340855860844e-17
0
ARC
5
135
100
AcDbEntity
8
0
100
AcDbCircle
10
615.57919653326542
20
-12.687724548209287
30
-5.0806031932935282e-30
40
14.725398286704136
210
7.704981692468054e-16
220
-9.2819435597947672e-16
230
1
100
AcDbArc
50
129.69621291293063
51
211.07486311693313
0
ARC
5
136
100
AcDbEntity
8
0
100
AcDbCircle
10
517.11864144768481
20
100.7549522700337
30
1.7763568394002489e-14
40
14.725398181864961
210
0
220
0
230
1
100
AcDbArc
50
219.97413425573308
51
269.72354065515776
0
LINE
5
137
100
AcDbEntity
8
0
100
AcDbLine
10
638.06007821227331
20
13.72269932612123
30
0
11
646.41147231424361
21
5.105610690533724
31
0
0
SPLINE
5
138
100
AcDbEntity
8
0
100
AcDbSpline
70
4
71
5
72
61
73
55
74
0
42
0.000000001
43
0.0000000001
44
0.0000000001
40
-0.98151830155543718
40
-0.98151830155543718
40
-0.98151830155543718
40
-0.98151830155543718
40
-0.98151830155543718
40
-0.98151830155543718
40
-0.98000000000000043
40
-0.96000000000000041
40
-0.94000000000000039
40
-0.92000000000000037
40
-0.90000000000000036
40
-0.88000000000000034
40
-0.86000000000000032
40
-0.8400000000000003
40
-0.8200000000000004
40
-0.80000000000000027
40
-0.78000000000000025
40
-0.76000000000000034
40
-0.74000000000000032
40
-0.72000000000000031
40
-0.70000000000000018
40
-0.68000000000000016
40
-0.66000000000000025
40
-0.64000000000000024
40
-0.62000000000000022
40
-0.6000000000000002
40
-0.58000000000000018
40
-0.56000000000000016
40
-0.54000000000000015
40
-0.52000000000000013
40
-0.50000000000000011
40
-0.4800000000000002
40
-0.46000000000000008
40
-0.44000000000000011
40
-0.4200000000000001
40
-0.40000000000000008
40
-0.38000000000000012
40
-0.36000000000000004
40
-0.34000000000000002
40
-0.32000000000000001
40
-0.29999999999999999
40
-0.28000000000000003
40
-0.25999999999999995
40
-0.23999999999999999
40
-0.22
40
-0.20000000000000001
40
-0.17999999999999999
40
-0.16
40
-0.14000000000000001
40
-0.12
40
-0.10000000000000001
40
-0.080000000000000002
40
-0.059999999999999998
40
-0.040000000000000001
40
-0.02
40
0
40
0
40
0
40
0
40
0
40
0
41
1
41
1
41
1
41
1
41
1
41
1
41
1
41
1
41
1
41
1
41
1
41
1
41
1
41
1
41
1
41
1
41
1
41
1
41
1
41
1
41
1
41
1
41
1
41
1
41
1
41
1
41
1
41
1
41
1
41
1
41
1
41
1
41
1
41
1
41
1
41
1
41
1
41
1
41
1
41
1
41
1
41
1
41
1
41
1
41
1
41
1
41
1
41
1
41
1
41
1
41
1
41
1
41
1
41
1
41
1
10
606.17383488989924
20
-1.3573879662905863
30
3.5527136788005003e-14
10
606.20009997009322
20
-1.326496932540584
30
3.5527136788005003e-14
10
606.57048728838743
20
-0.88762061707169215
30
0
10
607.23433509756103
20
-0.011596634968739639
30
1.7763568394002501e-14
10
608.07282633606883
20
1.3695133885892177
30
0
10
608.89971540999511
20
3.3586355830890504
30
0
10
609.46801342928188
20
6.0219027682308912
30
3.5527136788005003e-14
10
609.60596355307007
20
8.8479328637862018
30
3.5527136788005003e-14
10
609.34162126352908
20
11.732121248992184
30
0
10
608.71622594590781
20
14.526979174982653
30
0
10
607.77722774206416
20
17.081873333880736
30
0
10
606.57249825435645
20
19.277845749523181
30
1.7763568394002501e-14
10
605.14474714344419
20
21.059522696991571
30
0
10
603.52423563624279
20
22.480464176504007
30
1.7763568394002501e-14
10
601.72879580004417
20
23.693722081651927
30
0
10
599.77105459332711
20
24.888306374646024
30
0
10
597.66316907077862
20
26.244966519482137
30
1.7763568394002501e-14
10
595.42366731491836
20
27.874521315291965
30
1.7763568394002501e-14
10
593.07949901070378
20
29.79785244088724
30
0
10
590.66205879147742
20
31.979047681832849
30
0
10
588.20471851674813
20
34.345217237603045
30
1.7763568394002501e-14
10
585.73967247125688
20
36.812252350438001
30
1.7763568394002501e-14
10
583.29528057172536
20
39.30639482960116
30
0
10
580.89266058105034
20
41.791744900264824
30
1.7763568394002501e-14
10
578.54645322832721
20
44.26518697235862
30
1.7763568394002501e-14
10
576.26668508830153
20
46.74288294803857
30
0
10
574.06018599530955
20
49.249898450416836
30
1.7763568394002501e-14
10
571.93231732395486
20
51.808025531724951
30
1.7763568394002501e-14
10
569.88824163882703
20
54.425604785586728
30
1.7763568394002501e-14
10
567.93519634674465
20
57.0833302096203
30
-1.7763568394002501e-14
10
566.07978313095123
20
59.739329507897168
30
0
10
564.32324164207876
20
62.342072321880508
30
1.7763568394002501e-14
10
562.65728082510498
20
64.840842201387005
30
1.7763568394002501e-14
10
561.0598252701692
20
67.196962283039937
30
0
10
559.49035279355382
20
69.395326864807657
30
0
10
557.88650474456642
20
71.454162446529267
30
0
10
556.17829698699597
20
73.408307290884181
30
1.7763568394002501e-14
10
554.30171538179093
20
75.2935787301478
30
0
10
552.21162572482274
20
77.131882105710588
30
1.7763568394002501e-14
10
549.89719991926677
20
78.913306892384938
30
1.7763568394002501e-14
10
547.38950169789223
20
80.587847907750287
30
0
10
544.74457077446107
20
82.087232998032533
30
0
10
542.03083977564791
20
83.341457847486637
30
0
10
539.31486356393725
20
84.297433312843395
30
0
10
536.64784020323827
20
84.936679497708809
30
0
10
534.05158207178101
20
85.293783891166555
30
0
10
531.52623255684819
20
85.438957475296149
30
1.7763568394002501e-14
10
529.05836405258788
20
85.459726964022366
30
0
10
526.62845759902962
20
85.444143495957064
30
1.7763568394002501e-14
10
524.21965197282043
20
85.460685032261608
30
0
10
521.82244423267616
20
85.548645600536389
30
1.7763568394002501e-14
10
519.9099816708142
20
85.692180665321388
30
1.7763568394002501e-14
10
518.47790650863681
20
85.843840367972163
30
1.7763568394002501e-14
10
517.52419443618146
20
85.96450459725888
30
1.7763568394002501e-14
10
517.04758982447856
20
86.029725505011982
30
0
0
SPLINE
5
139
100
AcDbEntity
8
0
100
AcDbSpline
70
4
71
5
72
46
73
40
74
0
42
0.000000001
43
0.0000000001
44
0.0000000001
40
-1
40
-1
40
-1
40
-1
40
-1
40
-1
40
-0.97142857142857164
40
-0.94285714285714295
40
-0.91428571428571459
40
-0.8857142857142859
40
-0.85714285714285732
40
-0.82857142857142863
40
-0.80000000000000016
40
-0.77142857142857146
40
-0.74285714285714299
40
-0.71428571428571441
40
-0.68571428571428583
40
-0.65714285714285725
40
-0.62857142857142867
40
-0.60000000000000009
40
-0.57142857142857151
40
-0.54285714285714293
40
-0.51428571428571435
40
-0.48571428571428582
40
-0.4571428571428573
40
-0.42857142857142871
40
-0.40000000000000008
40
-0.3714285714285715
40
-0.34285714285714292
40
-0.31428571428571433
40
-0.2857142857142857
40
-0.25714285714285717
40
-0.22857142857142854
40
-0.20000000000000001
40
-0.17142857142857146
40
-0.14285714285714285
40
-0.11428571428571427
40
-0.085714285714285715
40
-0.057142857142857134
40
-0.028571428571428567
40
-7.3512272106394502e-05
40
-7.3512272106394502e-05
40
-7.3512272106394502e-05
40
-7.3512272106394502e-05
40
-7.3512272106394502e-05
40
-7.3512272106394502e-05
41
1
41
1
41
1
41
1
41
1
41
1
41
1
41
1
41
1
41
1
41
1
41
1
41
1
41
1
41
1
41
1
41
1
41
1
41
1
41
1
41
1
41
1
41
1
41
1
41
1
41
1
41
1
41
1
41
1
41
1
41
1
41
1
41
1
41
1
41
1
41
1
41
1
41
1
41
1
41
1
10
901.84244912325937
20
89.922113989176623
30
1.7763568394002501e-14
10
900.73256699766421
20
89.742376606241891
30
0
10
898.55448888965088
20
89.371056512063603
30
1.7763568394002501e-14
10
895.41235568130321
20
88.778519350744617
30
3.5527136788005003e-14
10
891.47379207207746
20
87.917443920027068
30
1.7763568394002501e-14
10
886.90165261538527
20
86.703741507084104
30
1.7763568394002501e-14
10
882.48753424993708
20
85.300045475026394
30
0
10
877.81872849682543
20
83.59502499987272
30
1.7763568394002501e-14
10
872.30943661629931
20
81.433307029792417
30
1.7763568394002501e-14
10
865.35014040767521
20
78.65916250966464
30
1.7763568394002501e-14
10
856.42953238839209
20
75.152573430241617
30
1.7763568394002501e-14
10
845.26245631312895
20
70.866840712692863
30
0
10
831.93189587639631
20
65.870749046547004
30
0
10
816.82296988139683
20
60.325846021343665
30
1.7763568394002501e-14
10
800.53339976781217
20
54.456415703356633
30
1.7763568394002501e-14
10
783.79388740154286
20
48.522511652764422
30
1.7763568394002501e-14
10
767.38543408486908
20
42.792021343495392
30
1.7763568394002501e-14
10
752.05829959726304
20
37.513189058859034
30
0
10
738.45062818222095
20
32.887017578882741
30
1.7763568394002501e-14
10
727.00564104112982
20
29.039094719006592
30
0
10
717.89057093267593
20
25.992056751282302
30
1.7763568394002501e-14
10
710.90778479600658
20
23.635159030666827
30
1.7763568394002501e-14
10
705.42216321641706
20
21.699865018771817
30
0
10
700.59878867824523
20
19.849771928759196
30
1.7763568394002501e-14
10
695.63055740579546
20
17.76694843085447
30
0
10
689.95820054733497
20
15.235305810850331
30
0
10
683.5235358392124
20
12.236835017623839
30
0
10
676.62736043130724
20
8.8957275328957071
30
0
10
669.74168127683106
20
5.4049606984623892
30
0
10
663.34182462731155
20
1.9605597897141105
30
1.7763568394002501e-14
10
657.7251266888419
20
-1.3092940404264686
30
1.7763568394002501e-14
10
652.84991222323868
20
-4.4073040208384917
30
1.7763568394002501e-14
10
648.46743214441585
20
-7.4169582050905056
30
1.7763568394002501e-14
10
644.23438446053842
20
-10.459890886415987
30
0
10
639.8382697584459
20
-13.648361639689337
30
3.5527136788005003e-14
10
635.1016543045447
20
-17.044858263669095
30
1.7763568394002501e-14
10
630.96680131246251
20
-19.954854409801612
30
0
10
627.6591475361472
20
-22.249841359045739
30
0
10
625.36307148049036
20
-23.829285353480657
30
1.7763568394002501e-14
10
624.19359358453971
20
-24.630484360964676
30
0
0
LINE
5
140
100
AcDbEntity
8
0
100
AcDbLine
10
613.07881418382533
20
-27.199286718037186
30
-5.0806031932935282e-30
11
642.10243207033955
21
0.92943294228857365
31
0
0
ARC
5
141
100
AcDbEntity
8
0
100
AcDbCircle
10
541.75803186098869
20
98.090779307066796
30
-5.7777898331617082e-33
40
2.9999999999998197
210
-3.4089821022733131e-18
220
-6.4490555804853255e-19
230
1
100
AcDbArc
50
-169.28747738915212
51
10.7125226108448
0
ARC
5
142
100
AcDbEntity
8
0
100
AcDbCircle
10
635.9055580747638
20
11.634610468051207
30
-5.5851968387229829e-32
40
3.0003453304794832
210
-1.3367388001852925e-32
220
-1.2955225371174288e-32
230
1
100
AcDbArc
50
44.10292913563886
51
224.10292913563674
0
LINE
5
143
100
AcDbEntity
8
0
100
AcDbLine
10
646.41147231424361
20
5.105610690533724
30
0
11
638.06007821227331
21
13.72269932612123
31
0
0
ARC
5
144
100
AcDbEntity
8
0
100
AcDbCircle
10
517.11864144768504
20
100.75495227003361
30
1.7763568394002489e-14
40
14.725398181864799
210
-4.3072081365723102e-16
220
1.1268060137789553e-15
230
1
100
AcDbArc
50
110.91932092680631
51
171.67904936862323
0
SPLINE
5
145
100
AcDbEntity
8
0
100
AcDbSpline
70
4
71
5
72
56
73
50
74
0
42
0.000000001
43
0.0000000001
44
0.0000000001
40
-1
40
-1
40
-1
40
-1
40
-1
40
-1
40
-0.97777777777777797
40
-0.95555555555555605
40
-0.93333333333333379
40
-0.91111111111111143
40
-0.88888888888888906
40
-0.86666666666666692
40
-0.84444444444444455
40
-0.82222222222222241
40
-0.80000000000000016
40
-0.7777777777777779
40
-0.75555555555555554
40
-0.73333333333333339
40
-0.71111111111111125
40
-0.68888888888888888
40
-0.66666666666666663
40
-0.64444444444444438
40
-0.62222222222222212
40
-0.59999999999999987
40
-0.57777777777777761
40
-0.55555555555555536
40
-0.5333333333333331
40
-0.51111111111111085
40
-0.48888888888888871
40
-0.46666666666666651
40
-0.44444444444444425
40
-0.42222222222222211
40
-0.39999999999999991
40
-0.37777777777777771
40
-0.35555555555555546
40
-0.33333333333333331
40
-0.31111111111111106
40
-0.28888888888888892
40
-0.26666666666666666
40
-0.24444444444444449
40
-0.22222222222222224
40
-0.20000000000000001
40
-0.17777777777777778
40
-0.15555555555555556
40
-0.13333333333333333
40
-0.11111111111111112
40
-0.088888888888888906
40
-0.066666666666666666
40
-0.044444444444444453
40
-0.022222222222222227
40
0
40
0
40
0
40
0
40
0
40
0
41
1
41
1
41
1
41
1
41
1
41
1
41
1
41
1
41
1
41
1
41
1
41
1
41
1
41
1
41
1
41
1
41
1
41
1
41
1
41
1
41
1
41
1
41
1
41
1
41
1
41
1
41
1
41
1
41
1
41
1
41
1
41
1
41
1
41
1
41
1
41
1
41
1
41
1
41
1
41
1
41
1
41
1
41
1
41
1
41
1
41
1
41
1
41
1
41
1
41
1
10
861.56355167405172
20
97.212933027149035
30
3.5527136788005003e-14
10
861.38407784842104
20
97.519543194799439
30
1.7763568394002501e-14
10
860.97465898107748
20
98.115139404894919
30
1.7763568394002501e-14
10
860.21126106279394
20
98.94851446395532
30
1.7763568394002501e-14
10
858.91979930540288
20
99.910724248662888
30
1.7763568394002501e-14
10
856.96734009999261
20
100.79939292132084
30
1.7763568394002501e-14
10
854.82436239036804
20
101.32236902035302
30
0
10
852.64137170470747
20
101.45093511541387
30
0
10
850.54777340129806
20
101.18603023515973
30
1.7763568394002501e-14
10
848.62075339723197
20
100.56988104589391
30
0
10
846.88226761601277
20
99.678817441484597
30
0
10
845.31754423904783
20
98.602048634037928
30
0
10
843.88742778221444
20
97.423859306857722
30
0
10
842.54272919827883
20
96.205951069257324
30
1.7763568394002501e-14
10
841.23867614681387
20
94.965978271644232
30
1.7763568394002501e-14
10
839.94606360721923
20
93.66947249636317
30
0
10
838.6524595040413
20
92.258440885134746
30
1.7763568394002501e-14
10
837.36520757322921
20
90.672585461941381
30
0
10
836.11412871549476
20
88.874224016672599
30
1.7763568394002501e-14
10
834.95361420666256
20
86.869838474210951
30
0
10
833.96718836341449
20
84.738087006760992
30
0
10
833.25076571236514
20
82.607467171852704
30
1.7763568394002501e-14
10
832.89314147347181
20
80.626561187133561
30
0
10
832.95598629682399
20
78.935668055840836
30
0
10
833.45722523986581
20
77.640760598701746
30
1.7763568394002501e-14
10
834.34487588176739
20
76.779258232736325
30
0
10
835.50307060518378
20
76.314373114981464
30
1.7763568394002501e-14
10
836.80606645836224
20
76.172290719416651
30
0
10
838.16056665782548
20
76.268837614068303
30
1.7763568394002501e-14
10
839.5531370158767
20
76.540530036183156
30
1.7763568394002501e-14
10
841.01909288022625
20
76.941486779785464
30
0
10
842.61048720642748
20
77.440870002037272
30
1.7763568394002501e-14
10
844.36696529345329
20
78.020176714540355
30
1.7763568394002501e-14
10
846.27911603587108
20
78.670519406643223
30
0
10
848.29408245307513
20
79.390672874349377
30
0
10
850.3355753110111
20
80.185426973255971
30
0
10
852.31900504009559
20
81.063852630663263
30
1.7763568394002501e-14
10
854.16867691757056
20
82.037620888093485
30
1.7763568394002501e-14
10
855.83395135522153
20
83.119298154952403
30
1.7763568394002501e-14
10
857.30636146115921
20
84.320673372201611
30
1.7763568394002501e-14
10
858.60184281320642
20
85.649942992491162
30
1.7763568394002501e-14
10
859.74311163841276
20
87.108930797866066
30
0
10
860.74111903740823
20
88.690153388127996
30
0
10
861.57896283948105
20
90.374185282636489
30
0
10
862.18927676573435
20
92.12615462594114
30
0
10
862.47354196790593
20
93.897635569890369
30
0
10
862.36065890835016
20
95.28348621305804
30
0
10
862.05150193486224
20
96.27547839899195
30
0
10
861.74302549968274
20
96.906322859498403
30
0
10
861.56355167405172
20
97.212933027149035
30
3.5527136788005003e-14
0
ARC
5
146
100
AcDbEntity
8
0
100
AcDbCircle
10
899.48569776034515
20
104.45769394526931
30
1.7763568394002501e-14
40
14.725398522503824
210
-0
220
0
230
1
100
AcDbArc
50
-80.790393437016576
51
103.11449689218391
0
ENDSEC
0
SECTION
2
OBJECTS
0
DICTIONARY
5
C
100
AcDbDictionary
3
ACAD_GROUP
350
D
3
ACAD_MLINESTYLE
350
17
0
DICTIONARY
5
D
100
AcDbDictionary
0
DICTIONARY
5
1A
330
C
100
AcDbDictionary
0
DICTIONARY
5
17
100
AcDbDictionary
0
ENDSEC
0
EOF
