0
SECTION
2
HEADER
9
$INSUNITS
70
4
9
$ACADVER
1
AC1014
9
$HANDSEED
5
FFFF
0
ENDSEC
0
SECTION
2
TABLES
0
TABLE
2
VPORT
5
8
100
AcDbSymbolTable
0
ENDTAB
0
TABLE
2
LTYPE
5
5
100
AcDbSymbolTable
0
LTYPE
5
14
100
AcDbSymbolTableRecord
100
AcDbLinetypeTableRecord
2
BYBLOCK
70
0
0
LTYPE
5
15
100
AcDbSymbolTableRecord
100
AcDbLinetypeTableRecord
2
BYLAYER
70
0
0
ENDTAB
0
TABLE
2
LAYER
5
2
100
AcDbSymbolTable
70
2
0
LAYER
5
50
100
AcDbSymbolTableRecord
100
AcDbLayerTableRecord
2
0
70
0
6
CONTINUOUS
0
ENDTAB
0
TABLE
2
STYLE
5
3
100
AcDbSymbolTable
70
1
0
STYLE
5
11
100
AcDbSymbolTableRecord
100
AcDbTextStyleTableRecord
2
STANDARD
70
0
0
ENDTAB
0
TABLE
2
VIEW
5
6
100
AcDbSymbolTable
70
0
0
ENDTAB
0
TABLE
2
UCS
5
7
100
AcDbSymbolTable
70
0
0
ENDTAB
0
TABLE
2
APPID
5
9
100
AcDbSymbolTable
70
2
0
APPID
5
12
100
AcDbSymbolTableRecord
100
AcDbRegAppTableRecord
2
ACAD
70
0
0
ENDTAB
0
TABLE
2
DIMSTYLE
5
A
100
AcDbSymbolTable
70
1
0
ENDTAB
0
TABLE
2
BLOCK_RECORD
5
1
100
AcDbSymbolTable
70
1
0
BLOCK_RECORD
5
1F
100
AcDbSymbolTableRecord
100
AcDbBlockTableRecord
2
*MODEL_SPACE
0
BLOCK_RECORD
5
1B
100
AcDbSymbolTableRecord
100
AcDbBlockTableRecord
2
*PAPER_SPACE
0
ENDTAB
0
ENDSEC
0
SECTION
2
BLOCKS
0
BLOCK
5
20
100
AcDbEntity
100
AcDbBlockBegin
2
*MODEL_SPACE
0
ENDBLK
5
21
100
AcDbEntity
100
AcDbBlockEnd
0
BLOCK
5
1C
100
AcDbEntity
100
AcDbBlockBegin
2
*PAPER_SPACE
0
ENDBLK
5
1D
100
AcDbEntity
100
AcDbBlockEnd
0
ENDSEC
0
SECTION
2
ENTITIES
0
LWPOLYLINE
5
100
100
AcDbEntity
8
0
100
AcDbPolyline
90
13
70
1
43
0.0
10
559.90481326305598
20
96.206299712966057
10
565.25928710798769
20
96.103542512420972
10
569.05247394710636
20
98.116999262580862
10
570.52322116591472
20
102.58181374199378
10
569.40753203966767
20
107.87406970450846
10
563.99061219768964
20
118.29781024639968
10
560.69446716142511
20
122.84256725978108
10
556.63431794833866
20
124.8814101276502
10
552.44474644940033
20
123.2413693727197
10
549.59085035416638
20
119.74414617268326
10
546.23829984565145
20
110.07938400668041
10
546.15569393521162
20
104.20762829982908
10
548.82021969034793
20
99.511923399569639
0
LWPOLYLINE
5
101
100
AcDbEntity
8
0
100
AcDbPolyline
90
14
70
1
43
0.0
10
559.71326778598404
20
55.597017249101093
10
562.53267862250425
20
59.370757149274702
10
564.53133424002863
20
64.662150173559567
10
564.91914785351719
20
73.056082797197988
10
564.53684585036115
20
79.895799329819539
10
562.19379445845289
20
84.583177933456639
10
557.22689253044223
20
88.103156153368161
10
550.94054418604514
20
89.892205364208422
10
544.69521388502449
20
90.172049897889437
10
540.37903495603712
20
87.890064379943283
10
539.1746639795208
20
82.394974164221367
10
539.84470110019163
20
76.265676162125573
10
544.97167799515034
20
65.536528641465537
10
555.72007937718172
20
55.835153371876238
0
LWPOLYLINE
5
102
100
AcDbEntity
8
0
100
AcDbPolyline
90
15
70
1
43
0.0
10
527.31980522580807
20
48.480131061663592
10
526.94955433398684
20
40.64882211508408
10
528.5299887878956
20
34.785930056797163
10
533.13488636145564
20
30.313489610829265
10
540.04545067100605
20
26.551457536164129
10
546.72780167954511
20
22.953652353465337
10
551.17691499968839
20
21.273094855516241
10
554.28839798805154
20
24.025576939400075
10
556.93149652124032
20
29.325361627738964
10
555.89397423054925
20
36.214111766161352
10
552.39724349824326
20
42.672166680578734
10
545.8793011453788
20
53.608084658772377
10
541.59095373763171
20
58.655763150888731
10
536.2422939987589
20
60.867812589313957
10
530.58939580014555
20
56.669459039203396
0
ARC
5
103
100
AcDbEntity
8
0
100
AcDbCircle
10
552.40992608515535
20
-76.970479133862682
30
0
40
14.725398181865099
210
0
220
0
230
1
100
AcDbArc
50
191.41243152376049
51
272.79108172776432
0
LINE
5
104
100
AcDbEntity
8
0
100
AcDbLine
10
395.37244854030712
20
-88.598223246446139
30
0
11
391.25262544793003
21
-108.03491027636869
31
0
0
LWPOLYLINE
5
105
100
AcDbEntity
8
0
100
AcDbPolyline
90
11
70
1
43
0.0
10
579.85443550813557
20
185.931103122227
10
576.66609804244433
20
190.01617316648702
10
572.18711101723773
20
191.72138986422817
10
567.20946813266255
20
189.55573355627664
10
563.8047216085339
20
184.63564315438242
10
564.18610800830652
20
174.06326112995654
10
568.57280972819808
20
163.65098822645166
10
572.71087316906028
20
159.07491906686781
10
576.66813447206482
20
157.94401645382931
10
580.33788829524599
20
164.25999823048221
10
581.96426392507249
20
175.37788805248172
0
LINE
5
106
100
AcDbEntity
8
0
100
AcDbLine
10
398.0119027193843
20
-74.920663478449939
30
0
11
395.37244854030712
21
-88.598223246446139
31
0
0
LWPOLYLINE
5
107
100
AcDbEntity
8
0
100
AcDbPolyline
90
12
70
1
43
0.0
10
444.09959943570937
20
-83.424834328144357
10
438.3953104474287
20
-83.089168044082953
10
434.26456575955348
20
-81.189840802631721
10
432.99009071018298
20
-77.663060017495383
10
435.1102430186495
20
-72.738966956730621
10
446.23473721991553
20
-62.126567954076428
10
451.8442234438744
20
-58.904855268961391
10
455.64163092865283
20
-58.141893014703889
10
459.94721229875267
20
-61.55186662879526
10
462.41971043911491
20
-69.480375015632035
10
460.34379692554529
20
-74.544622550603179
10
455.93655708352009
20
-79.072666608349891
0
LWPOLYLINE
5
108
100
AcDbEntity
8
0
100
AcDbPolyline
90
13
70
1
43
0.0
10
481.12993330081281
20
-48.534128126042724
10
474.1008886991728
20
-50.964183944430594
10
469.03584331378448
20
-54.465551105618211
10
467.79950538425049
20
-58.8379460096915
10
470.47111837199805
20
-63.281055630016958
10
482.29599073314591
20
-68.885530578028067
10
494.61379797028837
20
-69.358810966054818
10
499.25723980193112
20
-67.567027639762102
10
502.00914040517728
20
-63.521014337357578
10
502.23406150927133
20
-58.725400526125746
10
500.1566397487635
20
-54.929775416658764
10
493.10199943007433
20
-48.440655354136233
10
487.85350273306744
20
-47.445616652745493
0
LWPOLYLINE
5
109
100
AcDbEntity
8
0
100
AcDbPolyline
90
12
70
1
43
0.0
10
458.95209798808185
20
-29.06519729545348
10
467.37637009661034
20
-17.482111481030991
10
471.36910497476828
20
-15.367660877353124
10
474.76371652291039
20
-16.050590051592302
10
479.99078815541537
20
-21.61541849333954
10
483.501005789864
20
-30.871970561467883
10
482.07051234952348
20
-35.751514141396648
10
477.58500117375576
20
-39.87633970525156
10
463.42067437981342
20
-43.885980684054964
10
457.60808337111155
20
-43.100685046685463
10
455.00155779574231
20
-40.239040703395439
10
455.81585153353979
20
-35.390588779472374
0
LWPOLYLINE
5
110
100
AcDbEntity
8
0
100
AcDbPolyline
90
13
70
1
43
0.0
10
497.44347720463463
20
-28.844105965240523
10
500.90667624048524
20
-25.598334500317854
10
503.10271292236422
20
-20.412502514579209
10
506.59121825503109
20
-8.425913373508287
10
507.8023336053501
20
3.0252353242024199
10
506.21083756107737
20
7.1882347037139027
10
502.29491768012269
20
8.6760006584589178
10
495.90993741338889
20
6.7150094398129312
10
489.0311898173178
20
2.5438661911096361
10
484.41469706259312
20
-2.1156345517802677
10
483.28479102689187
20
-7.4008159631000225
10
488.47718163478822
20
-22.538704739884672
10
492.93570552039904
20
-28.093131010405763
0
LINE
5
111
100
AcDbEntity
8
0
100
AcDbLine
10
517.53578576344376
20
-70.328576100107767
30
0
11
525.04896133449233
21
-70.182919834082583
31
0
0
LWPOLYLINE
5
112
100
AcDbEntity
8
0
100
AcDbPolyline
90
13
70
1
43
0.0
10
448.49374038065969
20
-39.54914425982718
10
447.30451288652523
20
-48.861488074068653
10
445.06609751299806
20
-53.157955882421426
10
441.25617356043955
20
-55.875698762344648
10
429.91676195046836
20
-56.659691908479637
10
423.74186858565213
20
-55.01011003116357
10
419.11920022398192
20
-51.939429345962544
10
418.24244410068957
20
-47.269277264458829
10
422.41970308207527
20
-41.317765299603302
10
430.45132414323285
20
-35.463555771451389
10
439.18748153617577
20
-31.640055661741791
10
445.46907411996045
20
-31.145682199135969
10
448.11803631016619
20
-33.447480905796887
0
LINE
5
113
100
AcDbEntity
8
0
100
AcDbLine
10
504.9812940451767
20
25.584041629187517
30
0
11
497.66912994656167
21
22.026652090226477
31
0
0
LINE
5
114
100
AcDbEntity
8
0
100
AcDbLine
10
551.35044347390954
20
-41.388046595472723
30
0
11
539.80492012033881
21
-44.659268155097145
31
0
0
LINE
5
115
100
AcDbEntity
8
0
100
AcDbLine
10
541.44071917556926
20
-50.432694335401997
30
0
11
553.12696906862709
21
-91.678409000921846
31
0
0
LWPOLYLINE
5
116
100
AcDbEntity
8
0
100
AcDbPolyline
90
13
70
1
43
0.0
10
529.30368473338103
20
23.660942937663272
10
520.05561341275995
20
25.145483020213142
10
516.0070042507075
20
20.575120831453333
10
513.60295186686164
20
12.679921017437259
10
513.60455882763483
20
4.9988820048726623
10
516.10595574494766
20
-0.082804917163947778
10
527.05596747053119
20
-4.3006138035540431
10
541.38886037118641
20
-3.3551150719888412
10
547.5922864407504
20
0.17734704830388637
10
551.08403199517647
20
4.5283873113228168
10
549.94030619201465
20
9.0045874565744199
10
543.82354994070988
20
14.602575027265132
10
535.74613411172049
20
20.192259573458671
0
ARC
5
117
100
AcDbEntity
8
0
100
AcDbCircle
10
408.43764947187742
20
-85.86437602579079
30
0
40
2.9999999999999534
210
0
220
-0
230
1
100
AcDbArc
50
72.42874122167666
51
252.42874122167959
0
LWPOLYLINE
5
118
100
AcDbEntity
8
0
100
AcDbPolyline
90
13
70
1
43
0.0
10
526.51422550876225
20
-31.674602511136847
10
528.30540315661665
20
-48.64350160945353
10
527.35335649607225
20
-56.657793660078219
10
524.9205363762261
20
-61.434096369096629
10
520.61854909205283
20
-61.556046532746329
10
514.98234882640008
20
-58.136817016081643
10
505.21329458848584
20
-48.374012616285036
10
503.76701843698152
20
-43.523063135338838
10
505.23716375053266
20
-38.047447688763363
10
512.69043082695021
20
-25.384668421837837
10
516.35059621551636
20
-21.49977038229796
10
519.77653271300153
20
-21.61541849333954
10
523.4232109667181
20
-25.333528333868252
0
ARC
5
119
100
AcDbEntity
8
0
100
AcDbCircle
10
419.87775617608639
20
-89.487076482123655
30
0
40
3
210
0
220
0
230
1
100
AcDbArc
50
-107.57125877832179
51
72.428741221677001
0
LINE
5
120
100
AcDbEntity
8
0
100
AcDbLine
10
431.34641571769868
20
-97.802064909023699
30
0
11
438.68702549490354
21
-92.472285369766894
31
0
0
LINE
5
121
100
AcDbEntity
8
0
100
AcDbLine
10
552.9862425291401
20
-47.161472775777646
30
0
11
564.00419632956016
21
-86.048488097943874
31
0
0
LINE
5
122
100
AcDbEntity
8
0
100
AcDbLine
10
565.35929753179335
20
-60.846367284880039
30
0
11
563.78206423560368
21
-48.757151907077905
31
0
0
ARC
5
123
100
AcDbEntity
8
0
100
AcDbCircle
10
405.85655177614126
20
-109.92241853188571
30
0
40
14.725398181864788
210
0
220
0
230
1
100
AcDbArc
50
172.63553953763869
51
233.39526797945348
0
ARC
5
124
100
AcDbEntity
8
0
100
AcDbCircle
10
552.16834300152482
20
-44.27475968562522
30
0
40
3.0003453304795809
210
-0
220
0
230
1
100
AcDbArc
50
-74.180852253528144
51
105.81914774647151
0
LINE
5
125
100
AcDbEntity
8
0
100
AcDbLine
10
563.78206423560368
20
-48.757151907077905
30
0
11
562.56638398343512
21
-36.90515989483476
31
0
0
LINE
5
126
100
AcDbEntity
8
0
100
AcDbLine
10
493.5810984933413
20
-80.106051868890688
30
0
11
503.49901798177825
21
-76.929055694259347
31
0
0
LINE
5
127
100
AcDbEntity
8
0
100
AcDbLine
10
511.36788490533536
20
-73.329012204748636
30
0
11
517.53578576344376
21
-70.328576100107767
31
0
0
LINE
5
128
100
AcDbEntity
8
0
100
AcDbLine
10
407.5319743577943
20
-88.724402701843104
30
0
11
397.07592676106128
21
-121.74350037573657
31
0
0
LINE
5
129
100
AcDbEntity
8
0
100
AcDbLine
10
402.95325350957575
20
-56.513179077205358
30
0
11
398.0119027193843
21
-74.920663478449939
31
0
0
LINE
5
130
100
AcDbEntity
8
0
100
AcDbLine
10
438.68702549490354
20
-92.472285369766894
30
0
11
454.64652930235565
21
-87.3418974386976
31
0
0
LINE
5
131
100
AcDbEntity
8
0
100
AcDbLine
10
525.04896133449233
20
-70.182919834082583
30
0
11
532.97129010450158
21
-73.576221812664102
31
0
0
LINE
5
132
100
AcDbEntity
8
0
100
AcDbLine
10
583.55208666694625
20
135.57364720411084
30
0
11
585.97974503204409
21
152.63933264183675
31
0
0
LINE
5
133
100
AcDbEntity
8
0
100
AcDbLine
10
418.7900890364586
20
-116.96237347140436
30
0
11
426.37618693953766
21
-104.2043722605622
31
0
0
LINE
5
134
100
AcDbEntity
8
0
100
AcDbLine
10
562.56638398343512
20
-36.90515989483476
30
0
11
562.17196045152025
21
-22.44085817541599
31
0
0
LINE
5
135
100
AcDbEntity
8
0
100
AcDbLine
10
532.97129010450158
20
-73.576221812664102
30
0
11
537.97567446181927
21
-79.884194078102155
31
0
0
LINE
5
136
100
AcDbEntity
8
0
100
AcDbLine
10
565.01575390560993
20
20.353404638320889
30
0
11
566.14159390550583
21
27.367136792063498
31
0
0
LINE
5
137
100
AcDbEntity
8
0
100
AcDbLine
10
590.66472354675273
20
189.28305062600501
30
0
11
592.33932780287512
21
202.58526724935928
31
0
0
LINE
5
138
100
AcDbEntity
8
0
100
AcDbLine
10
420.78343129016963
20
-86.627049806071426
30
0
11
409.34332458596066
21
-83.004349349738618
31
0
0
LWPOLYLINE
5
139
100
AcDbEntity
8
0
100
AcDbPolyline
90
12
70
1
43
0.0
10
565.84398928700944
20
157.55960219870383
10
561.44827770775987
20
158.39397614515883
10
558.00562846642663
20
155.45967364601842
10
556.24689162841833
20
150.73133189279625
10
555.88621636254527
20
139.42909680499056
10
557.24039273434596
20
134.19881709298156
10
560.16279364877869
20
130.64326858822201
10
568.08386725822015
20
124.93687957008444
10
571.85259109159779
20
125.49506832864355
10
573.76018178321442
20
129.70621560104615
10
573.23710891932865
20
143.05261089391163
10
569.6305691598476
20
153.97425847511852
0
LINE
5
140
100
AcDbEntity
8
0
100
AcDbLine
10
449.76840162955449
20
-17.27416428840403
30
0
11
432.12606540201864
21
-25.9763519138858
31
0
0
LINE
5
141
100
AcDbEntity
8
0
100
AcDbLine
10
511.67833832326482
20
31.634536929820634
30
0
11
504.9812940451767
21
25.584041629187517
31
0
0
ARC
5
142
100
AcDbEntity
8
0
100
AcDbCircle
10
552.40992608515535
20
-76.970479133862682
30
0
40
14.725398076187062
210
0
220
0
230
1
100
AcDbArc
50
-38.060010750798341
51
7.5193965737409423
0
LINE
5
143
100
AcDbEntity
8
0
100
AcDbLine
10
567.01064757630593
20
-75.06166787092215
30
0
11
565.35929753179335
21
-60.846367284880039
31
0
0
ARC
5
144
100
AcDbEntity
8
0
100
AcDbCircle
10
540.62281964795397
20
-47.545981245249571
30
0
40
3.0003453304795809
210
0
220
0
230
1
100
AcDbArc
50
105.8191477464698
51
285.81914774647186
0
LINE
5
145
100
AcDbEntity
8
0
100
AcDbLine
10
585.97974503204409
20
152.63933264183675
30
0
11
587.98120573454935
21
167.49666405136435
31
0
0
LINE
5
146
100
AcDbEntity
8
0
100
AcDbLine
10
418.97208106200321
20
-92.347103158175912
30
0
11
408.84024754091905
21
-124.34236690896793
31
0
0
LINE
5
147
100
AcDbEntity
8
0
100
AcDbLine
10
587.98120573454935
20
167.49666405136435
30
0
11
589.52404012706177
21
179.70675888287553
31
0
0
LINE
5
148
100
AcDbEntity
8
0
100
AcDbLine
10
560.82013979223268
20
198.10112058468192
30
0
11
557.15739972893527
21
183.33043934817351
31
0
0
LINE
5
149
100
AcDbEntity
8
0
100
AcDbLine
10
416.05301194724626
20
-36.4149458169911
30
0
11
408.4998306332688
21
-45.993012053012485
31
0
0
LINE
5
150
100
AcDbEntity
8
0
100
AcDbLine
10
464.14151619647987
20
-7.1250228722655606
30
0
11
449.76840162955449
21
-17.27416428840403
31
0
0
LINE
5
151
100
AcDbEntity
8
0
100
AcDbLine
10
454.64652930235565
20
-87.3418974386976
30
0
11
473.41962170808671
21
-85.091782056961563
31
0
0
LINE
5
152
100
AcDbEntity
8
0
100
AcDbLine
10
542.837436323117
20
122.26413337637285
30
0
11
539.50200843391281
21
109.58744004770952
31
0
0
LINE
5
153
100
AcDbEntity
8
0
100
AcDbLine
10
563.60074316401187
20
8.470567554934334
30
0
11
565.01575390560993
21
20.353404638320889
31
0
0
LINE
5
154
100
AcDbEntity
8
0
100
AcDbLine
10
529.14287190706079
20
75.659928433545105
30
0
11
523.86071972449668
21
58.765607249567147
31
0
0
LINE
5
155
100
AcDbEntity
8
0
100
AcDbLine
10
408.4998306332688
20
-45.993012053012485
30
0
11
402.95325350957575
21
-56.513179077205358
31
0
0
LINE
5
156
100
AcDbEntity
8
0
100
AcDbLine
10
562.17196045152025
20
-22.44085817541599
30
0
11
562.6541403818751
21
-5.9279441789853848
31
0
0
LINE
5
157
100
AcDbEntity
8
0
100
AcDbLine
10
569.5639610174976
20
232.40214008138491
30
0
11
563.71616615039989
21
209.13656766629245
31
0
0
CIRCLE
5
158
100
AcDbEntity
8
0
100
AcDbCircle
10
583.9440321719668
20
220
30
0
40
3.0000000000000049
210
0
220
0
230
1
0
LINE
5
159
100
AcDbEntity
8
0
100
AcDbLine
10
523.86071972449668
20
58.765607249567147
30
0
11
517.9491331983279
21
42.926340386578232
31
0
0
LINE
5
160
100
AcDbEntity
8
0
100
AcDbLine
10
592.33932780287512
20
202.58526724935928
30
0
11
597.69320090814313
21
223.73677679684681
31
0
0
ARC
5
161
100
AcDbEntity
8
0
100
AcDbCircle
10
583.77628118225209
20
228.54891841879254
30
0
40
14.72539852250385
210
-0
220
0
230
1
100
AcDbArc
50
-19.074174826185821
51
168.28703100329705
0
LINE
5
162
100
AcDbEntity
8
0
100
AcDbLine
10
539.50200843391281
20
109.58744004770952
30
0
11
533.4590836631038
21
90.008810282018914
31
0
0
LINE
5
163
100
AcDbEntity
8
0
100
AcDbLine
10
481.42463190426281
20
9.4526469917424549
30
0
11
464.14151619647987
21
-7.1250228722655606
31
0
0
LINE
5
164
100
AcDbEntity
8
0
100
AcDbLine
10
589.52404012706177
20
179.70675888287553
30
0
11
590.66472354675273
21
189.28305062600501
31
0
0
LINE
5
165
100
AcDbEntity
8
0
100
AcDbLine
10
552.45288369392051
20
163.3039901074589
30
0
11
547.33383075754546
21
141.16414643971697
31
0
0
LINE
5
166
100
AcDbEntity
8
0
100
AcDbLine
10
473.41962170808671
20
-85.091782056961563
30
0
11
493.5810984933413
21
-80.106051868890688
31
0
0
LINE
5
167
100
AcDbEntity
8
0
100
AcDbLine
10
557.15739972893527
20
183.33043934817351
30
0
11
552.45288369392051
21
163.3039901074589
31
0
0
LINE
5
168
100
AcDbEntity
8
0
100
AcDbLine
10
562.6541403818751
20
-5.9279441789853848
30
0
11
563.60074316401187
21
8.470567554934334
31
0
0
LINE
5
169
100
AcDbEntity
8
0
100
AcDbLine
10
432.12606540201864
20
-25.9763519138858
30
0
11
416.05301194724626
21
-36.4149458169911
31
0
0
LINE
5
170
100
AcDbEntity
8
0
100
AcDbLine
10
563.71616615039989
20
209.13656766629245
30
0
11
560.82013979223268
21
198.10112058468192
31
0
0
LINE
5
171
100
AcDbEntity
8
0
100
AcDbLine
10
497.66912994656167
20
22.026652090226477
30
0
11
489.87035810767259
21
17.131975306047558
31
0
0
LINE
5
172
100
AcDbEntity
8
0
100
AcDbLine
10
503.49901798177825
20
-76.929055694259347
30
0
11
511.36788490533536
21
-73.329012204748636
31
0
0
LINE
5
173
100
AcDbEntity
8
0
100
AcDbLine
10
426.37618693953766
20
-104.2043722605622
30
0
11
431.34641571769868
21
-97.802064909023699
31
0
0
ARC
5
174
100
AcDbEntity
8
0
100
AcDbCircle
10
405.85655177614126
20
-109.92241853188571
30
0
40
14.725398181864858
210
0
220
0
230
1
100
AcDbArc
50
281.69035286656339
51
331.43975926598796
0
LINE
5
175
100
AcDbEntity
8
0
100
AcDbLine
10
569.71757689979756
20
48.292512186963776
30
0
11
572.16694911245543
21
62.84572153353519
31
0
0
LINE
5
176
100
AcDbEntity
8
0
100
AcDbLine
10
517.9491331983279
20
42.926340386578232
30
0
11
511.67833832326482
21
31.634536929820634
31
0
0
LINE
5
177
100
AcDbEntity
8
0
100
AcDbLine
10
533.4590836631038
20
90.008810282018914
30
0
11
529.14287190706079
21
75.659928433545105
31
0
0
LINE
5
178
100
AcDbEntity
8
0
100
AcDbLine
10
547.33383075754546
20
141.16414643971697
30
0
11
542.837436323117
21
122.26413337637285
31
0
0
LINE
5
179
100
AcDbEntity
8
0
100
AcDbLine
10
566.14159390550583
20
27.367136792063498
30
0
11
567.69514137492445
21
36.478931468937326
31
0
0
LINE
5
180
100
AcDbEntity
8
0
100
AcDbLine
10
572.16694911245543
20
62.84572153353519
30
0
11
577.87021646095377
21
98.103479962245288
31
0
0
LINE
5
181
100
AcDbEntity
8
0
100
AcDbLine
10
577.87021646095377
20
98.103479962245288
30
0
11
583.55208666694625
21
135.57364720411084
31
0
0
LINE
5
182
100
AcDbEntity
8
0
100
AcDbLine
10
489.87035810767259
20
17.131975306047558
30
0
11
481.42463190426281
21
9.4526469917424549
31
0
0
LINE
5
183
100
AcDbEntity
8
0
100
AcDbLine
10
567.69514137492445
20
36.478931468937326
30
0
11
569.71757689979756
21
48.292512186963776
31
0
0
ENDSEC
0
SECTION
2
OBJECTS
0
DICTIONARY
5
C
100
AcDbDictionary
3
ACAD_GROUP
350
D
3
ACAD_MLINESTYLE
350
17
0
DICTIONARY
5
D
100
AcDbDictionary
0
DICTIONARY
5
1A
330
C
100
AcDbDictionary
0
DICTIONARY
5
17
100
AcDbDictionary
0
ENDSEC
0
EOF
